<svg width="579" height="160" viewBox="0 0 579 160" fill="none" xmlns="http://www.w3.org/2000/svg">
<path d="M9.2253 63H7.96531L6.2853 59.836C6.07997 59.4533 5.83731 59.192 5.55731 59.052C5.28664 58.9027 4.9133 58.828 4.4373 58.828H2.5893V63H1.4553V53.13H5.5153C6.58864 53.13 7.40531 53.368 7.96531 53.844C8.53464 54.32 8.81931 55.02 8.81931 55.944C8.81931 56.7093 8.59997 57.33 8.16131 57.806C7.73197 58.2727 7.11597 58.5667 6.3133 58.688C6.5653 58.7627 6.78464 58.8887 6.97131 59.066C7.16731 59.2433 7.34464 59.4813 7.50331 59.78L9.2253 63ZM5.4173 57.876C6.18264 57.876 6.75197 57.7173 7.1253 57.4C7.50797 57.0827 7.69931 56.602 7.69931 55.958C7.69931 55.3233 7.51264 54.852 7.13931 54.544C6.76597 54.236 6.19197 54.082 5.4173 54.082H2.5893V57.876H5.4173ZM11.053 53.13H14.371C15.9483 53.13 17.1663 53.5593 18.025 54.418C18.893 55.2673 19.327 56.4807 19.327 58.058C19.327 59.6353 18.893 60.8533 18.025 61.712C17.1663 62.5707 15.9483 63 14.371 63H11.053V53.13ZM14.301 62.02C16.8583 62.02 18.137 60.6993 18.137 58.058C18.137 55.426 16.8583 54.11 14.301 54.11H12.201V62.02H14.301ZM28.1479 63.112C26.6079 63.112 25.3759 62.6967 24.4519 61.866L24.8999 60.984C25.3853 61.3947 25.8799 61.6887 26.3839 61.866C26.8973 62.0433 27.4899 62.132 28.1619 62.132C28.9553 62.132 29.5666 61.978 29.9959 61.67C30.4253 61.362 30.6399 60.928 30.6399 60.368C30.6399 60.0413 30.5373 59.7753 30.3319 59.57C30.1266 59.3647 29.8559 59.2013 29.5199 59.08C29.1839 58.9587 28.7313 58.8327 28.1619 58.702C27.3966 58.5247 26.7666 58.338 26.2719 58.142C25.7866 57.946 25.3899 57.666 25.0819 57.302C24.7833 56.938 24.6339 56.462 24.6339 55.874C24.6339 55.314 24.7786 54.8193 25.0679 54.39C25.3666 53.9513 25.7866 53.6153 26.3279 53.382C26.8786 53.1393 27.5133 53.018 28.2319 53.018C28.9133 53.018 29.5479 53.1253 30.1359 53.34C30.7333 53.5547 31.2373 53.8627 31.6479 54.264L31.2139 55.146C30.7473 54.7447 30.2713 54.4553 29.7859 54.278C29.3099 54.0913 28.7919 53.998 28.2319 53.998C27.4666 53.998 26.8646 54.1613 26.4259 54.488C25.9966 54.8053 25.7819 55.2533 25.7819 55.832C25.7819 56.3267 25.9733 56.7 26.3559 56.952C26.7386 57.204 27.3173 57.4187 28.0919 57.596C28.9413 57.8013 29.6086 57.9927 30.0939 58.17C30.5793 58.338 30.9806 58.5947 31.2979 58.94C31.6246 59.2853 31.7879 59.7473 31.7879 60.326C31.7879 60.886 31.6386 61.376 31.3399 61.796C31.0506 62.216 30.6306 62.5427 30.0799 62.776C29.5293 63 28.8853 63.112 28.1479 63.112ZM36.4396 62.188C36.6449 62.188 36.8502 62.174 37.0556 62.146L36.9996 63.042C36.7849 63.0793 36.5516 63.098 36.2996 63.098C35.4782 63.098 34.8576 62.8833 34.4376 62.454C34.0269 62.0247 33.8216 61.4273 33.8216 60.662V57.078H32.4916V56.182H33.8216V54.11H34.9556V56.182H36.8876V57.078H34.9556V60.578C34.9556 61.6513 35.4502 62.188 36.4396 62.188ZM40.9734 56.014C41.8414 56.014 42.4854 56.238 42.9054 56.686C43.3347 57.1247 43.5494 57.7967 43.5494 58.702V63H42.4434V61.838C42.266 62.2393 41.9954 62.552 41.6314 62.776C41.2674 62.9907 40.8474 63.098 40.3714 63.098C39.9327 63.098 39.5267 63.0093 39.1534 62.832C38.7894 62.6547 38.5 62.4073 38.2854 62.09C38.0707 61.7727 37.9634 61.4227 37.9634 61.04C37.9634 60.5267 38.094 60.13 38.3554 59.85C38.6167 59.5607 39.046 59.3553 39.6434 59.234C40.2407 59.1033 41.0714 59.038 42.1354 59.038H42.4434V58.576C42.4434 58.0067 42.3267 57.596 42.0934 57.344C41.86 57.0827 41.482 56.952 40.9594 56.952C40.1754 56.952 39.396 57.1947 38.6214 57.68L38.2434 56.854C38.598 56.602 39.0227 56.4013 39.5174 56.252C40.0214 56.0933 40.5067 56.014 40.9734 56.014ZM40.5254 62.202C41.0854 62.202 41.5427 62.0153 41.8974 61.642C42.2614 61.2593 42.4434 60.7693 42.4434 60.172V59.766H42.1914C41.37 59.766 40.7447 59.8033 40.3154 59.878C39.886 59.9433 39.578 60.06 39.3914 60.228C39.214 60.3867 39.1254 60.6247 39.1254 60.942C39.1254 61.306 39.256 61.6093 39.5174 61.852C39.788 62.0853 40.124 62.202 40.5254 62.202ZM48.6212 62.188C48.8265 62.188 49.0319 62.174 49.2372 62.146L49.1812 63.042C48.9665 63.0793 48.7332 63.098 48.4812 63.098C47.6599 63.098 47.0392 62.8833 46.6192 62.454C46.2085 62.0247 46.0032 61.4273 46.0032 60.662V57.078H44.6732V56.182H46.0032V54.11H47.1372V56.182H49.0692V57.078H47.1372V60.578C47.1372 61.6513 47.6319 62.188 48.6212 62.188ZM50.383 63V56.182H51.517V63H50.383ZM50.271 53.228H51.643V54.502H50.271V53.228ZM56.4649 63.098C55.8209 63.098 55.2516 62.9533 54.7569 62.664C54.2716 62.3747 53.8936 61.964 53.6229 61.432C53.3616 60.8907 53.2309 60.2653 53.2309 59.556C53.2309 58.8467 53.3616 58.226 53.6229 57.694C53.8936 57.1527 54.2716 56.7373 54.7569 56.448C55.2516 56.1587 55.8209 56.014 56.4649 56.014C57.1089 56.014 57.6782 56.1587 58.1729 56.448C58.6676 56.7373 59.0456 57.1527 59.3069 57.694C59.5776 58.226 59.7129 58.8467 59.7129 59.556C59.7129 60.2653 59.5776 60.8907 59.3069 61.432C59.0456 61.964 58.6676 62.3747 58.1729 62.664C57.6782 62.9533 57.1089 63.098 56.4649 63.098ZM56.4649 62.16C57.1369 62.16 57.6502 61.9407 58.0049 61.502C58.3689 61.054 58.5509 60.4053 58.5509 59.556C58.5509 58.7253 58.3689 58.086 58.0049 57.638C57.6409 57.1807 57.1276 56.952 56.4649 56.952C55.8022 56.952 55.2889 57.1807 54.9249 57.638C54.5609 58.086 54.3789 58.7253 54.3789 59.556C54.3789 60.396 54.5562 61.04 54.9109 61.488C55.2749 61.936 55.7929 62.16 56.4649 62.16ZM64.8325 56.014C66.4659 56.014 67.2825 56.9147 67.2825 58.716V63H66.1485V58.786C66.1485 58.1513 66.0225 57.6893 65.7705 57.4C65.5279 57.1107 65.1359 56.966 64.5945 56.966C63.9692 56.966 63.4699 57.1573 63.0965 57.54C62.7232 57.9227 62.5365 58.4407 62.5365 59.094V63H61.4025V56.182H62.5225V57.302C62.7465 56.882 63.0592 56.5647 63.4605 56.35C63.8619 56.126 64.3192 56.014 64.8325 56.014ZM77.3509 63.112C76.4176 63.112 75.6056 62.9113 74.9149 62.51C74.2243 62.0993 73.6923 61.516 73.3189 60.76C72.9549 59.9947 72.7729 59.094 72.7729 58.058C72.7729 57.022 72.9549 56.126 73.3189 55.37C73.6923 54.614 74.2243 54.0353 74.9149 53.634C75.6056 53.2233 76.4176 53.018 77.3509 53.018C78.0323 53.018 78.6576 53.1253 79.2269 53.34C79.7963 53.5453 80.2909 53.8533 80.7109 54.264L80.2769 55.146C79.8009 54.7447 79.3343 54.4553 78.8769 54.278C78.4196 54.1007 77.9156 54.012 77.3649 54.012C76.2823 54.012 75.4423 54.3667 74.8449 55.076C74.2569 55.776 73.9629 56.77 73.9629 58.058C73.9629 59.3553 74.2569 60.3587 74.8449 61.068C75.4423 61.768 76.2823 62.118 77.3649 62.118C77.9156 62.118 78.4196 62.0293 78.8769 61.852C79.3343 61.6747 79.8009 61.3853 80.2769 60.984L80.7109 61.866C80.2909 62.2767 79.7963 62.5893 79.2269 62.804C78.6576 63.0093 78.0323 63.112 77.3509 63.112ZM90.3816 63H89.1216L87.4416 59.836C87.2362 59.4533 86.9936 59.192 86.7136 59.052C86.4429 58.9027 86.0696 58.828 85.5936 58.828H83.7456V63H82.6116V53.13H86.6716C87.7449 53.13 88.5616 53.368 89.1216 53.844C89.6909 54.32 89.9756 55.02 89.9756 55.944C89.9756 56.7093 89.7562 57.33 89.3176 57.806C88.8882 58.2727 88.2722 58.5667 87.4696 58.688C87.7216 58.7627 87.9409 58.8887 88.1276 59.066C88.3236 59.2433 88.5009 59.4813 88.6596 59.78L90.3816 63ZM86.5736 57.876C87.3389 57.876 87.9082 57.7173 88.2816 57.4C88.6642 57.0827 88.8556 56.602 88.8556 55.958C88.8556 55.3233 88.6689 54.852 88.2956 54.544C87.9222 54.236 87.3482 54.082 86.5736 54.082H83.7456V57.876H86.5736ZM100.595 53.13H101.533V63H100.483L100.497 55.356L97.2912 61.432H96.4792L93.2592 55.412L93.2732 63H92.2092V53.13H93.1612L96.8992 60.284L100.595 53.13Z" fill="black"/>
<path d="M51.9922 29.0199L72 36.4232V29.7852L51.9922 22.3818L32 29.7852V36.4232L51.9922 29.0199Z" fill="black"/>
<path d="M51.9922 29.02L32 36.4234L39.4207 40.0001L51.9922 35.3457L64.5793 40.0001L72 36.4234L51.9922 29.02Z" fill="#19C1CE"/>
<path d="M51.9922 10.9801L32 3.57666V10.2147L51.9922 17.6181L72 10.2147V3.57666L51.9922 10.9801Z" fill="black"/>
<path d="M51.9922 10.9801L72 3.57671L64.5793 0L51.9922 4.65448L39.4207 0L32 3.57671L51.9922 10.9801Z" fill="#19C1CE"/>
<path d="M142.554 63.112C141.014 63.112 139.782 62.6967 138.858 61.866L139.306 60.984C139.792 61.3947 140.286 61.6887 140.79 61.866C141.304 62.0433 141.896 62.132 142.568 62.132C143.362 62.132 143.973 61.978 144.402 61.67C144.832 61.362 145.046 60.928 145.046 60.368C145.046 60.0413 144.944 59.7753 144.738 59.57C144.533 59.3647 144.262 59.2013 143.926 59.08C143.59 58.9587 143.138 58.8327 142.568 58.702C141.803 58.5247 141.173 58.338 140.678 58.142C140.193 57.946 139.796 57.666 139.488 57.302C139.19 56.938 139.04 56.462 139.04 55.874C139.04 55.314 139.185 54.8193 139.474 54.39C139.773 53.9513 140.193 53.6153 140.734 53.382C141.285 53.1393 141.92 53.018 142.638 53.018C143.32 53.018 143.954 53.1253 144.542 53.34C145.14 53.5547 145.644 53.8627 146.054 54.264L145.62 55.146C145.154 54.7447 144.678 54.4553 144.192 54.278C143.716 54.0913 143.198 53.998 142.638 53.998C141.873 53.998 141.271 54.1613 140.832 54.488C140.403 54.8053 140.188 55.2533 140.188 55.832C140.188 56.3267 140.38 56.7 140.762 56.952C141.145 57.204 141.724 57.4187 142.498 57.596C143.348 57.8013 144.015 57.9927 144.5 58.17C144.986 58.338 145.387 58.5947 145.704 58.94C146.031 59.2853 146.194 59.7473 146.194 60.326C146.194 60.886 146.045 61.376 145.746 61.796C145.457 62.216 145.037 62.5427 144.486 62.776C143.936 63 143.292 63.112 142.554 63.112ZM150.663 56.014C151.531 56.014 152.175 56.238 152.595 56.686C153.024 57.1247 153.239 57.7967 153.239 58.702V63H152.133V61.838C151.955 62.2393 151.685 62.552 151.321 62.776C150.957 62.9907 150.537 63.098 150.061 63.098C149.622 63.098 149.216 63.0093 148.843 62.832C148.479 62.6547 148.189 62.4073 147.975 62.09C147.76 61.7727 147.653 61.4227 147.653 61.04C147.653 60.5267 147.783 60.13 148.045 59.85C148.306 59.5607 148.735 59.3553 149.333 59.234C149.93 59.1033 150.761 59.038 151.825 59.038H152.133V58.576C152.133 58.0067 152.016 57.596 151.783 57.344C151.549 57.0827 151.171 56.952 150.649 56.952C149.865 56.952 149.085 57.1947 148.311 57.68L147.933 56.854C148.287 56.602 148.712 56.4013 149.207 56.252C149.711 56.0933 150.196 56.014 150.663 56.014ZM150.215 62.202C150.775 62.202 151.232 62.0153 151.587 61.642C151.951 61.2593 152.133 60.7693 152.133 60.172V59.766H151.881C151.059 59.766 150.434 59.8033 150.005 59.878C149.575 59.9433 149.267 60.06 149.081 60.228C148.903 60.3867 148.815 60.6247 148.815 60.942C148.815 61.306 148.945 61.6093 149.207 61.852C149.477 62.0853 149.813 62.202 150.215 62.202ZM155.315 63V53.13H156.449V63H155.315ZM164.281 59.766H159.297C159.334 60.5593 159.549 61.1613 159.941 61.572C160.333 61.9733 160.888 62.174 161.607 62.174C162.4 62.174 163.128 61.9033 163.791 61.362L164.169 62.188C163.87 62.468 163.487 62.692 163.021 62.86C162.554 63.0187 162.078 63.098 161.593 63.098C160.529 63.098 159.689 62.7853 159.073 62.16C158.466 61.5347 158.163 60.6713 158.163 59.57C158.163 58.87 158.298 58.254 158.569 57.722C158.839 57.1807 159.217 56.7607 159.703 56.462C160.197 56.1633 160.757 56.014 161.383 56.014C162.288 56.014 162.997 56.3127 163.511 56.91C164.024 57.498 164.281 58.31 164.281 59.346V59.766ZM161.397 56.896C160.799 56.896 160.319 57.0827 159.955 57.456C159.6 57.8293 159.39 58.3567 159.325 59.038H163.287C163.268 58.3473 163.095 57.82 162.769 57.456C162.442 57.0827 161.985 56.896 161.397 56.896ZM168.261 63.098C167.113 63.098 166.203 62.804 165.531 62.216L165.909 61.376C166.273 61.6653 166.642 61.8753 167.015 62.006C167.398 62.1273 167.827 62.188 168.303 62.188C168.807 62.188 169.19 62.104 169.451 61.936C169.722 61.7587 169.857 61.5067 169.857 61.18C169.857 60.9093 169.769 60.6947 169.591 60.536C169.414 60.3773 169.12 60.2513 168.709 60.158L167.561 59.892C166.983 59.7613 166.539 59.5373 166.231 59.22C165.923 58.9027 165.769 58.5107 165.769 58.044C165.769 57.4373 166.007 56.9473 166.483 56.574C166.959 56.2007 167.594 56.014 168.387 56.014C168.863 56.014 169.316 56.0933 169.745 56.252C170.175 56.4013 170.534 56.6207 170.823 56.91L170.445 57.736C169.82 57.204 169.134 56.938 168.387 56.938C167.911 56.938 167.538 57.0313 167.267 57.218C167.006 57.3953 166.875 57.6473 166.875 57.974C166.875 58.2447 166.955 58.464 167.113 58.632C167.281 58.7907 167.547 58.912 167.911 58.996L169.073 59.276C169.708 59.4253 170.179 59.654 170.487 59.962C170.795 60.2607 170.949 60.6527 170.949 61.138C170.949 61.7353 170.707 62.2113 170.221 62.566C169.745 62.9207 169.092 63.098 168.261 63.098ZM174.19 56.182H176.122V57.078H174.19V63H173.056V57.078H171.726V56.182H173.056V55.958C173.056 55.0527 173.28 54.3667 173.728 53.9C174.185 53.4333 174.885 53.172 175.828 53.116L176.388 53.088L176.472 53.97L175.828 54.012C175.259 54.0493 174.843 54.2127 174.582 54.502C174.321 54.782 174.19 55.216 174.19 55.804V56.182ZM180.031 63.098C179.387 63.098 178.818 62.9533 178.323 62.664C177.838 62.3747 177.46 61.964 177.189 61.432C176.928 60.8907 176.797 60.2653 176.797 59.556C176.797 58.8467 176.928 58.226 177.189 57.694C177.46 57.1527 177.838 56.7373 178.323 56.448C178.818 56.1587 179.387 56.014 180.031 56.014C180.675 56.014 181.245 56.1587 181.739 56.448C182.234 56.7373 182.612 57.1527 182.873 57.694C183.144 58.226 183.279 58.8467 183.279 59.556C183.279 60.2653 183.144 60.8907 182.873 61.432C182.612 61.964 182.234 62.3747 181.739 62.664C181.245 62.9533 180.675 63.098 180.031 63.098ZM180.031 62.16C180.703 62.16 181.217 61.9407 181.571 61.502C181.935 61.054 182.117 60.4053 182.117 59.556C182.117 58.7253 181.935 58.086 181.571 57.638C181.207 57.1807 180.694 56.952 180.031 56.952C179.369 56.952 178.855 57.1807 178.491 57.638C178.127 58.086 177.945 58.7253 177.945 59.556C177.945 60.396 178.123 61.04 178.477 61.488C178.841 61.936 179.359 62.16 180.031 62.16ZM188.833 56.994L188.091 57.064C187.391 57.1293 186.882 57.3487 186.565 57.722C186.257 58.0953 186.103 58.5573 186.103 59.108V63H184.969V56.182H186.075V57.372C186.458 56.5787 187.209 56.1353 188.329 56.042L188.735 56.014L188.833 56.994ZM192.652 63.098C191.98 63.098 191.396 62.9533 190.902 62.664C190.407 62.3747 190.024 61.9687 189.754 61.446C189.492 60.914 189.362 60.2933 189.362 59.584C189.362 58.8747 189.497 58.254 189.768 57.722C190.048 57.1807 190.435 56.7607 190.93 56.462C191.434 56.1633 192.022 56.014 192.694 56.014C193.151 56.014 193.599 56.098 194.038 56.266C194.476 56.4247 194.831 56.6393 195.102 56.91L194.724 57.75C194.08 57.2273 193.426 56.966 192.764 56.966C192.064 56.966 191.518 57.1947 191.126 57.652C190.734 58.1093 190.538 58.7533 190.538 59.584C190.538 60.4053 190.734 61.04 191.126 61.488C191.518 61.936 192.064 62.16 192.764 62.16C193.426 62.16 194.08 61.8987 194.724 61.376L195.102 62.216C194.812 62.4867 194.448 62.7013 194.01 62.86C193.571 63.0187 193.118 63.098 192.652 63.098ZM202.179 59.766H197.195C197.232 60.5593 197.447 61.1613 197.839 61.572C198.231 61.9733 198.786 62.174 199.505 62.174C200.298 62.174 201.026 61.9033 201.689 61.362L202.067 62.188C201.768 62.468 201.386 62.692 200.919 62.86C200.452 63.0187 199.976 63.098 199.491 63.098C198.427 63.098 197.587 62.7853 196.971 62.16C196.364 61.5347 196.061 60.6713 196.061 59.57C196.061 58.87 196.196 58.254 196.467 57.722C196.738 57.1807 197.116 56.7607 197.601 56.462C198.096 56.1633 198.656 56.014 199.281 56.014C200.186 56.014 200.896 56.3127 201.409 56.91C201.922 57.498 202.179 58.31 202.179 59.346V59.766ZM199.295 56.896C198.698 56.896 198.217 57.0827 197.853 57.456C197.498 57.8293 197.288 58.3567 197.223 59.038H201.185C201.166 58.3473 200.994 57.82 200.667 57.456C200.34 57.0827 199.883 56.896 199.295 56.896Z" fill="black"/>
<g clip-path="url(#clip0_1541_3351)">
<path d="M167.646 8.92382C168.936 7.56355 170.732 6.71994 172.718 6.71994C175.358 6.71994 177.662 8.20996 178.889 10.4219C179.955 9.93985 181.135 9.67171 182.377 9.67171C187.139 9.67171 191 13.613 191 18.4746C191 23.3367 187.139 27.278 182.377 27.278C181.795 27.278 181.227 27.2192 180.678 27.1067C179.598 29.0569 177.539 30.3745 175.176 30.3745C174.187 30.3745 173.251 30.1433 172.418 29.7321C171.323 32.3391 168.772 34.167 165.798 34.167C162.701 34.167 160.062 32.184 159.048 29.4029C158.606 29.498 158.147 29.5476 157.676 29.5476C153.989 29.5476 151 26.4915 151 22.7209C151 20.1941 152.343 17.9879 154.338 16.8075C153.928 15.8509 153.699 14.7951 153.699 13.6851C153.699 9.3488 157.178 5.83366 161.468 5.83366C163.987 5.83366 166.226 7.04574 167.646 8.92382Z" fill="#00A1E0"/>
<path d="M156.794 20.5262C156.769 20.5925 156.803 20.6063 156.811 20.6179C156.886 20.6732 156.962 20.713 157.039 20.7574C157.447 20.9765 157.832 21.0405 158.235 21.0405C159.056 21.0405 159.565 20.5988 159.565 19.8878V19.874C159.565 19.2166 158.99 18.9779 158.451 18.8055L158.38 18.7824C157.974 18.6487 157.623 18.5333 157.623 18.2623V18.2479C157.623 18.0161 157.828 17.8454 158.146 17.8454C158.499 17.8454 158.918 17.9642 159.188 18.1153C159.188 18.1153 159.268 18.1672 159.297 18.0893C159.313 18.0478 159.449 17.6753 159.464 17.6349C159.479 17.5911 159.452 17.5588 159.424 17.5415C159.116 17.3518 158.689 17.2221 158.248 17.2221L158.166 17.2227C157.415 17.2227 156.891 17.6817 156.891 18.3396V18.3534C156.891 19.0471 157.469 19.272 158.011 19.4288L158.098 19.4559C158.493 19.5788 158.833 19.6843 158.833 19.9657V19.9795C158.833 20.2367 158.612 20.4281 158.256 20.4281C158.117 20.4281 157.676 20.4253 157.199 20.1202C157.141 20.0862 157.108 20.0614 157.063 20.0343C157.04 20.0193 156.981 19.9934 156.955 20.0718L156.794 20.5262Z" fill="white"/>
<path d="M168.806 20.5262C168.78 20.5925 168.815 20.6063 168.823 20.6179C168.898 20.6732 168.974 20.713 169.051 20.7574C169.459 20.9765 169.844 21.0405 170.247 21.0405C171.068 21.0405 171.577 20.5988 171.577 19.8878V19.874C171.577 19.2166 171.002 18.9779 170.463 18.8055L170.392 18.7824C169.986 18.6487 169.635 18.5333 169.635 18.2623V18.2479C169.635 18.0161 169.84 17.8454 170.158 17.8454C170.511 17.8454 170.93 17.9642 171.2 18.1153C171.2 18.1153 171.28 18.1672 171.309 18.0893C171.325 18.0478 171.461 17.6753 171.476 17.6349C171.491 17.5911 171.464 17.5588 171.436 17.5415C171.127 17.3518 170.701 17.2221 170.26 17.2221L170.178 17.2227C169.427 17.2227 168.903 17.6817 168.903 18.3396V18.3534C168.903 19.0471 169.481 19.272 170.023 19.4288L170.11 19.4559C170.505 19.5788 170.846 19.6843 170.846 19.9657V19.9795C170.846 20.2367 170.624 20.4281 170.268 20.4281C170.129 20.4281 169.688 20.4253 169.211 20.1202C169.153 20.0862 169.119 20.0626 169.076 20.0343C169.061 20.0245 168.991 19.9974 168.967 20.0718L168.806 20.5262Z" fill="white"/>
<path d="M177.006 19.1337C177.006 19.5356 176.932 19.8522 176.786 20.0759C176.642 20.2973 176.424 20.4052 176.119 20.4052C175.814 20.4052 175.597 20.2979 175.455 20.0759C175.312 19.8527 175.239 19.5356 175.239 19.1337C175.239 18.7324 175.312 18.4164 175.455 18.1949C175.597 17.9758 175.814 17.8691 176.119 17.8691C176.424 17.8691 176.642 17.9758 176.786 18.1949C176.932 18.4164 177.006 18.7324 177.006 19.1337ZM177.691 18.3887C177.624 18.1586 177.519 17.9556 177.379 17.7867C177.239 17.6171 177.063 17.4811 176.853 17.3819C176.644 17.2833 176.397 17.2331 176.119 17.2331C175.841 17.2331 175.594 17.2833 175.385 17.3819C175.175 17.4811 174.998 17.6171 174.858 17.7867C174.719 17.9562 174.614 18.1592 174.547 18.3887C174.48 18.6176 174.446 18.8679 174.446 19.1337C174.446 19.3995 174.48 19.6503 174.547 19.8787C174.614 20.1082 174.719 20.3112 174.859 20.4807C174.998 20.6502 175.176 20.7857 175.385 20.882C175.594 20.9783 175.841 21.0273 176.119 21.0273C176.397 21.0273 176.643 20.9783 176.853 20.882C177.062 20.7857 177.239 20.6502 177.379 20.4807C177.519 20.3117 177.624 20.1088 177.691 19.8787C177.758 19.6498 177.792 19.3989 177.792 19.1337C177.792 18.8684 177.758 18.6176 177.691 18.3887Z" fill="white"/>
<path d="M183.315 20.2982C183.292 20.2307 183.228 20.2561 183.228 20.2561C183.128 20.2947 183.022 20.3305 182.909 20.3483C182.795 20.3662 182.669 20.3754 182.534 20.3754C182.202 20.3754 181.939 20.2757 181.75 20.0785C181.561 19.8813 181.455 19.5624 181.456 19.1311C181.457 18.7384 181.551 18.4432 181.719 18.2183C181.886 17.9945 182.14 17.8798 182.479 17.8798C182.762 17.8798 182.977 17.9127 183.203 17.9847C183.203 17.9847 183.257 18.0084 183.283 17.9369C183.342 17.7685 183.387 17.648 183.451 17.4629C183.469 17.4104 183.424 17.3879 183.408 17.3816C183.32 17.3464 183.11 17.2893 182.952 17.2651C182.803 17.242 182.63 17.2299 182.438 17.2299C182.15 17.2299 181.893 17.2795 181.674 17.3787C181.455 17.4773 181.269 17.6134 181.122 17.7829C180.975 17.9524 180.864 18.1554 180.789 18.3849C180.715 18.6138 180.677 18.8652 180.677 19.1311C180.677 19.706 180.831 20.1707 181.133 20.5109C181.436 20.8523 181.892 21.0259 182.485 21.0259C182.836 21.0259 183.197 20.9538 183.455 20.8506C183.455 20.8506 183.505 20.8264 183.483 20.7681L183.315 20.2982Z" fill="white"/>
<path d="M184.513 18.7489C184.546 18.5257 184.607 18.3401 184.701 18.1953C184.843 17.9756 185.059 17.8551 185.364 17.8551C185.668 17.8551 185.869 17.9762 186.013 18.1953C186.109 18.3401 186.15 18.5338 186.167 18.7489H184.513ZM186.819 18.2582C186.761 18.0362 186.617 17.8119 186.522 17.7092C186.373 17.5466 186.227 17.433 186.083 17.3696C185.893 17.2877 185.667 17.2335 185.418 17.2335C185.129 17.2335 184.866 17.2825 184.653 17.384C184.439 17.4855 184.26 17.6239 184.119 17.7963C183.978 17.9681 183.872 18.1728 183.805 18.4052C183.737 18.6364 183.703 18.8884 183.703 19.1543C183.703 19.4247 183.738 19.6767 183.809 19.9033C183.879 20.1317 183.992 20.3329 184.145 20.4995C184.297 20.6673 184.493 20.7988 184.728 20.8905C184.961 20.9816 185.244 21.0289 185.569 21.0283C186.239 21.026 186.591 20.8749 186.737 20.7936C186.762 20.7792 186.787 20.7538 186.756 20.6812L186.605 20.2516C186.582 20.1876 186.517 20.2112 186.517 20.2112C186.352 20.2735 186.116 20.3854 185.566 20.3842C185.206 20.3836 184.94 20.2764 184.773 20.1086C184.601 19.9368 184.517 19.6842 184.503 19.3278L186.821 19.3301C186.821 19.3301 186.882 19.329 186.888 19.269C186.891 19.2436 186.968 18.787 186.819 18.2582Z" fill="white"/>
<path d="M165.945 18.7489C165.978 18.5257 166.039 18.3401 166.133 18.1953C166.275 17.9756 166.491 17.8551 166.796 17.8551C167.1 17.8551 167.301 17.9762 167.446 18.1953C167.541 18.3401 167.582 18.5338 167.599 18.7489H165.945ZM168.251 18.2582C168.193 18.0362 168.049 17.8119 167.955 17.7092C167.805 17.5466 167.659 17.433 167.515 17.3696C167.325 17.2877 167.099 17.2335 166.85 17.2335C166.561 17.2335 166.298 17.2825 166.085 17.384C165.871 17.4855 165.692 17.6239 165.551 17.7963C165.41 17.9681 165.304 18.1728 165.237 18.4052C165.17 18.6364 165.135 18.8884 165.135 19.1543C165.135 19.4247 165.17 19.6767 165.241 19.9033C165.311 20.1317 165.424 20.3329 165.577 20.4995C165.729 20.6673 165.925 20.7988 166.16 20.8905C166.393 20.9816 166.676 21.0289 167.001 21.0283C167.671 21.026 168.023 20.8749 168.169 20.7936C168.194 20.7792 168.219 20.7538 168.188 20.6812L168.037 20.2516C168.014 20.1876 167.949 20.2112 167.949 20.2112C167.784 20.2735 167.548 20.3854 166.997 20.3842C166.638 20.3836 166.372 20.2764 166.205 20.1086C166.033 19.9368 165.949 19.6842 165.935 19.3278L168.253 19.3301C168.253 19.3301 168.314 19.329 168.32 19.269C168.323 19.2436 168.4 18.787 168.251 18.2582Z" fill="white"/>
<path d="M160.934 20.2851C160.843 20.2119 160.831 20.1934 160.8 20.1462C160.754 20.0741 160.731 19.9714 160.731 19.8411C160.731 19.6347 160.798 19.4865 160.938 19.3867C160.936 19.3873 161.137 19.2109 161.61 19.2172C161.943 19.2218 162.239 19.2714 162.239 19.2714V20.3382H162.24C162.24 20.3382 161.945 20.4022 161.614 20.4224C161.142 20.4512 160.932 20.2846 160.934 20.2851ZM161.856 18.6365C161.762 18.6296 161.641 18.6256 161.495 18.6256C161.296 18.6256 161.104 18.651 160.924 18.7C160.743 18.749 160.58 18.8257 160.439 18.9272C160.299 19.0292 160.185 19.1595 160.103 19.3141C160.021 19.4686 159.98 19.6508 159.98 19.855C159.98 20.0626 160.015 20.243 160.086 20.3907C160.156 20.5388 160.258 20.6622 160.388 20.7574C160.517 20.8525 160.676 20.9223 160.86 20.9644C161.042 21.0065 161.248 21.0278 161.474 21.0278C161.712 21.0278 161.949 21.0082 162.178 20.9684C162.406 20.9292 162.685 20.8721 162.762 20.8543C162.839 20.8358 162.925 20.8122 162.925 20.8122C162.982 20.7978 162.978 20.7355 162.978 20.7355L162.977 18.5898C162.977 18.1193 162.852 17.7704 162.608 17.5542C162.365 17.3385 162.006 17.2296 161.543 17.2296C161.369 17.2296 161.09 17.2538 160.922 17.2878C160.922 17.2878 160.415 17.387 160.207 17.5519C160.207 17.5519 160.161 17.5807 160.186 17.6453L160.35 18.0916C160.371 18.1493 160.426 18.1297 160.426 18.1297C160.426 18.1297 160.444 18.1228 160.464 18.1107C160.911 17.865 161.475 17.8725 161.475 17.8725C161.725 17.8725 161.918 17.9232 162.048 18.0242C162.174 18.1222 162.239 18.2704 162.239 18.5829V18.6821C162.039 18.6533 161.856 18.6365 161.856 18.6365Z" fill="white"/>
<path d="M180.556 17.4274C180.574 17.3743 180.537 17.349 180.522 17.3432C180.482 17.3276 180.285 17.2855 180.133 17.2757C179.842 17.2579 179.68 17.3074 179.535 17.3732C179.392 17.4389 179.232 17.545 179.143 17.6655V17.3801C179.143 17.3403 179.115 17.3086 179.076 17.3086H178.482C178.443 17.3086 178.416 17.3403 178.416 17.3801V20.8797C178.416 20.9189 178.447 20.9512 178.486 20.9512H179.095C179.134 20.9512 179.165 20.9189 179.165 20.8797V19.1313C179.165 18.8966 179.191 18.6625 179.242 18.5155C179.292 18.3702 179.361 18.2537 179.445 18.1701C179.53 18.087 179.626 18.0288 179.732 17.9959C179.839 17.9625 179.959 17.9515 180.043 17.9515C180.164 17.9515 180.298 17.9833 180.298 17.9833C180.342 17.9884 180.367 17.9608 180.382 17.9198C180.422 17.8126 180.535 17.4914 180.556 17.4274Z" fill="white"/>
<path d="M174.839 15.8055C174.765 15.7824 174.698 15.7669 174.61 15.7501C174.521 15.734 174.415 15.7259 174.295 15.7259C173.875 15.7259 173.545 15.8459 173.313 16.0823C173.082 16.3176 172.925 16.6756 172.847 17.1467L172.818 17.3053H172.292C172.292 17.3053 172.228 17.303 172.214 17.3734L172.128 17.8618C172.122 17.9079 172.142 17.9373 172.204 17.9373H172.716L172.196 20.8735C172.156 21.1099 172.109 21.3043 172.057 21.4519C172.006 21.5972 171.957 21.7062 171.895 21.7857C171.836 21.8619 171.78 21.9184 171.683 21.9512C171.604 21.9783 171.511 21.991 171.41 21.991C171.354 21.991 171.28 21.9818 171.225 21.9703C171.17 21.9593 171.141 21.9472 171.099 21.9293C171.099 21.9293 171.039 21.9063 171.015 21.9668C170.997 22.017 170.86 22.397 170.843 22.4437C170.827 22.4904 170.85 22.5267 170.879 22.5377C170.948 22.5619 170.998 22.578 171.091 22.6005C171.22 22.6311 171.329 22.6328 171.431 22.6328C171.644 22.6328 171.839 22.6023 172 22.5434C172.162 22.484 172.303 22.3808 172.429 22.2413C172.564 22.0902 172.649 21.9322 172.729 21.716C172.81 21.5026 172.879 21.2374 172.933 20.9283L173.456 17.9373H174.219C174.219 17.9373 174.284 17.9396 174.297 17.8687L174.384 17.3809C174.389 17.3342 174.37 17.3053 174.308 17.3053H173.566C173.57 17.2886 173.604 17.0245 173.689 16.776C173.725 16.6705 173.794 16.5845 173.851 16.5257C173.908 16.4681 173.974 16.4271 174.046 16.4035C174.119 16.3793 174.203 16.3677 174.295 16.3677C174.364 16.3677 174.433 16.3758 174.485 16.3867C174.557 16.4023 174.585 16.4104 174.603 16.4162C174.679 16.4392 174.69 16.4167 174.704 16.3798L174.882 15.8874C174.9 15.8343 174.855 15.8118 174.839 15.8055Z" fill="white"/>
<path d="M164.481 20.8802C164.481 20.9195 164.453 20.9512 164.414 20.9512H163.8C163.761 20.9512 163.734 20.9195 163.734 20.8802V15.8728C163.734 15.8336 163.761 15.8019 163.8 15.8019H164.414C164.453 15.8019 164.481 15.8336 164.481 15.8728V20.8802Z" fill="white"/>
</g>
<path d="M276.279 57.862V62.426C275.887 62.6313 275.374 62.7993 274.739 62.93C274.114 63.0513 273.479 63.112 272.835 63.112C271.855 63.112 271.01 62.9113 270.301 62.51C269.592 62.1087 269.046 61.53 268.663 60.774C268.29 60.018 268.103 59.1127 268.103 58.058C268.103 57.0127 268.29 56.112 268.663 55.356C269.036 54.6 269.573 54.0213 270.273 53.62C270.973 53.2187 271.799 53.018 272.751 53.018C273.442 53.018 274.076 53.1253 274.655 53.34C275.234 53.5453 275.728 53.8533 276.139 54.264L275.705 55.146C275.229 54.7353 274.758 54.4413 274.291 54.264C273.834 54.0867 273.32 53.998 272.751 53.998C271.64 53.998 270.786 54.348 270.189 55.048C269.592 55.748 269.293 56.7513 269.293 58.058C269.293 59.3927 269.596 60.41 270.203 61.11C270.81 61.8007 271.696 62.146 272.863 62.146C273.712 62.146 274.501 62.02 275.229 61.768V58.758H272.779V57.862H276.279ZM281.258 63.098C280.614 63.098 280.045 62.9533 279.55 62.664C279.065 62.3747 278.687 61.964 278.416 61.432C278.155 60.8907 278.024 60.2653 278.024 59.556C278.024 58.8467 278.155 58.226 278.416 57.694C278.687 57.1527 279.065 56.7373 279.55 56.448C280.045 56.1587 280.614 56.014 281.258 56.014C281.902 56.014 282.471 56.1587 282.966 56.448C283.461 56.7373 283.839 57.1527 284.1 57.694C284.371 58.226 284.506 58.8467 284.506 59.556C284.506 60.2653 284.371 60.8907 284.1 61.432C283.839 61.964 283.461 62.3747 282.966 62.664C282.471 62.9533 281.902 63.098 281.258 63.098ZM281.258 62.16C281.93 62.16 282.443 61.9407 282.798 61.502C283.162 61.054 283.344 60.4053 283.344 59.556C283.344 58.7253 283.162 58.086 282.798 57.638C282.434 57.1807 281.921 56.952 281.258 56.952C280.595 56.952 280.082 57.1807 279.718 57.638C279.354 58.086 279.172 58.7253 279.172 59.556C279.172 60.396 279.349 61.04 279.704 61.488C280.068 61.936 280.586 62.16 281.258 62.16ZM289.024 63.098C288.38 63.098 287.81 62.9533 287.316 62.664C286.83 62.3747 286.452 61.964 286.182 61.432C285.92 60.8907 285.79 60.2653 285.79 59.556C285.79 58.8467 285.92 58.226 286.182 57.694C286.452 57.1527 286.83 56.7373 287.316 56.448C287.81 56.1587 288.38 56.014 289.024 56.014C289.668 56.014 290.237 56.1587 290.732 56.448C291.226 56.7373 291.604 57.1527 291.866 57.694C292.136 58.226 292.272 58.8467 292.272 59.556C292.272 60.2653 292.136 60.8907 291.866 61.432C291.604 61.964 291.226 62.3747 290.732 62.664C290.237 62.9533 289.668 63.098 289.024 63.098ZM289.024 62.16C289.696 62.16 290.209 61.9407 290.564 61.502C290.928 61.054 291.11 60.4053 291.11 59.556C291.11 58.7253 290.928 58.086 290.564 57.638C290.2 57.1807 289.686 56.952 289.024 56.952C288.361 56.952 287.848 57.1807 287.484 57.638C287.12 58.086 286.938 58.7253 286.938 59.556C286.938 60.396 287.115 61.04 287.47 61.488C287.834 61.936 288.352 62.16 289.024 62.16ZM300.065 56.182V62.538C300.065 63.5553 299.804 64.3207 299.281 64.834C298.758 65.3567 297.984 65.618 296.957 65.618C295.762 65.618 294.759 65.31 293.947 64.694L294.325 63.854C294.782 64.1527 295.212 64.3673 295.613 64.498C296.014 64.6287 296.462 64.694 296.957 64.694C297.61 64.694 298.105 64.5167 298.441 64.162C298.777 63.8167 298.945 63.308 298.945 62.636V61.432C298.749 61.8707 298.446 62.2067 298.035 62.44C297.634 62.6733 297.158 62.79 296.607 62.79C296.01 62.79 295.478 62.65 295.011 62.37C294.554 62.09 294.194 61.6933 293.933 61.18C293.681 60.6667 293.555 60.074 293.555 59.402C293.555 58.73 293.681 58.1373 293.933 57.624C294.194 57.1107 294.554 56.714 295.011 56.434C295.478 56.154 296.01 56.014 296.607 56.014C297.148 56.014 297.62 56.1307 298.021 56.364C298.422 56.5973 298.726 56.9287 298.931 57.358V56.182H300.065ZM296.831 61.852C297.484 61.852 297.998 61.6373 298.371 61.208C298.744 60.7693 298.931 60.1673 298.931 59.402C298.931 58.646 298.744 58.0533 298.371 57.624C298.007 57.1853 297.494 56.966 296.831 56.966C296.168 56.966 295.646 57.1853 295.263 57.624C294.89 58.0533 294.703 58.646 294.703 59.402C294.703 60.1673 294.89 60.7693 295.263 61.208C295.646 61.6373 296.168 61.852 296.831 61.852ZM302.164 63V53.13H303.298V63H302.164ZM311.13 59.766H306.146C306.183 60.5593 306.398 61.1613 306.79 61.572C307.182 61.9733 307.737 62.174 308.456 62.174C309.249 62.174 309.977 61.9033 310.64 61.362L311.018 62.188C310.719 62.468 310.337 62.692 309.87 62.86C309.403 63.0187 308.927 63.098 308.442 63.098C307.378 63.098 306.538 62.7853 305.922 62.16C305.315 61.5347 305.012 60.6713 305.012 59.57C305.012 58.87 305.147 58.254 305.418 57.722C305.689 57.1807 306.067 56.7607 306.552 56.462C307.047 56.1633 307.607 56.014 308.232 56.014C309.137 56.014 309.847 56.3127 310.36 56.91C310.873 57.498 311.13 58.31 311.13 59.346V59.766ZM308.246 56.896C307.649 56.896 307.168 57.0827 306.804 57.456C306.449 57.8293 306.239 58.3567 306.174 59.038H310.136C310.117 58.3473 309.945 57.82 309.618 57.456C309.291 57.0827 308.834 56.896 308.246 56.896Z" fill="black"/>
<path d="M309 20.4448C309 18.8004 308.864 17.6004 308.569 16.356H289.408V23.7781H300.655C300.429 25.6226 299.204 28.4004 296.483 30.2669L296.445 30.5154L302.503 35.1149L302.923 35.156C306.778 31.667 309 26.5337 309 20.4448Z" fill="#4285F4"/>
<path d="M289.408 40.0005C294.918 40.0005 299.544 38.2226 302.923 35.1561L296.483 30.267C294.76 31.4448 292.447 32.267 289.408 32.267C284.011 32.267 279.431 28.7783 277.798 23.9561L277.559 23.976L271.259 28.7538L271.177 28.9782C274.533 35.5115 281.426 40.0005 289.408 40.0005Z" fill="#34A853"/>
<path d="M277.798 23.955C277.367 22.7106 277.118 21.3772 277.118 19.9995C277.118 18.6216 277.367 17.2883 277.775 16.0439L277.764 15.7789L271.386 10.9243L271.177 11.0216C269.794 13.7327 269 16.7772 269 19.9995C269 23.2217 269.794 26.266 271.177 28.9772L277.798 23.955Z" fill="#FBBC05"/>
<path d="M289.408 7.73328C293.24 7.73328 295.825 9.3555 297.299 10.7111L303.059 5.2C299.522 1.97779 294.918 0 289.408 0C281.426 0 274.533 4.48885 271.177 11.0221L277.775 16.0444C279.431 11.2222 284.011 7.73328 289.408 7.73328Z" fill="#EB4335"/>
<path d="M379.831 63V53.13H385.935V54.096H380.965V57.498H385.655V58.464H380.965V63H379.831ZM390.023 56.014C390.891 56.014 391.535 56.238 391.955 56.686C392.385 57.1247 392.599 57.7967 392.599 58.702V63H391.493V61.838C391.316 62.2393 391.045 62.552 390.681 62.776C390.317 62.9907 389.897 63.098 389.421 63.098C388.983 63.098 388.577 63.0093 388.203 62.832C387.839 62.6547 387.55 62.4073 387.335 62.09C387.121 61.7727 387.013 61.4227 387.013 61.04C387.013 60.5267 387.144 60.13 387.405 59.85C387.667 59.5607 388.096 59.3553 388.693 59.234C389.291 59.1033 390.121 59.038 391.185 59.038H391.493V58.576C391.493 58.0067 391.377 57.596 391.143 57.344C390.91 57.0827 390.532 56.952 390.009 56.952C389.225 56.952 388.446 57.1947 387.671 57.68L387.293 56.854C387.648 56.602 388.073 56.4013 388.567 56.252C389.071 56.0933 389.557 56.014 390.023 56.014ZM389.575 62.202C390.135 62.202 390.593 62.0153 390.947 61.642C391.311 61.2593 391.493 60.7693 391.493 60.172V59.766H391.241C390.42 59.766 389.795 59.8033 389.365 59.878C388.936 59.9433 388.628 60.06 388.441 60.228C388.264 60.3867 388.175 60.6247 388.175 60.942C388.175 61.306 388.306 61.6093 388.567 61.852C388.838 62.0853 389.174 62.202 389.575 62.202ZM397.559 63.098C396.887 63.098 396.304 62.9533 395.809 62.664C395.314 62.3747 394.932 61.9687 394.661 61.446C394.4 60.914 394.269 60.2933 394.269 59.584C394.269 58.8747 394.404 58.254 394.675 57.722C394.955 57.1807 395.342 56.7607 395.837 56.462C396.341 56.1633 396.929 56.014 397.601 56.014C398.058 56.014 398.506 56.098 398.945 56.266C399.384 56.4247 399.738 56.6393 400.009 56.91L399.631 57.75C398.987 57.2273 398.334 56.966 397.671 56.966C396.971 56.966 396.425 57.1947 396.033 57.652C395.641 58.1093 395.445 58.7533 395.445 59.584C395.445 60.4053 395.641 61.04 396.033 61.488C396.425 61.936 396.971 62.16 397.671 62.16C398.334 62.16 398.987 61.8987 399.631 61.376L400.009 62.216C399.72 62.4867 399.356 62.7013 398.917 62.86C398.478 63.0187 398.026 63.098 397.559 63.098ZM407.086 59.766H402.102C402.14 60.5593 402.354 61.1613 402.746 61.572C403.138 61.9733 403.694 62.174 404.412 62.174C405.206 62.174 405.934 61.9033 406.596 61.362L406.974 62.188C406.676 62.468 406.293 62.692 405.826 62.86C405.36 63.0187 404.884 63.098 404.398 63.098C403.334 63.098 402.494 62.7853 401.878 62.16C401.272 61.5347 400.968 60.6713 400.968 59.57C400.968 58.87 401.104 58.254 401.374 57.722C401.645 57.1807 402.023 56.7607 402.508 56.462C403.003 56.1633 403.563 56.014 404.188 56.014C405.094 56.014 405.803 56.3127 406.316 56.91C406.83 57.498 407.086 58.31 407.086 59.346V59.766ZM404.202 56.896C403.605 56.896 403.124 57.0827 402.76 57.456C402.406 57.8293 402.196 58.3567 402.13 59.038H406.092C406.074 58.3473 405.901 57.82 405.574 57.456C405.248 57.0827 404.79 56.896 404.202 56.896ZM412.187 56.014C412.784 56.014 413.312 56.1587 413.769 56.448C414.226 56.7373 414.581 57.148 414.833 57.68C415.085 58.212 415.211 58.828 415.211 59.528C415.211 60.2373 415.085 60.8627 414.833 61.404C414.581 61.936 414.226 62.3513 413.769 62.65C413.312 62.9487 412.784 63.098 412.187 63.098C411.655 63.098 411.188 62.9813 410.787 62.748C410.395 62.5147 410.096 62.1833 409.891 61.754V63H408.757V53.13H409.891V57.358C410.096 56.9287 410.395 56.5973 410.787 56.364C411.188 56.1307 411.655 56.014 412.187 56.014ZM411.963 62.16C412.626 62.16 413.139 61.9313 413.503 61.474C413.867 61.0073 414.049 60.3587 414.049 59.528C414.049 58.716 413.867 58.086 413.503 57.638C413.139 57.19 412.626 56.966 411.963 56.966C411.3 56.966 410.787 57.19 410.423 57.638C410.068 58.086 409.891 58.7253 409.891 59.556C409.891 60.3867 410.068 61.0307 410.423 61.488C410.787 61.936 411.3 62.16 411.963 62.16ZM419.733 63.098C419.089 63.098 418.52 62.9533 418.025 62.664C417.54 62.3747 417.162 61.964 416.891 61.432C416.63 60.8907 416.499 60.2653 416.499 59.556C416.499 58.8467 416.63 58.226 416.891 57.694C417.162 57.1527 417.54 56.7373 418.025 56.448C418.52 56.1587 419.089 56.014 419.733 56.014C420.377 56.014 420.947 56.1587 421.441 56.448C421.936 56.7373 422.314 57.1527 422.575 57.694C422.846 58.226 422.981 58.8467 422.981 59.556C422.981 60.2653 422.846 60.8907 422.575 61.432C422.314 61.964 421.936 62.3747 421.441 62.664C420.947 62.9533 420.377 63.098 419.733 63.098ZM419.733 62.16C420.405 62.16 420.919 61.9407 421.273 61.502C421.637 61.054 421.819 60.4053 421.819 59.556C421.819 58.7253 421.637 58.086 421.273 57.638C420.909 57.1807 420.396 56.952 419.733 56.952C419.071 56.952 418.557 57.1807 418.193 57.638C417.829 58.086 417.647 58.7253 417.647 59.556C417.647 60.396 417.825 61.04 418.179 61.488C418.543 61.936 419.061 62.16 419.733 62.16ZM427.499 63.098C426.855 63.098 426.286 62.9533 425.791 62.664C425.306 62.3747 424.928 61.964 424.657 61.432C424.396 60.8907 424.265 60.2653 424.265 59.556C424.265 58.8467 424.396 58.226 424.657 57.694C424.928 57.1527 425.306 56.7373 425.791 56.448C426.286 56.1587 426.855 56.014 427.499 56.014C428.143 56.014 428.712 56.1587 429.207 56.448C429.702 56.7373 430.08 57.1527 430.341 57.694C430.612 58.226 430.747 58.8467 430.747 59.556C430.747 60.2653 430.612 60.8907 430.341 61.432C430.08 61.964 429.702 62.3747 429.207 62.664C428.712 62.9533 428.143 63.098 427.499 63.098ZM427.499 62.16C428.171 62.16 428.684 61.9407 429.039 61.502C429.403 61.054 429.585 60.4053 429.585 59.556C429.585 58.7253 429.403 58.086 429.039 57.638C428.675 57.1807 428.162 56.952 427.499 56.952C426.836 56.952 426.323 57.1807 425.959 57.638C425.595 58.086 425.413 58.7253 425.413 59.556C425.413 60.396 425.59 61.04 425.945 61.488C426.309 61.936 426.827 62.16 427.499 62.16ZM438.513 63H437.043L433.571 59.738V63H432.437V53.13H433.571V59.276L436.749 56.196H438.191L434.803 59.458L438.513 63Z" fill="black"/>
<path d="M428 20C428 8.9543 419.046 0 408 0C396.954 0 388 8.9543 388 20C388 29.9824 395.314 38.2566 404.875 39.757V25.7813H399.797V20H404.875V15.5938C404.875 10.5813 407.861 7.8125 412.429 7.8125C414.618 7.8125 416.906 8.20313 416.906 8.20313V13.125H414.384C411.9 13.125 411.125 14.6668 411.125 16.2484V20H416.672L415.785 25.7813H411.125V39.757C420.686 38.2566 428 29.9824 428 20Z" fill="#1877F2"/>
<path d="M415.785 25.7812L416.672 20H411.125V16.2484C411.125 14.6668 411.9 13.125 414.384 13.125H416.906V8.20312C416.906 8.20312 414.618 7.8125 412.429 7.8125C407.861 7.8125 404.875 10.5813 404.875 15.5938V20H399.797V25.7812H404.875V39.757C405.893 39.9168 406.937 40 408 40C409.063 40 410.107 39.9168 411.125 39.757V25.7812H415.785Z" fill="white"/>
<path d="M502.359 63V53.13H503.507V62.02H508.449V63H502.359ZM509.751 63V56.182H510.885V63H509.751ZM509.639 53.228H511.011V54.502H509.639V53.228ZM516.435 56.014C518.068 56.014 518.885 56.9147 518.885 58.716V63H517.751V58.786C517.751 58.1513 517.625 57.6893 517.373 57.4C517.13 57.1107 516.738 56.966 516.197 56.966C515.572 56.966 515.072 57.1573 514.699 57.54C514.326 57.9227 514.139 58.4407 514.139 59.094V63H513.005V56.182H514.125V57.302C514.349 56.882 514.662 56.5647 515.063 56.35C515.464 56.126 515.922 56.014 516.435 56.014ZM527.038 63H525.568L522.096 59.738V63H520.962V53.13H522.096V59.276L525.274 56.196H526.716L523.328 59.458L527.038 63ZM533.551 59.766H528.567C528.604 60.5593 528.819 61.1613 529.211 61.572C529.603 61.9733 530.158 62.174 530.877 62.174C531.67 62.174 532.398 61.9033 533.061 61.362L533.439 62.188C533.14 62.468 532.758 62.692 532.291 62.86C531.824 63.0187 531.348 63.098 530.863 63.098C529.799 63.098 528.959 62.7853 528.343 62.16C527.736 61.5347 527.433 60.6713 527.433 59.57C527.433 58.87 527.568 58.254 527.839 57.722C528.11 57.1807 528.488 56.7607 528.973 56.462C529.468 56.1633 530.028 56.014 530.653 56.014C531.558 56.014 532.268 56.3127 532.781 56.91C533.294 57.498 533.551 58.31 533.551 59.346V59.766ZM530.667 56.896C530.07 56.896 529.589 57.0827 529.225 57.456C528.87 57.8293 528.66 58.3567 528.595 59.038H532.557C532.538 58.3473 532.366 57.82 532.039 57.456C531.712 57.0827 531.255 56.896 530.667 56.896ZM541.27 53.13V63H540.136V61.754C539.931 62.1833 539.627 62.5147 539.226 62.748C538.834 62.9813 538.372 63.098 537.84 63.098C537.243 63.098 536.715 62.9487 536.258 62.65C535.801 62.3513 535.446 61.936 535.194 61.404C534.942 60.8627 534.816 60.2373 534.816 59.528C534.816 58.828 534.942 58.212 535.194 57.68C535.446 57.148 535.801 56.7373 536.258 56.448C536.715 56.1587 537.243 56.014 537.84 56.014C538.372 56.014 538.834 56.1307 539.226 56.364C539.627 56.5973 539.931 56.9287 540.136 57.358V53.13H541.27ZM538.064 62.16C538.727 62.16 539.235 61.936 539.59 61.488C539.954 61.0307 540.136 60.3867 540.136 59.556C540.136 58.7253 539.954 58.086 539.59 57.638C539.235 57.19 538.727 56.966 538.064 56.966C537.401 56.966 536.883 57.19 536.51 57.638C536.146 58.086 535.964 58.716 535.964 59.528C535.964 60.3587 536.146 61.0073 536.51 61.474C536.883 61.9313 537.401 62.16 538.064 62.16ZM543.538 63V53.13H544.686V63H543.538ZM550.382 56.014C552.016 56.014 552.832 56.9147 552.832 58.716V63H551.698V58.786C551.698 58.1513 551.572 57.6893 551.32 57.4C551.078 57.1107 550.686 56.966 550.144 56.966C549.519 56.966 549.02 57.1573 548.646 57.54C548.273 57.9227 548.086 58.4407 548.086 59.094V63H546.952V56.182H548.072V57.302C548.296 56.882 548.609 56.5647 549.01 56.35C549.412 56.126 549.869 56.014 550.382 56.014Z" fill="black"/>
<g clip-path="url(#clip1_1541_3351)">
<path d="M548 2.91667V37.0833C548 37.8569 547.693 38.5987 547.146 39.1457C546.599 39.6927 545.857 40 545.083 40H510.917C510.143 40 509.401 39.6927 508.854 39.1457C508.307 38.5987 508 37.8569 508 37.0833V2.91667C508 2.14312 508.307 1.40125 508.854 0.854272C509.401 0.307291 510.143 0 510.917 0L545.083 0C545.857 0 546.599 0.307291 547.146 0.854272C547.693 1.40125 548 2.14312 548 2.91667ZM519.667 15H513.833V34.1667H519.667V15ZM520.167 8.75C520.175 8.07432 519.983 7.41138 519.614 6.84502C519.245 6.27865 518.717 5.83429 518.096 5.56813C517.475 5.30197 516.789 5.22596 516.125 5.34971C515.46 5.47346 514.848 5.79141 514.364 6.26336C513.88 6.73531 513.548 7.34007 513.408 8.00116C513.268 8.66224 513.327 9.34997 513.578 9.97738C513.829 10.6048 514.26 11.1437 514.817 11.526C515.375 11.9082 516.033 12.1167 516.708 12.125H516.75C517.188 12.1361 517.623 12.0608 518.032 11.9034C518.441 11.7461 518.814 11.5097 519.132 11.2079C519.449 10.9061 519.704 10.5447 519.881 10.1444C520.059 9.74414 520.156 9.31278 520.167 8.875V8.75ZM542.167 22.6833C542.167 16.85 538.308 14.5833 534.958 14.5833C531.608 14.5833 529.125 16.5333 528.575 17.7083H528.5V15H523V34.1667H528.833V24.1667C528.833 21.0917 530.925 19.725 532.958 19.725C534.625 19.725 536.333 21.0083 536.333 24.0917V34.1667H542.167V22.6833Z" fill="#0A66C2"/>
</g>
<path d="M30.7555 145.13H31.8755L28.4315 155H27.4515L24.6375 146.922L21.8235 155H20.8575L17.3995 145.13H18.5615L21.3615 153.376L24.2315 145.13L25.0995 145.144L27.9275 153.39L30.7555 145.13ZM35.4444 155.098C34.8004 155.098 34.2311 154.953 33.7364 154.664C33.2511 154.375 32.8731 153.964 32.6024 153.432C32.3411 152.891 32.2104 152.265 32.2104 151.556C32.2104 150.847 32.3411 150.226 32.6024 149.694C32.8731 149.153 33.2511 148.737 33.7364 148.448C34.2311 148.159 34.8004 148.014 35.4444 148.014C36.0884 148.014 36.6577 148.159 37.1524 148.448C37.6471 148.737 38.0251 149.153 38.2864 149.694C38.5571 150.226 38.6924 150.847 38.6924 151.556C38.6924 152.265 38.5571 152.891 38.2864 153.432C38.0251 153.964 37.6471 154.375 37.1524 154.664C36.6577 154.953 36.0884 155.098 35.4444 155.098ZM35.4444 154.16C36.1164 154.16 36.6297 153.941 36.9844 153.502C37.3484 153.054 37.5304 152.405 37.5304 151.556C37.5304 150.725 37.3484 150.086 36.9844 149.638C36.6204 149.181 36.1071 148.952 35.4444 148.952C34.7817 148.952 34.2684 149.181 33.9044 149.638C33.5404 150.086 33.3584 150.725 33.3584 151.556C33.3584 152.396 33.5357 153.04 33.8904 153.488C34.2544 153.936 34.7724 154.16 35.4444 154.16ZM44.246 148.994L43.504 149.064C42.804 149.129 42.2954 149.349 41.978 149.722C41.67 150.095 41.516 150.557 41.516 151.108V155H40.382V148.182H41.488V149.372C41.8707 148.579 42.622 148.135 43.742 148.042L44.148 148.014L44.246 148.994ZM51.2289 145.13V155H50.0949V153.754C49.8895 154.183 49.5862 154.515 49.1849 154.748C48.7929 154.981 48.3309 155.098 47.7989 155.098C47.2015 155.098 46.6742 154.949 46.2169 154.65C45.7595 154.351 45.4049 153.936 45.1529 153.404C44.9009 152.863 44.7749 152.237 44.7749 151.528C44.7749 150.828 44.9009 150.212 45.1529 149.68C45.4049 149.148 45.7595 148.737 46.2169 148.448C46.6742 148.159 47.2015 148.014 47.7989 148.014C48.3309 148.014 48.7929 148.131 49.1849 148.364C49.5862 148.597 49.8895 148.929 50.0949 149.358V145.13H51.2289ZM48.0229 154.16C48.6855 154.16 49.1942 153.936 49.5489 153.488C49.9129 153.031 50.0949 152.387 50.0949 151.556C50.0949 150.725 49.9129 150.086 49.5489 149.638C49.1942 149.19 48.6855 148.966 48.0229 148.966C47.3602 148.966 46.8422 149.19 46.4689 149.638C46.1049 150.086 45.9229 150.716 45.9229 151.528C45.9229 152.359 46.1049 153.007 46.4689 153.474C46.8422 153.931 47.3602 154.16 48.0229 154.16ZM56.7593 148.014C57.3566 148.014 57.884 148.163 58.3413 148.462C58.7986 148.761 59.1533 149.181 59.4053 149.722C59.6573 150.254 59.7833 150.875 59.7833 151.584C59.7833 152.293 59.6573 152.914 59.4053 153.446C59.1533 153.969 58.7986 154.375 58.3413 154.664C57.8933 154.953 57.366 155.098 56.7593 155.098C56.2273 155.098 55.7606 154.981 55.3593 154.748C54.9673 154.515 54.6686 154.183 54.4633 153.754V157.52H53.3293V148.182H54.4633V149.358C54.6686 148.929 54.9673 148.597 55.3593 148.364C55.7606 148.131 56.2273 148.014 56.7593 148.014ZM56.5353 154.16C57.198 154.16 57.7113 153.936 58.0753 153.488C58.4393 153.04 58.6213 152.405 58.6213 151.584C58.6213 150.763 58.4393 150.123 58.0753 149.666C57.7113 149.199 57.198 148.966 56.5353 148.966C55.8726 148.966 55.3593 149.19 54.9953 149.638C54.6406 150.086 54.4633 150.725 54.4633 151.556C54.4633 152.387 54.6406 153.031 54.9953 153.488C55.3593 153.936 55.8726 154.16 56.5353 154.16ZM65.3417 148.994L64.5997 149.064C63.8997 149.129 63.3911 149.349 63.0737 149.722C62.7657 150.095 62.6117 150.557 62.6117 151.108V155H61.4777V148.182H62.5837V149.372C62.9664 148.579 63.7177 148.135 64.8377 148.042L65.2437 148.014L65.3417 148.994ZM71.9886 151.766H67.0046C67.0419 152.559 67.2566 153.161 67.6486 153.572C68.0406 153.973 68.5959 154.174 69.3146 154.174C70.1079 154.174 70.8359 153.903 71.4986 153.362L71.8766 154.188C71.5779 154.468 71.1952 154.692 70.7286 154.86C70.2619 155.019 69.7859 155.098 69.3006 155.098C68.2366 155.098 67.3966 154.785 66.7806 154.16C66.1739 153.535 65.8706 152.671 65.8706 151.57C65.8706 150.87 66.0059 150.254 66.2766 149.722C66.5472 149.181 66.9252 148.761 67.4106 148.462C67.9052 148.163 68.4652 148.014 69.0906 148.014C69.9959 148.014 70.7052 148.313 71.2186 148.91C71.7319 149.498 71.9886 150.31 71.9886 151.346V151.766ZM69.1046 148.896C68.5072 148.896 68.0266 149.083 67.6626 149.456C67.3079 149.829 67.0979 150.357 67.0326 151.038H70.9946C70.9759 150.347 70.8032 149.82 70.4766 149.456C70.1499 149.083 69.6926 148.896 69.1046 148.896ZM75.9694 155.098C74.8214 155.098 73.9114 154.804 73.2394 154.216L73.6174 153.376C73.9814 153.665 74.35 153.875 74.7234 154.006C75.106 154.127 75.5354 154.188 76.0114 154.188C76.5154 154.188 76.898 154.104 77.1594 153.936C77.43 153.759 77.5654 153.507 77.5654 153.18C77.5654 152.909 77.4767 152.695 77.2994 152.536C77.122 152.377 76.828 152.251 76.4174 152.158L75.2694 151.892C74.6907 151.761 74.2474 151.537 73.9394 151.22C73.6314 150.903 73.4774 150.511 73.4774 150.044C73.4774 149.437 73.7154 148.947 74.1914 148.574C74.6674 148.201 75.302 148.014 76.0954 148.014C76.5714 148.014 77.024 148.093 77.4534 148.252C77.8827 148.401 78.242 148.621 78.5314 148.91L78.1534 149.736C77.528 149.204 76.842 148.938 76.0954 148.938C75.6194 148.938 75.246 149.031 74.9754 149.218C74.714 149.395 74.5834 149.647 74.5834 149.974C74.5834 150.245 74.6627 150.464 74.8214 150.632C74.9894 150.791 75.2554 150.912 75.6194 150.996L76.7814 151.276C77.416 151.425 77.8874 151.654 78.1954 151.962C78.5034 152.261 78.6574 152.653 78.6574 153.138C78.6574 153.735 78.4147 154.211 77.9294 154.566C77.4534 154.921 76.8 155.098 75.9694 155.098ZM82.6959 155.098C81.5479 155.098 80.6379 154.804 79.9659 154.216L80.3439 153.376C80.7079 153.665 81.0766 153.875 81.4499 154.006C81.8326 154.127 82.2619 154.188 82.7379 154.188C83.2419 154.188 83.6246 154.104 83.8859 153.936C84.1566 153.759 84.2919 153.507 84.2919 153.18C84.2919 152.909 84.2033 152.695 84.0259 152.536C83.8486 152.377 83.5546 152.251 83.1439 152.158L81.9959 151.892C81.4173 151.761 80.9739 151.537 80.6659 151.22C80.3579 150.903 80.2039 150.511 80.2039 150.044C80.2039 149.437 80.4419 148.947 80.9179 148.574C81.3939 148.201 82.0286 148.014 82.8219 148.014C83.2979 148.014 83.7506 148.093 84.1799 148.252C84.6093 148.401 84.9686 148.621 85.2579 148.91L84.8799 149.736C84.2546 149.204 83.5686 148.938 82.8219 148.938C82.3459 148.938 81.9726 149.031 81.7019 149.218C81.4406 149.395 81.3099 149.647 81.3099 149.974C81.3099 150.245 81.3893 150.464 81.5479 150.632C81.7159 150.791 81.9819 150.912 82.3459 150.996L83.5079 151.276C84.1426 151.425 84.6139 151.654 84.9219 151.962C85.2299 152.261 85.3839 152.653 85.3839 153.138C85.3839 153.735 85.1413 154.211 84.6559 154.566C84.1799 154.921 83.5266 155.098 82.6959 155.098Z" fill="black"/>
<g clip-path="url(#clip2_1541_3351)">
<path d="M30.8428 112C30.8428 118.791 34.7894 124.661 40.5122 127.442L32.3282 105.017C31.3762 107.151 30.8428 109.513 30.8428 112ZM59.5816 111.134C59.5816 109.014 58.82 107.545 58.1667 106.402C57.2971 104.989 56.4819 103.792 56.4819 102.379C56.4819 100.802 57.678 99.3334 59.3629 99.3334C59.4389 99.3334 59.5111 99.3428 59.5852 99.3471C56.5328 96.5505 52.4661 94.843 47.9995 94.843C42.0057 94.843 36.7324 97.9184 33.6647 102.577C34.0672 102.589 34.4466 102.597 34.7688 102.597C36.5633 102.597 39.3412 102.379 39.3412 102.379C40.266 102.325 40.3751 103.683 39.4512 103.793C39.4512 103.793 38.5218 103.902 37.4875 103.956L43.7353 122.541L47.4899 111.28L44.8169 103.956C43.893 103.901 43.0178 103.792 43.0178 103.792C42.0932 103.738 42.2016 102.324 43.1261 102.379C43.1261 102.379 45.9595 102.597 47.6453 102.597C49.4395 102.597 52.2177 102.379 52.2177 102.379C53.1432 102.324 53.2519 103.683 52.3277 103.792C52.3277 103.792 51.3963 103.901 50.364 103.956L56.5642 122.4L58.2754 116.681C59.0172 114.308 59.5816 112.603 59.5816 111.134ZM48.3005 113.501L43.1529 128.46C44.6899 128.912 46.3153 129.159 47.9995 129.159C49.9974 129.159 51.9134 128.813 53.6969 128.186C53.6508 128.113 53.609 128.035 53.5748 127.95L48.3005 113.501ZM63.0538 103.768C63.1276 104.315 63.1694 104.901 63.1694 105.533C63.1694 107.274 62.8442 109.231 61.8649 111.678L56.6242 126.831C61.7248 123.856 65.1556 118.33 65.1556 112C65.1559 109.017 64.3939 106.212 63.0538 103.768ZM47.9995 92C36.9721 92 28 100.972 28 112C28 123.03 36.9721 132.001 47.9995 132.001C59.0266 132.001 68 123.03 68 112C67.9997 100.972 59.0266 92 47.9995 92ZM47.9995 131.084C37.4777 131.084 28.917 122.523 28.917 112C28.917 101.478 37.4774 92.9171 47.9995 92.9171C58.5209 92.9171 67.081 101.478 67.081 112C67.081 122.523 58.5209 131.084 47.9995 131.084Z" fill="#464342"/>
</g>
<path d="M152.407 145.13H153.541V155H152.407V150.478H146.499V155H145.365V145.13H146.499V149.498H152.407V145.13ZM158.635 155.098C157.991 155.098 157.422 154.953 156.927 154.664C156.442 154.375 156.064 153.964 155.793 153.432C155.532 152.891 155.401 152.265 155.401 151.556C155.401 150.847 155.532 150.226 155.793 149.694C156.064 149.153 156.442 148.737 156.927 148.448C157.422 148.159 157.991 148.014 158.635 148.014C159.279 148.014 159.848 148.159 160.343 148.448C160.838 148.737 161.216 149.153 161.477 149.694C161.748 150.226 161.883 150.847 161.883 151.556C161.883 152.265 161.748 152.891 161.477 153.432C161.216 153.964 160.838 154.375 160.343 154.664C159.848 154.953 159.279 155.098 158.635 155.098ZM158.635 154.16C159.307 154.16 159.82 153.941 160.175 153.502C160.539 153.054 160.721 152.405 160.721 151.556C160.721 150.725 160.539 150.086 160.175 149.638C159.811 149.181 159.298 148.952 158.635 148.952C157.972 148.952 157.459 149.181 157.095 149.638C156.731 150.086 156.549 150.725 156.549 151.556C156.549 152.396 156.726 153.04 157.081 153.488C157.445 153.936 157.963 154.16 158.635 154.16ZM166.555 154.188C166.76 154.188 166.965 154.174 167.171 154.146L167.115 155.042C166.9 155.079 166.667 155.098 166.415 155.098C165.593 155.098 164.973 154.883 164.553 154.454C164.142 154.025 163.937 153.427 163.937 152.662V149.078H162.607V148.182H163.937V146.11H165.071V148.182H167.003V149.078H165.071V152.578C165.071 153.651 165.565 154.188 166.555 154.188ZM175.905 148.014C177.417 148.014 178.173 148.915 178.173 150.716V155H177.039V150.772C177.039 150.147 176.927 149.689 176.703 149.4C176.488 149.111 176.138 148.966 175.653 148.966C175.083 148.966 174.635 149.157 174.309 149.54C173.982 149.923 173.819 150.445 173.819 151.108V155H172.685V150.772C172.685 150.137 172.573 149.68 172.349 149.4C172.125 149.111 171.77 148.966 171.285 148.966C170.715 148.966 170.267 149.157 169.941 149.54C169.614 149.923 169.451 150.445 169.451 151.108V155H168.317V148.182H169.437V149.26C169.642 148.859 169.927 148.551 170.291 148.336C170.655 148.121 171.075 148.014 171.551 148.014C172.605 148.014 173.301 148.462 173.637 149.358C173.833 148.938 174.131 148.611 174.533 148.378C174.934 148.135 175.391 148.014 175.905 148.014ZM183.01 148.014C183.878 148.014 184.522 148.238 184.942 148.686C185.372 149.125 185.586 149.797 185.586 150.702V155H184.48V153.838C184.303 154.239 184.032 154.552 183.668 154.776C183.304 154.991 182.884 155.098 182.408 155.098C181.97 155.098 181.564 155.009 181.19 154.832C180.826 154.655 180.537 154.407 180.322 154.09C180.108 153.773 180 153.423 180 153.04C180 152.527 180.131 152.13 180.392 151.85C180.654 151.561 181.083 151.355 181.68 151.234C182.278 151.103 183.108 151.038 184.172 151.038H184.48V150.576C184.48 150.007 184.364 149.596 184.13 149.344C183.897 149.083 183.519 148.952 182.996 148.952C182.212 148.952 181.433 149.195 180.658 149.68L180.28 148.854C180.635 148.602 181.06 148.401 181.554 148.252C182.058 148.093 182.544 148.014 183.01 148.014ZM182.562 154.202C183.122 154.202 183.58 154.015 183.934 153.642C184.298 153.259 184.48 152.769 184.48 152.172V151.766H184.228C183.407 151.766 182.782 151.803 182.352 151.878C181.923 151.943 181.615 152.06 181.428 152.228C181.251 152.387 181.162 152.625 181.162 152.942C181.162 153.306 181.293 153.609 181.554 153.852C181.825 154.085 182.161 154.202 182.562 154.202ZM191.526 148.994L190.784 149.064C190.084 149.129 189.576 149.349 189.258 149.722C188.95 150.095 188.796 150.557 188.796 151.108V155H187.662V148.182H188.768V149.372C189.151 148.579 189.902 148.135 191.022 148.042L191.428 148.014L191.526 148.994ZM196.141 154.188C196.346 154.188 196.551 154.174 196.757 154.146L196.701 155.042C196.486 155.079 196.253 155.098 196.001 155.098C195.179 155.098 194.559 154.883 194.139 154.454C193.728 154.025 193.523 153.427 193.523 152.662V149.078H192.193V148.182H193.523V146.11H194.657V148.182H196.589V149.078H194.657V152.578C194.657 153.651 195.151 154.188 196.141 154.188Z" fill="black"/>
<g clip-path="url(#clip3_1541_3351)">
<path d="M185.147 117.513C185.342 113.948 184.103 108.115 181.104 103.319C181.039 103.189 180.876 103.254 180.908 103.383C181.104 104.096 181.169 105.425 179.996 105.36C177.942 105.231 180.061 100.823 175.529 97.8093C175.431 97.7444 175.334 97.8417 175.366 97.9389C175.692 98.5222 175.855 100.369 175.138 100.985C174.551 101.471 173.508 101.342 172.497 99.6889C170.802 96.9342 171.454 94.0175 172.595 92.1703C172.693 92.0407 172.562 91.9759 172.465 92.0083C166.238 94.05 164.999 101.342 163.662 103.999C163.434 104.453 163.238 104.68 162.88 104.647C161.738 104.582 162.554 102.152 162.945 101.342C163.01 101.212 162.88 101.147 162.782 101.244C159.587 104.55 156.685 110.221 156.131 115.472C156.164 115.342 156.066 115.893 156.033 116.314C156.033 116.476 156 116.638 156 116.8V117.384C155.935 125.388 162.391 131.902 170.443 132C178.496 132.064 185.049 125.648 185.147 117.643V117.513ZM170.508 124.222C166.792 124.189 163.792 121.175 163.825 117.448C163.858 113.722 166.89 110.772 170.639 110.805C174.388 110.837 177.355 113.851 177.322 117.578C177.29 121.305 174.258 124.254 170.508 124.222Z" fill="#F04E23"/>
</g>
<path d="M256.149 145.13H260.055C261.091 145.13 261.893 145.382 262.463 145.886C263.041 146.39 263.331 147.104 263.331 148.028C263.331 148.952 263.041 149.671 262.463 150.184C261.884 150.697 261.081 150.954 260.055 150.954H257.297V155H256.149V145.13ZM259.943 150.002C261.445 150.002 262.197 149.344 262.197 148.028C262.197 146.731 261.445 146.082 259.943 146.082H257.297V150.002H259.943ZM267.626 148.014C268.494 148.014 269.138 148.238 269.558 148.686C269.987 149.125 270.202 149.797 270.202 150.702V155H269.096V153.838C268.918 154.239 268.648 154.552 268.284 154.776C267.92 154.991 267.5 155.098 267.024 155.098C266.585 155.098 266.179 155.009 265.806 154.832C265.442 154.655 265.152 154.407 264.938 154.09C264.723 153.773 264.616 153.423 264.616 153.04C264.616 152.527 264.746 152.13 265.008 151.85C265.269 151.561 265.698 151.355 266.296 151.234C266.893 151.103 267.724 151.038 268.788 151.038H269.096V150.576C269.096 150.007 268.979 149.596 268.746 149.344C268.512 149.083 268.134 148.952 267.612 148.952C266.828 148.952 266.048 149.195 265.274 149.68L264.896 148.854C265.25 148.602 265.675 148.401 266.17 148.252C266.674 148.093 267.159 148.014 267.626 148.014ZM267.178 154.202C267.738 154.202 268.195 154.015 268.55 153.642C268.914 153.259 269.096 152.769 269.096 152.172V151.766H268.844C268.022 151.766 267.397 151.803 266.968 151.878C266.538 151.943 266.23 152.06 266.044 152.228C265.866 152.387 265.778 152.625 265.778 152.942C265.778 153.306 265.908 153.609 266.17 153.852C266.44 154.085 266.776 154.202 267.178 154.202ZM278.382 148.182V154.538C278.382 155.555 278.12 156.321 277.598 156.834C277.075 157.357 276.3 157.618 275.274 157.618C274.079 157.618 273.076 157.31 272.264 156.694L272.642 155.854C273.099 156.153 273.528 156.367 273.93 156.498C274.331 156.629 274.779 156.694 275.274 156.694C275.927 156.694 276.422 156.517 276.758 156.162C277.094 155.817 277.262 155.308 277.262 154.636V153.432C277.066 153.871 276.762 154.207 276.352 154.44C275.95 154.673 275.474 154.79 274.924 154.79C274.326 154.79 273.794 154.65 273.328 154.37C272.87 154.09 272.511 153.693 272.25 153.18C271.998 152.667 271.872 152.074 271.872 151.402C271.872 150.73 271.998 150.137 272.25 149.624C272.511 149.111 272.87 148.714 273.328 148.434C273.794 148.154 274.326 148.014 274.924 148.014C275.465 148.014 275.936 148.131 276.338 148.364C276.739 148.597 277.042 148.929 277.248 149.358V148.182H278.382ZM275.148 153.852C275.801 153.852 276.314 153.637 276.688 153.208C277.061 152.769 277.248 152.167 277.248 151.402C277.248 150.646 277.061 150.053 276.688 149.624C276.324 149.185 275.81 148.966 275.148 148.966C274.485 148.966 273.962 149.185 273.58 149.624C273.206 150.053 273.02 150.646 273.02 151.402C273.02 152.167 273.206 152.769 273.58 153.208C273.962 153.637 274.485 153.852 275.148 153.852ZM283.785 155.112C282.245 155.112 281.013 154.697 280.089 153.866L280.537 152.984C281.022 153.395 281.517 153.689 282.021 153.866C282.534 154.043 283.127 154.132 283.799 154.132C284.592 154.132 285.203 153.978 285.633 153.67C286.062 153.362 286.277 152.928 286.277 152.368C286.277 152.041 286.174 151.775 285.969 151.57C285.763 151.365 285.493 151.201 285.157 151.08C284.821 150.959 284.368 150.833 283.799 150.702C283.033 150.525 282.403 150.338 281.909 150.142C281.423 149.946 281.027 149.666 280.719 149.302C280.42 148.938 280.271 148.462 280.271 147.874C280.271 147.314 280.415 146.819 280.705 146.39C281.003 145.951 281.423 145.615 281.965 145.382C282.515 145.139 283.15 145.018 283.869 145.018C284.55 145.018 285.185 145.125 285.773 145.34C286.37 145.555 286.874 145.863 287.285 146.264L286.851 147.146C286.384 146.745 285.908 146.455 285.423 146.278C284.947 146.091 284.429 145.998 283.869 145.998C283.103 145.998 282.501 146.161 282.063 146.488C281.633 146.805 281.419 147.253 281.419 147.832C281.419 148.327 281.61 148.7 281.993 148.952C282.375 149.204 282.954 149.419 283.729 149.596C284.578 149.801 285.245 149.993 285.731 150.17C286.216 150.338 286.617 150.595 286.935 150.94C287.261 151.285 287.425 151.747 287.425 152.326C287.425 152.886 287.275 153.376 286.977 153.796C286.687 154.216 286.267 154.543 285.717 154.776C285.166 155 284.522 155.112 283.785 155.112ZM294.833 151.766H289.849C289.887 152.559 290.101 153.161 290.493 153.572C290.885 153.973 291.441 154.174 292.159 154.174C292.953 154.174 293.681 153.903 294.343 153.362L294.721 154.188C294.423 154.468 294.04 154.692 293.573 154.86C293.107 155.019 292.631 155.098 292.145 155.098C291.081 155.098 290.241 154.785 289.625 154.16C289.019 153.535 288.715 152.671 288.715 151.57C288.715 150.87 288.851 150.254 289.121 149.722C289.392 149.181 289.77 148.761 290.255 148.462C290.75 148.163 291.31 148.014 291.935 148.014C292.841 148.014 293.55 148.313 294.063 148.91C294.577 149.498 294.833 150.31 294.833 151.346V151.766ZM291.949 148.896C291.352 148.896 290.871 149.083 290.507 149.456C290.153 149.829 289.943 150.357 289.877 151.038H293.839C293.821 150.347 293.648 149.82 293.321 149.456C292.995 149.083 292.537 148.896 291.949 148.896ZM302.608 148.182V154.538C302.608 155.555 302.347 156.321 301.824 156.834C301.301 157.357 300.527 157.618 299.5 157.618C298.305 157.618 297.302 157.31 296.49 156.694L296.868 155.854C297.325 156.153 297.755 156.367 298.156 156.498C298.557 156.629 299.005 156.694 299.5 156.694C300.153 156.694 300.648 156.517 300.984 156.162C301.32 155.817 301.488 155.308 301.488 154.636V153.432C301.292 153.871 300.989 154.207 300.578 154.44C300.177 154.673 299.701 154.79 299.15 154.79C298.553 154.79 298.021 154.65 297.554 154.37C297.097 154.09 296.737 153.693 296.476 153.18C296.224 152.667 296.098 152.074 296.098 151.402C296.098 150.73 296.224 150.137 296.476 149.624C296.737 149.111 297.097 148.714 297.554 148.434C298.021 148.154 298.553 148.014 299.15 148.014C299.691 148.014 300.163 148.131 300.564 148.364C300.965 148.597 301.269 148.929 301.474 149.358V148.182H302.608ZM299.374 153.852C300.027 153.852 300.541 153.637 300.914 153.208C301.287 152.769 301.474 152.167 301.474 151.402C301.474 150.646 301.287 150.053 300.914 149.624C300.55 149.185 300.037 148.966 299.374 148.966C298.711 148.966 298.189 149.185 297.806 149.624C297.433 150.053 297.246 150.646 297.246 151.402C297.246 152.167 297.433 152.769 297.806 153.208C298.189 153.637 298.711 153.852 299.374 153.852ZM310.447 148.182V155H309.341V153.838C309.127 154.249 308.823 154.561 308.431 154.776C308.049 154.991 307.615 155.098 307.129 155.098C306.317 155.098 305.706 154.874 305.295 154.426C304.885 153.969 304.679 153.297 304.679 152.41V148.182H305.813V152.382C305.813 152.989 305.935 153.437 306.177 153.726C306.42 154.006 306.803 154.146 307.325 154.146C307.923 154.146 308.403 153.955 308.767 153.572C309.131 153.18 309.313 152.667 309.313 152.032V148.182H310.447ZM316.419 148.994L315.677 149.064C314.977 149.129 314.468 149.349 314.151 149.722C313.843 150.095 313.689 150.557 313.689 151.108V155H312.555V148.182H313.661V149.372C314.044 148.579 314.795 148.135 315.915 148.042L316.321 148.014L316.419 148.994ZM320.182 155.098C319.538 155.098 318.968 154.953 318.474 154.664C317.988 154.375 317.61 153.964 317.34 153.432C317.078 152.891 316.948 152.265 316.948 151.556C316.948 150.847 317.078 150.226 317.34 149.694C317.61 149.153 317.988 148.737 318.474 148.448C318.968 148.159 319.538 148.014 320.182 148.014C320.826 148.014 321.395 148.159 321.89 148.448C322.384 148.737 322.762 149.153 323.024 149.694C323.294 150.226 323.43 150.847 323.43 151.556C323.43 152.265 323.294 152.891 323.024 153.432C322.762 153.964 322.384 154.375 321.89 154.664C321.395 154.953 320.826 155.098 320.182 155.098ZM320.182 154.16C320.854 154.16 321.367 153.941 321.722 153.502C322.086 153.054 322.268 152.405 322.268 151.556C322.268 150.725 322.086 150.086 321.722 149.638C321.358 149.181 320.844 148.952 320.182 148.952C319.519 148.952 319.006 149.181 318.642 149.638C318.278 150.086 318.096 150.725 318.096 151.556C318.096 152.396 318.273 153.04 318.628 153.488C318.992 153.936 319.51 154.16 320.182 154.16Z" fill="black"/>
<g clip-path="url(#clip4_1541_3351)">
<path fill-rule="evenodd" clip-rule="evenodd" d="M274.736 99.0816C273.253 100.817 272.136 102.791 271.316 104.953C270.458 107.198 270 109.506 270 111.968C270 114.756 270.597 117.342 271.625 119.782C272.648 122.205 274.047 124.287 275.887 126.118C277.677 127.901 279.776 129.328 282.203 130.365C284.629 131.419 287.264 132 289.999 132C292.78 132 295.373 131.444 297.843 130.365C300.205 129.339 302.336 127.935 304.159 126.118C305.962 124.316 307.354 122.192 308.354 119.782C309.405 117.315 310 114.756 310 111.968C310 109.506 309.538 107.198 308.682 104.953C307.844 102.793 306.736 100.86 305.264 99.0816C303.79 97.342 302.085 95.901 300.153 94.7884C297.118 93.0442 293.986 92 290.358 92C290.182 92 290.01 92 289.839 92C286.256 92 282.976 93.0214 279.891 94.7884C277.938 95.8942 276.215 97.3488 274.736 99.0816Z" fill="#241F20"/>
<path fill-rule="evenodd" clip-rule="evenodd" d="M303.362 99.2459C300.885 96.2477 297.678 94.3165 293.723 93.571C289.836 92.8437 286.158 93.4273 282.674 95.3083C280.884 96.3115 279.371 97.561 278.151 99.0338C276.897 100.541 275.938 102.276 275.32 104.221C274.683 106.213 274.521 108.307 274.736 110.347C275.256 109.034 276.052 107.832 277 106.683C278.364 105.062 280.058 103.847 281.946 102.955C283.83 102.112 285.899 101.642 288.046 101.594C290.207 101.594 292.308 102.014 294.259 102.86C296.314 103.687 298.104 104.95 299.631 106.638C300.201 107.205 300.677 107.885 301.144 108.566C301.826 108.566 302.513 108.614 303.096 108.778C304.628 109.2 305.834 109.978 306.775 111.145L306.821 110.4C306.988 108.357 306.775 106.428 306.207 104.533C305.621 102.648 304.674 100.865 303.362 99.2459Z" fill="#FFAA00"/>
<path fill-rule="evenodd" clip-rule="evenodd" d="M274.31 118.113C274.569 119.686 275.045 121.193 275.837 122.57C276.574 123.933 277.581 125.18 278.833 126.284L279.467 126.802C281.633 128.277 283.94 129.33 286.467 129.85C288.094 130.155 289.738 130.06 291.315 129.688C292.991 129.33 294.572 128.651 296.051 127.645C294.682 127.337 293.462 126.605 292.517 125.506L292.146 125.085C290.159 125.294 288.161 125.231 286.158 124.825C283.617 124.241 281.422 123.188 279.371 121.729C277.419 120.253 275.793 118.372 274.569 116.17L274.26 115.536C274.212 116.377 274.212 117.267 274.31 118.113Z" fill="#FFAA00"/>
<path fill-rule="evenodd" clip-rule="evenodd" d="M293.039 104.902C291.201 104.109 289.198 103.751 287.149 103.751C285.146 103.799 283.258 104.221 281.518 105.062C279.776 105.842 278.266 106.993 276.997 108.468C276.098 109.572 275.365 110.771 274.896 112.034C275.253 113.605 275.835 115.064 276.686 116.539C277.89 118.582 279.467 120.315 281.42 121.676C283.308 123.037 285.474 123.931 287.781 124.446C289.195 124.709 290.679 124.823 292.146 124.754C291.576 123.817 291.201 122.828 291.038 121.676C290.841 120.511 290.894 119.36 291.102 118.11C291.363 116.587 291.933 115.176 292.727 113.863C293.579 112.549 294.684 111.35 295.985 110.393C296.834 109.779 297.729 109.31 298.624 108.933L298.15 108.4C296.671 106.897 294.993 105.68 293.039 104.902Z" fill="#ED3921"/>
<path fill-rule="evenodd" clip-rule="evenodd" d="M307.1 113.865L306.631 113.071C305.944 115.438 304.674 117.531 303.048 119.426C302.673 120.997 302.039 122.408 301.21 123.721C300.361 125.016 299.253 126.183 297.987 127.173C298.882 127.221 299.777 127.077 300.675 126.751C301.517 126.443 302.3 125.974 303.096 125.34C304.156 124.353 305.15 123.185 305.994 121.986L306.139 121.776C306.514 120.997 306.889 120.205 307.146 119.473C307.409 118.68 307.571 117.903 307.622 117.175C307.67 116.377 307.67 115.696 307.523 115.016C307.411 114.597 307.249 114.223 307.1 113.865Z" fill="#FF8800"/>
<path fill-rule="evenodd" clip-rule="evenodd" d="M272.47 104.64C271.788 106.526 271.415 108.516 271.318 110.673C271.27 113.441 271.788 116.118 272.85 118.633C273.367 119.83 274.006 120.997 274.782 122.1C275.535 123.138 276.363 124.143 277.304 125.017C275.258 122.764 274.047 120.153 273.681 117.221C273.58 116.218 273.58 115.276 273.63 114.287C272.948 112.388 272.573 110.509 272.573 108.564C272.573 106.733 272.896 104.95 273.468 103.115C273.955 101.854 274.573 100.653 275.258 99.5537C274.047 101.127 273.159 102.812 272.47 104.64Z" fill="#F66418"/>
<path fill-rule="evenodd" clip-rule="evenodd" d="M308.405 105.746C307.931 104.223 307.313 102.745 306.516 101.384C305.736 100.071 304.772 98.8693 303.623 97.7727C302.579 96.6669 301.359 95.7275 299.993 94.9341C301.144 95.7252 302.201 96.6669 303.149 97.7225C304.63 99.3914 305.738 101.174 306.42 103.169C307.102 105.21 307.413 107.319 307.251 109.508C307.203 110.189 307.102 110.819 306.992 111.5C307.251 111.92 307.528 112.44 307.741 112.973C308.258 114.499 308.357 116.117 308.096 117.741C308.892 115.49 309.297 113.119 309.249 110.673C309.151 108.988 308.892 107.319 308.405 105.746Z" fill="#F66418"/>
<path fill-rule="evenodd" clip-rule="evenodd" d="M302.201 110.721C302.723 111.822 303.051 113.024 303.195 114.223C303.362 115.438 303.408 116.59 303.309 117.741L303.096 118.893C304.674 117.062 305.733 115.019 306.354 112.65C305.994 112.294 305.619 111.923 305.193 111.615C304.351 111.029 303.362 110.721 302.201 110.721Z" fill="#F66418"/>
<path fill-rule="evenodd" clip-rule="evenodd" d="M299.047 124.549C299.681 123.655 300.201 122.67 300.576 121.679C298.459 123.188 296.152 124.241 293.629 124.756C293.986 125.34 294.471 125.812 294.993 126.183C295.518 126.539 296.101 126.799 296.783 127.011C297.63 126.281 298.411 125.438 299.047 124.549Z" fill="#ED3921"/>
<path fill-rule="evenodd" clip-rule="evenodd" d="M288.465 130.155L290.731 130.267C292.684 130.221 294.517 129.847 296.312 129.263C297.987 128.696 299.629 127.902 301.048 126.913C300.15 127.335 299.205 127.643 298.2 127.69C297.889 127.754 297.514 127.754 297.156 127.754C294.575 129.428 291.672 130.221 288.465 130.155Z" fill="#ED3921"/>
<path fill-rule="evenodd" clip-rule="evenodd" d="M300.997 114.969C300.675 113.607 300.201 112.347 299.519 111.145C298.313 111.503 297.255 112.135 296.262 112.976C295.204 113.867 294.309 114.971 293.627 116.22C293.039 117.481 292.684 118.683 292.569 119.943C292.423 121.143 292.569 122.249 292.894 123.3C293.039 123.655 293.155 123.979 293.368 124.289C294.687 124.145 295.888 123.769 297.095 123.252C298.361 122.766 299.521 122.103 300.624 121.259L300.723 121.191C300.936 120.411 301.098 119.62 301.213 118.838C301.306 117.531 301.258 116.28 300.997 114.969Z" fill="#FFEC00"/>
</g>
<path d="M388.983 155.112C387.443 155.112 386.211 154.697 385.287 153.866L385.735 152.984C386.22 153.395 386.715 153.689 387.219 153.866C387.732 154.043 388.325 154.132 388.997 154.132C389.79 154.132 390.402 153.978 390.831 153.67C391.26 153.362 391.475 152.928 391.475 152.368C391.475 152.041 391.372 151.775 391.167 151.57C390.962 151.365 390.691 151.201 390.355 151.08C390.019 150.959 389.566 150.833 388.997 150.702C388.232 150.525 387.602 150.338 387.107 150.142C386.622 149.946 386.225 149.666 385.917 149.302C385.618 148.938 385.469 148.462 385.469 147.874C385.469 147.314 385.614 146.819 385.903 146.39C386.202 145.951 386.622 145.615 387.163 145.382C387.714 145.139 388.348 145.018 389.067 145.018C389.748 145.018 390.383 145.125 390.971 145.34C391.568 145.555 392.072 145.863 392.483 146.264L392.049 147.146C391.582 146.745 391.106 146.455 390.621 146.278C390.145 146.091 389.627 145.998 389.067 145.998C388.302 145.998 387.7 146.161 387.261 146.488C386.832 146.805 386.617 147.253 386.617 147.832C386.617 148.327 386.808 148.7 387.191 148.952C387.574 149.204 388.152 149.419 388.927 149.596C389.776 149.801 390.444 149.993 390.929 150.17C391.414 150.338 391.816 150.595 392.133 150.94C392.46 151.285 392.623 151.747 392.623 152.326C392.623 152.886 392.474 153.376 392.175 153.796C391.886 154.216 391.466 154.543 390.915 154.776C390.364 155 389.72 155.112 388.983 155.112ZM397.75 148.014C399.383 148.014 400.2 148.915 400.2 150.716V155H399.066V150.786C399.066 150.151 398.94 149.689 398.688 149.4C398.445 149.111 398.053 148.966 397.512 148.966C396.886 148.966 396.387 149.157 396.014 149.54C395.64 149.923 395.454 150.441 395.454 151.094V155H394.32V145.13H395.454V149.274C395.678 148.863 395.986 148.551 396.378 148.336C396.779 148.121 397.236 148.014 397.75 148.014ZM405.105 155.098C404.461 155.098 403.891 154.953 403.397 154.664C402.911 154.375 402.533 153.964 402.263 153.432C402.001 152.891 401.871 152.265 401.871 151.556C401.871 150.847 402.001 150.226 402.263 149.694C402.533 149.153 402.911 148.737 403.397 148.448C403.891 148.159 404.461 148.014 405.105 148.014C405.749 148.014 406.318 148.159 406.813 148.448C407.307 148.737 407.685 149.153 407.947 149.694C408.217 150.226 408.353 150.847 408.353 151.556C408.353 152.265 408.217 152.891 407.947 153.432C407.685 153.964 407.307 154.375 406.813 154.664C406.318 154.953 405.749 155.098 405.105 155.098ZM405.105 154.16C405.777 154.16 406.29 153.941 406.645 153.502C407.009 153.054 407.191 152.405 407.191 151.556C407.191 150.725 407.009 150.086 406.645 149.638C406.281 149.181 405.767 148.952 405.105 148.952C404.442 148.952 403.929 149.181 403.565 149.638C403.201 150.086 403.019 150.725 403.019 151.556C403.019 152.396 403.196 153.04 403.551 153.488C403.915 153.936 404.433 154.16 405.105 154.16ZM413.472 148.014C414.07 148.014 414.597 148.163 415.054 148.462C415.512 148.761 415.866 149.181 416.118 149.722C416.37 150.254 416.496 150.875 416.496 151.584C416.496 152.293 416.37 152.914 416.118 153.446C415.866 153.969 415.512 154.375 415.054 154.664C414.606 154.953 414.079 155.098 413.472 155.098C412.94 155.098 412.474 154.981 412.072 154.748C411.68 154.515 411.382 154.183 411.176 153.754V157.52H410.042V148.182H411.176V149.358C411.382 148.929 411.68 148.597 412.072 148.364C412.474 148.131 412.94 148.014 413.472 148.014ZM413.248 154.16C413.911 154.16 414.424 153.936 414.788 153.488C415.152 153.04 415.334 152.405 415.334 151.584C415.334 150.763 415.152 150.123 414.788 149.666C414.424 149.199 413.911 148.966 413.248 148.966C412.586 148.966 412.072 149.19 411.708 149.638C411.354 150.086 411.176 150.725 411.176 151.556C411.176 152.387 411.354 153.031 411.708 153.488C412.072 153.936 412.586 154.16 413.248 154.16ZM418.191 155V148.182H419.325V155H418.191ZM418.079 145.228H419.451V146.502H418.079V145.228ZM422.957 148.182H424.889V149.078H422.957V155H421.823V149.078H420.493V148.182H421.823V147.958C421.823 147.053 422.047 146.367 422.495 145.9C422.952 145.433 423.652 145.172 424.595 145.116L425.155 145.088L425.239 145.97L424.595 146.012C424.025 146.049 423.61 146.213 423.349 146.502C423.087 146.782 422.957 147.216 422.957 147.804V148.182ZM431.116 148.196H432.25L428.218 157.52H427.056L428.204 154.916L425.32 148.196H426.524L428.806 153.768L431.116 148.196Z" fill="black"/>
<g clip-path="url(#clip5_1541_3351)">
<path d="M422.155 99.7881C422.128 99.587 421.952 99.4758 421.807 99.4636C421.663 99.4514 418.604 99.2235 418.604 99.2235C418.604 99.2235 416.479 97.1037 416.246 96.8691C416.012 96.6346 415.557 96.7059 415.38 96.7583C415.354 96.766 414.916 96.9019 414.191 97.1272C413.481 95.0748 412.229 93.1886 410.025 93.1886C409.964 93.1886 409.902 93.1912 409.839 93.1947C409.212 92.3618 408.436 92 407.765 92C402.632 92 400.18 98.4488 399.411 101.726C397.416 102.347 395.999 102.789 395.818 102.846C394.705 103.197 394.67 103.232 394.523 104.286C394.413 105.085 391.5 127.726 391.5 127.726L414.2 132L426.5 129.326C426.5 129.326 422.182 99.9893 422.155 99.7881ZM412.936 97.5173C412.366 97.6946 411.718 97.8961 411.016 98.1146C411.016 97.9787 411.017 97.8447 411.017 97.6985C411.017 96.4228 410.841 95.3958 410.558 94.5816C411.693 94.7249 412.45 96.0231 412.936 97.5173ZM409.149 94.8345C409.465 95.6294 409.67 96.7702 409.67 98.3097C409.67 98.3884 409.67 98.4604 409.669 98.5333C408.42 98.9221 407.063 99.3444 405.702 99.7679C406.466 96.8052 407.898 95.3743 409.149 94.8345ZM407.624 93.3837C407.846 93.3837 408.069 93.4592 408.283 93.607C406.638 94.3849 404.874 96.3444 404.13 100.257C403.041 100.596 401.977 100.927 400.994 101.233C401.866 98.2486 403.937 93.3837 407.624 93.3837Z" fill="#95BF46"/>
<path d="M421.807 99.4636C421.663 99.4513 418.604 99.2235 418.604 99.2235C418.604 99.2235 416.479 97.1037 416.246 96.8691C416.159 96.7817 416.041 96.7371 415.918 96.7178L414.201 132L426.5 129.326C426.5 129.326 422.182 99.9893 422.155 99.7881C422.128 99.5869 421.952 99.4758 421.807 99.4636Z" fill="#5E8E3E"/>
<path d="M410.025 106.294L408.508 110.827C408.508 110.827 407.18 110.115 405.551 110.115C403.163 110.115 403.043 111.621 403.043 112C403.043 114.071 408.414 114.864 408.414 119.714C408.414 123.53 406.005 125.987 402.758 125.987C398.861 125.987 396.869 123.55 396.869 123.55L397.912 120.086C397.912 120.086 399.96 121.853 401.689 121.853C402.818 121.853 403.278 120.96 403.278 120.307C403.278 117.605 398.871 117.485 398.871 113.047C398.871 109.311 401.539 105.696 406.925 105.696C409 105.696 410.025 106.294 410.025 106.294Z" fill="white"/>
</g>
<path d="M509.813 154.034H515.609V155H508.497V154.146L514.139 146.096H508.497V145.13H515.469V145.97L509.813 154.034ZM519.81 148.014C520.678 148.014 521.322 148.238 521.742 148.686C522.172 149.125 522.386 149.797 522.386 150.702V155H521.28V153.838C521.103 154.239 520.832 154.552 520.468 154.776C520.104 154.991 519.684 155.098 519.208 155.098C518.77 155.098 518.364 155.009 517.99 154.832C517.626 154.655 517.337 154.407 517.122 154.09C516.908 153.773 516.8 153.423 516.8 153.04C516.8 152.527 516.931 152.13 517.192 151.85C517.454 151.561 517.883 151.355 518.48 151.234C519.078 151.103 519.908 151.038 520.972 151.038H521.28V150.576C521.28 150.007 521.164 149.596 520.93 149.344C520.697 149.083 520.319 148.952 519.796 148.952C519.012 148.952 518.233 149.195 517.458 149.68L517.08 148.854C517.435 148.602 517.86 148.401 518.354 148.252C518.858 148.093 519.344 148.014 519.81 148.014ZM519.362 154.202C519.922 154.202 520.38 154.015 520.734 153.642C521.098 153.259 521.28 152.769 521.28 152.172V151.766H521.028C520.207 151.766 519.582 151.803 519.152 151.878C518.723 151.943 518.415 152.06 518.228 152.228C518.051 152.387 517.962 152.625 517.962 152.942C517.962 153.306 518.093 153.609 518.354 153.852C518.625 154.085 518.961 154.202 519.362 154.202ZM527.892 148.014C528.489 148.014 529.017 148.163 529.474 148.462C529.931 148.761 530.286 149.181 530.538 149.722C530.79 150.254 530.916 150.875 530.916 151.584C530.916 152.293 530.79 152.914 530.538 153.446C530.286 153.969 529.931 154.375 529.474 154.664C529.026 154.953 528.499 155.098 527.892 155.098C527.36 155.098 526.893 154.981 526.492 154.748C526.1 154.515 525.801 154.183 525.596 153.754V157.52H524.462V148.182H525.596V149.358C525.801 148.929 526.1 148.597 526.492 148.364C526.893 148.131 527.36 148.014 527.892 148.014ZM527.668 154.16C528.331 154.16 528.844 153.936 529.208 153.488C529.572 153.04 529.754 152.405 529.754 151.584C529.754 150.763 529.572 150.123 529.208 149.666C528.844 149.199 528.331 148.966 527.668 148.966C527.005 148.966 526.492 149.19 526.128 149.638C525.773 150.086 525.596 150.725 525.596 151.556C525.596 152.387 525.773 153.031 526.128 153.488C526.492 153.936 527.005 154.16 527.668 154.16ZM532.611 155V148.182H533.745V155H532.611ZM532.499 145.228H533.871V146.502H532.499V145.228ZM541.576 151.766H536.592C536.63 152.559 536.844 153.161 537.236 153.572C537.628 153.973 538.184 154.174 538.902 154.174C539.696 154.174 540.424 153.903 541.086 153.362L541.464 154.188C541.166 154.468 540.783 154.692 540.316 154.86C539.85 155.019 539.374 155.098 538.888 155.098C537.824 155.098 536.984 154.785 536.368 154.16C535.762 153.535 535.458 152.671 535.458 151.57C535.458 150.87 535.594 150.254 535.864 149.722C536.135 149.181 536.513 148.761 536.998 148.462C537.493 148.163 538.053 148.014 538.678 148.014C539.584 148.014 540.293 148.313 540.806 148.91C541.32 149.498 541.576 150.31 541.576 151.346V151.766ZM538.692 148.896C538.095 148.896 537.614 149.083 537.25 149.456C536.896 149.829 536.686 150.357 536.62 151.038H540.582C540.564 150.347 540.391 149.82 540.064 149.456C539.738 149.083 539.28 148.896 538.692 148.896ZM547.111 148.994L546.369 149.064C545.669 149.129 545.161 149.349 544.843 149.722C544.535 150.095 544.381 150.557 544.381 151.108V155H543.247V148.182H544.353V149.372C544.736 148.579 545.487 148.135 546.607 148.042L547.013 148.014L547.111 148.994Z" fill="black"/>
<g clip-path="url(#clip6_1541_3351)">
<path d="M528.013 92C529.142 92.0021 530.254 92.0978 531.334 92.2788V103.952L539.589 95.6976C540.5 96.3468 541.353 97.0689 542.142 97.8575C542.931 98.6462 543.655 99.5014 544.304 100.413L536.049 108.667H547.723C547.904 109.747 548 110.854 548 111.986V112.013C548 113.145 547.904 114.254 547.723 115.334H536.047L544.304 123.587C543.655 124.498 542.931 125.354 542.144 126.142H542.142C541.353 126.931 540.5 127.655 539.591 128.302L531.334 120.047V131.721C530.256 131.902 529.144 131.998 528.014 132H527.986C526.855 131.998 525.748 131.902 524.668 131.721V120.047L516.413 128.302C514.59 127.006 512.996 125.41 511.698 123.587L519.953 115.334H508.279C508.096 114.252 508 113.139 508 112.007V111.949C508.002 111.655 508.021 111.296 508.049 110.925L508.057 110.813C508.139 109.768 508.279 108.667 508.279 108.667H519.953L511.698 100.413C512.345 99.5014 513.067 98.6482 513.856 97.8617L513.86 97.8575C514.647 97.0689 515.502 96.3468 516.413 95.6976L524.668 103.952V92.2788C525.748 92.0978 526.858 92.0021 527.989 92H528.013ZM528.011 107.001H527.991C526.506 107.001 525.083 107.273 523.767 107.769C523.274 109.082 523.001 110.505 522.999 111.991V112.009C523.001 113.495 523.274 114.918 523.769 116.231C525.083 116.727 526.506 116.999 527.991 116.999H528.011C529.496 116.999 530.919 116.727 532.233 116.231C532.728 114.916 533.001 113.495 533.001 112.009V111.991C533.001 110.505 532.728 109.082 532.233 107.769C530.919 107.273 529.496 107.001 528.011 107.001Z" fill="#FF4A00"/>
</g>
<defs>
<clipPath id="clip0_1541_3351">
<rect width="40" height="40" fill="white" transform="translate(151)"/>
</clipPath>
<clipPath id="clip1_1541_3351">
<rect width="40" height="40" fill="white" transform="translate(508)"/>
</clipPath>
<clipPath id="clip2_1541_3351">
<rect width="40" height="40" fill="white" transform="translate(28 92)"/>
</clipPath>
<clipPath id="clip3_1541_3351">
<rect width="40" height="40" fill="white" transform="translate(151 92)"/>
</clipPath>
<clipPath id="clip4_1541_3351">
<rect width="40" height="40" fill="white" transform="translate(270 92)"/>
</clipPath>
<clipPath id="clip5_1541_3351">
<rect width="40" height="40" fill="white" transform="translate(389 92)"/>
</clipPath>
<clipPath id="clip6_1541_3351">
<rect width="40" height="40" fill="white" transform="translate(508 92)"/>
</clipPath>
</defs>
</svg>
