<svg width="246" height="500" viewBox="0 0 246 500" fill="none" xmlns="http://www.w3.org/2000/svg">
<path d="M9.2253 63H7.96531L6.2853 59.836C6.07997 59.4533 5.83731 59.192 5.55731 59.052C5.28664 58.9027 4.9133 58.828 4.4373 58.828H2.5893V63H1.4553V53.13H5.5153C6.58864 53.13 7.40531 53.368 7.96531 53.844C8.53464 54.32 8.81931 55.02 8.81931 55.944C8.81931 56.7093 8.59997 57.33 8.16131 57.806C7.73197 58.2727 7.11597 58.5667 6.3133 58.688C6.5653 58.7627 6.78464 58.8887 6.97131 59.066C7.16731 59.2433 7.34464 59.4813 7.50331 59.78L9.2253 63ZM5.4173 57.876C6.18264 57.876 6.75197 57.7173 7.1253 57.4C7.50797 57.0827 7.69931 56.602 7.69931 55.958C7.69931 55.3233 7.51264 54.852 7.13931 54.544C6.76597 54.236 6.19197 54.082 5.4173 54.082H2.5893V57.876H5.4173ZM11.053 53.13H14.371C15.9483 53.13 17.1663 53.5593 18.025 54.418C18.893 55.2673 19.327 56.4807 19.327 58.058C19.327 59.6353 18.893 60.8533 18.025 61.712C17.1663 62.5707 15.9483 63 14.371 63H11.053V53.13ZM14.301 62.02C16.8583 62.02 18.137 60.6993 18.137 58.058C18.137 55.426 16.8583 54.11 14.301 54.11H12.201V62.02H14.301ZM28.1479 63.112C26.6079 63.112 25.3759 62.6967 24.4519 61.866L24.8999 60.984C25.3853 61.3947 25.8799 61.6887 26.3839 61.866C26.8973 62.0433 27.4899 62.132 28.1619 62.132C28.9553 62.132 29.5666 61.978 29.9959 61.67C30.4253 61.362 30.6399 60.928 30.6399 60.368C30.6399 60.0413 30.5373 59.7753 30.3319 59.57C30.1266 59.3647 29.8559 59.2013 29.5199 59.08C29.1839 58.9587 28.7313 58.8327 28.1619 58.702C27.3966 58.5247 26.7666 58.338 26.2719 58.142C25.7866 57.946 25.3899 57.666 25.0819 57.302C24.7833 56.938 24.6339 56.462 24.6339 55.874C24.6339 55.314 24.7786 54.8193 25.0679 54.39C25.3666 53.9513 25.7866 53.6153 26.3279 53.382C26.8786 53.1393 27.5133 53.018 28.2319 53.018C28.9133 53.018 29.5479 53.1253 30.1359 53.34C30.7333 53.5547 31.2373 53.8627 31.6479 54.264L31.2139 55.146C30.7473 54.7447 30.2713 54.4553 29.7859 54.278C29.3099 54.0913 28.7919 53.998 28.2319 53.998C27.4666 53.998 26.8646 54.1613 26.4259 54.488C25.9966 54.8053 25.7819 55.2533 25.7819 55.832C25.7819 56.3267 25.9733 56.7 26.3559 56.952C26.7386 57.204 27.3173 57.4187 28.0919 57.596C28.9413 57.8013 29.6086 57.9927 30.0939 58.17C30.5793 58.338 30.9806 58.5947 31.2979 58.94C31.6246 59.2853 31.7879 59.7473 31.7879 60.326C31.7879 60.886 31.6386 61.376 31.3399 61.796C31.0506 62.216 30.6306 62.5427 30.0799 62.776C29.5293 63 28.8853 63.112 28.1479 63.112ZM36.4396 62.188C36.6449 62.188 36.8502 62.174 37.0556 62.146L36.9996 63.042C36.7849 63.0793 36.5516 63.098 36.2996 63.098C35.4782 63.098 34.8576 62.8833 34.4376 62.454C34.0269 62.0247 33.8216 61.4273 33.8216 60.662V57.078H32.4916V56.182H33.8216V54.11H34.9556V56.182H36.8876V57.078H34.9556V60.578C34.9556 61.6513 35.4502 62.188 36.4396 62.188ZM40.9734 56.014C41.8414 56.014 42.4854 56.238 42.9054 56.686C43.3347 57.1247 43.5494 57.7967 43.5494 58.702V63H42.4434V61.838C42.266 62.2393 41.9954 62.552 41.6314 62.776C41.2674 62.9907 40.8474 63.098 40.3714 63.098C39.9327 63.098 39.5267 63.0093 39.1534 62.832C38.7894 62.6547 38.5 62.4073 38.2854 62.09C38.0707 61.7727 37.9634 61.4227 37.9634 61.04C37.9634 60.5267 38.094 60.13 38.3554 59.85C38.6167 59.5607 39.046 59.3553 39.6434 59.234C40.2407 59.1033 41.0714 59.038 42.1354 59.038H42.4434V58.576C42.4434 58.0067 42.3267 57.596 42.0934 57.344C41.86 57.0827 41.482 56.952 40.9594 56.952C40.1754 56.952 39.396 57.1947 38.6214 57.68L38.2434 56.854C38.598 56.602 39.0227 56.4013 39.5174 56.252C40.0214 56.0933 40.5067 56.014 40.9734 56.014ZM40.5254 62.202C41.0854 62.202 41.5427 62.0153 41.8974 61.642C42.2614 61.2593 42.4434 60.7693 42.4434 60.172V59.766H42.1914C41.37 59.766 40.7447 59.8033 40.3154 59.878C39.886 59.9433 39.578 60.06 39.3914 60.228C39.214 60.3867 39.1254 60.6247 39.1254 60.942C39.1254 61.306 39.256 61.6093 39.5174 61.852C39.788 62.0853 40.124 62.202 40.5254 62.202ZM48.6212 62.188C48.8265 62.188 49.0319 62.174 49.2372 62.146L49.1812 63.042C48.9665 63.0793 48.7332 63.098 48.4812 63.098C47.6599 63.098 47.0392 62.8833 46.6192 62.454C46.2085 62.0247 46.0032 61.4273 46.0032 60.662V57.078H44.6732V56.182H46.0032V54.11H47.1372V56.182H49.0692V57.078H47.1372V60.578C47.1372 61.6513 47.6319 62.188 48.6212 62.188ZM50.383 63V56.182H51.517V63H50.383ZM50.271 53.228H51.643V54.502H50.271V53.228ZM56.4649 63.098C55.8209 63.098 55.2516 62.9533 54.7569 62.664C54.2716 62.3747 53.8936 61.964 53.6229 61.432C53.3616 60.8907 53.2309 60.2653 53.2309 59.556C53.2309 58.8467 53.3616 58.226 53.6229 57.694C53.8936 57.1527 54.2716 56.7373 54.7569 56.448C55.2516 56.1587 55.8209 56.014 56.4649 56.014C57.1089 56.014 57.6782 56.1587 58.1729 56.448C58.6676 56.7373 59.0456 57.1527 59.3069 57.694C59.5776 58.226 59.7129 58.8467 59.7129 59.556C59.7129 60.2653 59.5776 60.8907 59.3069 61.432C59.0456 61.964 58.6676 62.3747 58.1729 62.664C57.6782 62.9533 57.1089 63.098 56.4649 63.098ZM56.4649 62.16C57.1369 62.16 57.6502 61.9407 58.0049 61.502C58.3689 61.054 58.5509 60.4053 58.5509 59.556C58.5509 58.7253 58.3689 58.086 58.0049 57.638C57.6409 57.1807 57.1276 56.952 56.4649 56.952C55.8022 56.952 55.2889 57.1807 54.9249 57.638C54.5609 58.086 54.3789 58.7253 54.3789 59.556C54.3789 60.396 54.5562 61.04 54.9109 61.488C55.2749 61.936 55.7929 62.16 56.4649 62.16ZM64.8325 56.014C66.4659 56.014 67.2825 56.9147 67.2825 58.716V63H66.1485V58.786C66.1485 58.1513 66.0225 57.6893 65.7705 57.4C65.5279 57.1107 65.1359 56.966 64.5945 56.966C63.9692 56.966 63.4699 57.1573 63.0965 57.54C62.7232 57.9227 62.5365 58.4407 62.5365 59.094V63H61.4025V56.182H62.5225V57.302C62.7465 56.882 63.0592 56.5647 63.4605 56.35C63.8619 56.126 64.3192 56.014 64.8325 56.014ZM77.3509 63.112C76.4176 63.112 75.6056 62.9113 74.9149 62.51C74.2243 62.0993 73.6923 61.516 73.3189 60.76C72.9549 59.9947 72.7729 59.094 72.7729 58.058C72.7729 57.022 72.9549 56.126 73.3189 55.37C73.6923 54.614 74.2243 54.0353 74.9149 53.634C75.6056 53.2233 76.4176 53.018 77.3509 53.018C78.0323 53.018 78.6576 53.1253 79.2269 53.34C79.7963 53.5453 80.2909 53.8533 80.7109 54.264L80.2769 55.146C79.8009 54.7447 79.3343 54.4553 78.8769 54.278C78.4196 54.1007 77.9156 54.012 77.3649 54.012C76.2823 54.012 75.4423 54.3667 74.8449 55.076C74.2569 55.776 73.9629 56.77 73.9629 58.058C73.9629 59.3553 74.2569 60.3587 74.8449 61.068C75.4423 61.768 76.2823 62.118 77.3649 62.118C77.9156 62.118 78.4196 62.0293 78.8769 61.852C79.3343 61.6747 79.8009 61.3853 80.2769 60.984L80.7109 61.866C80.2909 62.2767 79.7963 62.5893 79.2269 62.804C78.6576 63.0093 78.0323 63.112 77.3509 63.112ZM90.3816 63H89.1216L87.4416 59.836C87.2362 59.4533 86.9936 59.192 86.7136 59.052C86.4429 58.9027 86.0696 58.828 85.5936 58.828H83.7456V63H82.6116V53.13H86.6716C87.7449 53.13 88.5616 53.368 89.1216 53.844C89.6909 54.32 89.9756 55.02 89.9756 55.944C89.9756 56.7093 89.7562 57.33 89.3176 57.806C88.8882 58.2727 88.2722 58.5667 87.4696 58.688C87.7216 58.7627 87.9409 58.8887 88.1276 59.066C88.3236 59.2433 88.5009 59.4813 88.6596 59.78L90.3816 63ZM86.5736 57.876C87.3389 57.876 87.9082 57.7173 88.2816 57.4C88.6642 57.0827 88.8556 56.602 88.8556 55.958C88.8556 55.3233 88.6689 54.852 88.2956 54.544C87.9222 54.236 87.3482 54.082 86.5736 54.082H83.7456V57.876H86.5736ZM100.595 53.13H101.533V63H100.483L100.497 55.356L97.2912 61.432H96.4792L93.2592 55.412L93.2732 63H92.2092V53.13H93.1612L96.8992 60.284L100.595 53.13Z" fill="black"/>
<path d="M51.9922 29.0199L72 36.4232V29.7852L51.9922 22.3818L32 29.7852V36.4232L51.9922 29.0199Z" fill="black"/>
<path d="M51.9922 29.02L32 36.4234L39.4207 40.0001L51.9922 35.3457L64.5793 40.0001L72 36.4234L51.9922 29.02Z" fill="#19C1CE"/>
<path d="M51.9922 10.9801L32 3.57666V10.2147L51.9922 17.6181L72 10.2147V3.57666L51.9922 10.9801Z" fill="black"/>
<path d="M51.9922 10.9801L72 3.57671L64.5793 0L51.9922 4.65448L39.4207 0L32 3.57671L51.9922 10.9801Z" fill="#19C1CE"/>
<path d="M166.554 63.112C165.014 63.112 163.782 62.6967 162.858 61.866L163.306 60.984C163.792 61.3947 164.286 61.6887 164.79 61.866C165.304 62.0433 165.896 62.132 166.568 62.132C167.362 62.132 167.973 61.978 168.402 61.67C168.832 61.362 169.046 60.928 169.046 60.368C169.046 60.0413 168.944 59.7753 168.738 59.57C168.533 59.3647 168.262 59.2013 167.926 59.08C167.59 58.9587 167.138 58.8327 166.568 58.702C165.803 58.5247 165.173 58.338 164.678 58.142C164.193 57.946 163.796 57.666 163.488 57.302C163.19 56.938 163.04 56.462 163.04 55.874C163.04 55.314 163.185 54.8193 163.474 54.39C163.773 53.9513 164.193 53.6153 164.734 53.382C165.285 53.1393 165.92 53.018 166.638 53.018C167.32 53.018 167.954 53.1253 168.542 53.34C169.14 53.5547 169.644 53.8627 170.054 54.264L169.62 55.146C169.154 54.7447 168.678 54.4553 168.192 54.278C167.716 54.0913 167.198 53.998 166.638 53.998C165.873 53.998 165.271 54.1613 164.832 54.488C164.403 54.8053 164.188 55.2533 164.188 55.832C164.188 56.3267 164.38 56.7 164.762 56.952C165.145 57.204 165.724 57.4187 166.498 57.596C167.348 57.8013 168.015 57.9927 168.5 58.17C168.986 58.338 169.387 58.5947 169.704 58.94C170.031 59.2853 170.194 59.7473 170.194 60.326C170.194 60.886 170.045 61.376 169.746 61.796C169.457 62.216 169.037 62.5427 168.486 62.776C167.936 63 167.292 63.112 166.554 63.112ZM174.663 56.014C175.531 56.014 176.175 56.238 176.595 56.686C177.024 57.1247 177.239 57.7967 177.239 58.702V63H176.133V61.838C175.955 62.2393 175.685 62.552 175.321 62.776C174.957 62.9907 174.537 63.098 174.061 63.098C173.622 63.098 173.216 63.0093 172.843 62.832C172.479 62.6547 172.189 62.4073 171.975 62.09C171.76 61.7727 171.653 61.4227 171.653 61.04C171.653 60.5267 171.783 60.13 172.045 59.85C172.306 59.5607 172.735 59.3553 173.333 59.234C173.93 59.1033 174.761 59.038 175.825 59.038H176.133V58.576C176.133 58.0067 176.016 57.596 175.783 57.344C175.549 57.0827 175.171 56.952 174.649 56.952C173.865 56.952 173.085 57.1947 172.311 57.68L171.933 56.854C172.287 56.602 172.712 56.4013 173.207 56.252C173.711 56.0933 174.196 56.014 174.663 56.014ZM174.215 62.202C174.775 62.202 175.232 62.0153 175.587 61.642C175.951 61.2593 176.133 60.7693 176.133 60.172V59.766H175.881C175.059 59.766 174.434 59.8033 174.005 59.878C173.575 59.9433 173.267 60.06 173.081 60.228C172.903 60.3867 172.815 60.6247 172.815 60.942C172.815 61.306 172.945 61.6093 173.207 61.852C173.477 62.0853 173.813 62.202 174.215 62.202ZM179.315 63V53.13H180.449V63H179.315ZM188.281 59.766H183.297C183.334 60.5593 183.549 61.1613 183.941 61.572C184.333 61.9733 184.888 62.174 185.607 62.174C186.4 62.174 187.128 61.9033 187.791 61.362L188.169 62.188C187.87 62.468 187.487 62.692 187.021 62.86C186.554 63.0187 186.078 63.098 185.593 63.098C184.529 63.098 183.689 62.7853 183.073 62.16C182.466 61.5347 182.163 60.6713 182.163 59.57C182.163 58.87 182.298 58.254 182.569 57.722C182.839 57.1807 183.217 56.7607 183.703 56.462C184.197 56.1633 184.757 56.014 185.383 56.014C186.288 56.014 186.997 56.3127 187.511 56.91C188.024 57.498 188.281 58.31 188.281 59.346V59.766ZM185.397 56.896C184.799 56.896 184.319 57.0827 183.955 57.456C183.6 57.8293 183.39 58.3567 183.325 59.038H187.287C187.268 58.3473 187.095 57.82 186.769 57.456C186.442 57.0827 185.985 56.896 185.397 56.896ZM192.261 63.098C191.113 63.098 190.203 62.804 189.531 62.216L189.909 61.376C190.273 61.6653 190.642 61.8753 191.015 62.006C191.398 62.1273 191.827 62.188 192.303 62.188C192.807 62.188 193.19 62.104 193.451 61.936C193.722 61.7587 193.857 61.5067 193.857 61.18C193.857 60.9093 193.769 60.6947 193.591 60.536C193.414 60.3773 193.12 60.2513 192.709 60.158L191.561 59.892C190.983 59.7613 190.539 59.5373 190.231 59.22C189.923 58.9027 189.769 58.5107 189.769 58.044C189.769 57.4373 190.007 56.9473 190.483 56.574C190.959 56.2007 191.594 56.014 192.387 56.014C192.863 56.014 193.316 56.0933 193.745 56.252C194.175 56.4013 194.534 56.6207 194.823 56.91L194.445 57.736C193.82 57.204 193.134 56.938 192.387 56.938C191.911 56.938 191.538 57.0313 191.267 57.218C191.006 57.3953 190.875 57.6473 190.875 57.974C190.875 58.2447 190.955 58.464 191.113 58.632C191.281 58.7907 191.547 58.912 191.911 58.996L193.073 59.276C193.708 59.4253 194.179 59.654 194.487 59.962C194.795 60.2607 194.949 60.6527 194.949 61.138C194.949 61.7353 194.707 62.2113 194.221 62.566C193.745 62.9207 193.092 63.098 192.261 63.098ZM198.19 56.182H200.122V57.078H198.19V63H197.056V57.078H195.726V56.182H197.056V55.958C197.056 55.0527 197.28 54.3667 197.728 53.9C198.185 53.4333 198.885 53.172 199.828 53.116L200.388 53.088L200.472 53.97L199.828 54.012C199.259 54.0493 198.843 54.2127 198.582 54.502C198.321 54.782 198.19 55.216 198.19 55.804V56.182ZM204.031 63.098C203.387 63.098 202.818 62.9533 202.323 62.664C201.838 62.3747 201.46 61.964 201.189 61.432C200.928 60.8907 200.797 60.2653 200.797 59.556C200.797 58.8467 200.928 58.226 201.189 57.694C201.46 57.1527 201.838 56.7373 202.323 56.448C202.818 56.1587 203.387 56.014 204.031 56.014C204.675 56.014 205.245 56.1587 205.739 56.448C206.234 56.7373 206.612 57.1527 206.873 57.694C207.144 58.226 207.279 58.8467 207.279 59.556C207.279 60.2653 207.144 60.8907 206.873 61.432C206.612 61.964 206.234 62.3747 205.739 62.664C205.245 62.9533 204.675 63.098 204.031 63.098ZM204.031 62.16C204.703 62.16 205.217 61.9407 205.571 61.502C205.935 61.054 206.117 60.4053 206.117 59.556C206.117 58.7253 205.935 58.086 205.571 57.638C205.207 57.1807 204.694 56.952 204.031 56.952C203.369 56.952 202.855 57.1807 202.491 57.638C202.127 58.086 201.945 58.7253 201.945 59.556C201.945 60.396 202.123 61.04 202.477 61.488C202.841 61.936 203.359 62.16 204.031 62.16ZM212.833 56.994L212.091 57.064C211.391 57.1293 210.882 57.3487 210.565 57.722C210.257 58.0953 210.103 58.5573 210.103 59.108V63H208.969V56.182H210.075V57.372C210.458 56.5787 211.209 56.1353 212.329 56.042L212.735 56.014L212.833 56.994ZM216.652 63.098C215.98 63.098 215.396 62.9533 214.902 62.664C214.407 62.3747 214.024 61.9687 213.754 61.446C213.492 60.914 213.362 60.2933 213.362 59.584C213.362 58.8747 213.497 58.254 213.768 57.722C214.048 57.1807 214.435 56.7607 214.93 56.462C215.434 56.1633 216.022 56.014 216.694 56.014C217.151 56.014 217.599 56.098 218.038 56.266C218.476 56.4247 218.831 56.6393 219.102 56.91L218.724 57.75C218.08 57.2273 217.426 56.966 216.764 56.966C216.064 56.966 215.518 57.1947 215.126 57.652C214.734 58.1093 214.538 58.7533 214.538 59.584C214.538 60.4053 214.734 61.04 215.126 61.488C215.518 61.936 216.064 62.16 216.764 62.16C217.426 62.16 218.08 61.8987 218.724 61.376L219.102 62.216C218.812 62.4867 218.448 62.7013 218.01 62.86C217.571 63.0187 217.118 63.098 216.652 63.098ZM226.179 59.766H221.195C221.232 60.5593 221.447 61.1613 221.839 61.572C222.231 61.9733 222.786 62.174 223.505 62.174C224.298 62.174 225.026 61.9033 225.689 61.362L226.067 62.188C225.768 62.468 225.386 62.692 224.919 62.86C224.452 63.0187 223.976 63.098 223.491 63.098C222.427 63.098 221.587 62.7853 220.971 62.16C220.364 61.5347 220.061 60.6713 220.061 59.57C220.061 58.87 220.196 58.254 220.467 57.722C220.738 57.1807 221.116 56.7607 221.601 56.462C222.096 56.1633 222.656 56.014 223.281 56.014C224.186 56.014 224.896 56.3127 225.409 56.91C225.922 57.498 226.179 58.31 226.179 59.346V59.766ZM223.295 56.896C222.698 56.896 222.217 57.0827 221.853 57.456C221.498 57.8293 221.288 58.3567 221.223 59.038H225.185C225.166 58.3473 224.994 57.82 224.667 57.456C224.34 57.0827 223.883 56.896 223.295 56.896Z" fill="black"/>
<g clip-path="url(#clip0_1570_3106)">
<path d="M191.646 8.92382C192.936 7.56355 194.732 6.71994 196.718 6.71994C199.358 6.71994 201.662 8.20996 202.889 10.4219C203.955 9.93985 205.135 9.67171 206.377 9.67171C211.139 9.67171 215 13.613 215 18.4746C215 23.3367 211.139 27.278 206.377 27.278C205.795 27.278 205.227 27.2192 204.678 27.1067C203.598 29.0569 201.539 30.3745 199.176 30.3745C198.187 30.3745 197.251 30.1433 196.418 29.7321C195.323 32.3391 192.772 34.167 189.798 34.167C186.701 34.167 184.062 32.184 183.048 29.4029C182.606 29.498 182.147 29.5476 181.676 29.5476C177.989 29.5476 175 26.4915 175 22.7209C175 20.1941 176.343 17.9879 178.338 16.8075C177.928 15.8509 177.699 14.7951 177.699 13.6851C177.699 9.3488 181.178 5.83366 185.468 5.83366C187.987 5.83366 190.226 7.04574 191.646 8.92382Z" fill="#00A1E0"/>
<path d="M180.794 20.5262C180.769 20.5925 180.803 20.6063 180.811 20.6179C180.886 20.6732 180.962 20.713 181.039 20.7574C181.447 20.9765 181.832 21.0405 182.235 21.0405C183.056 21.0405 183.565 20.5988 183.565 19.8878V19.874C183.565 19.2166 182.99 18.9779 182.451 18.8055L182.381 18.7824C181.974 18.6487 181.623 18.5333 181.623 18.2623V18.2479C181.623 18.0161 181.828 17.8454 182.146 17.8454C182.499 17.8454 182.918 17.9642 183.189 18.1153C183.189 18.1153 183.268 18.1672 183.297 18.0893C183.313 18.0478 183.45 17.6753 183.464 17.6349C183.479 17.5911 183.452 17.5588 183.424 17.5415C183.116 17.3518 182.689 17.2221 182.248 17.2221L182.166 17.2227C181.415 17.2227 180.891 17.6817 180.891 18.3396V18.3534C180.891 19.0471 181.469 19.272 182.011 19.4288L182.099 19.4559C182.493 19.5788 182.834 19.6843 182.834 19.9657V19.9795C182.834 20.2367 182.613 20.4281 182.256 20.4281C182.117 20.4281 181.676 20.4253 181.199 20.1202C181.141 20.0862 181.108 20.0614 181.063 20.0343C181.04 20.0193 180.981 19.9934 180.956 20.0718L180.794 20.5262Z" fill="white"/>
<path d="M192.806 20.5262C192.781 20.5925 192.815 20.6063 192.823 20.6179C192.898 20.6732 192.974 20.713 193.051 20.7574C193.459 20.9765 193.844 21.0405 194.247 21.0405C195.068 21.0405 195.577 20.5988 195.577 19.8878V19.874C195.577 19.2166 195.002 18.9779 194.463 18.8055L194.393 18.7824C193.986 18.6487 193.635 18.5333 193.635 18.2623V18.2479C193.635 18.0161 193.84 17.8454 194.158 17.8454C194.511 17.8454 194.93 17.9642 195.201 18.1153C195.201 18.1153 195.28 18.1672 195.309 18.0893C195.325 18.0478 195.462 17.6753 195.476 17.6349C195.491 17.5911 195.464 17.5588 195.436 17.5415C195.128 17.3518 194.701 17.2221 194.26 17.2221L194.178 17.2227C193.427 17.2227 192.903 17.6817 192.903 18.3396V18.3534C192.903 19.0471 193.481 19.272 194.023 19.4288L194.111 19.4559C194.505 19.5788 194.846 19.6843 194.846 19.9657V19.9795C194.846 20.2367 194.624 20.4281 194.268 20.4281C194.129 20.4281 193.688 20.4253 193.211 20.1202C193.153 20.0862 193.119 20.0626 193.076 20.0343C193.061 20.0245 192.991 19.9974 192.967 20.0718L192.806 20.5262Z" fill="white"/>
<path d="M201.006 19.1337C201.006 19.5356 200.932 19.8522 200.786 20.0759C200.642 20.2973 200.424 20.4052 200.119 20.4052C199.814 20.4052 199.597 20.2979 199.455 20.0759C199.312 19.8527 199.239 19.5356 199.239 19.1337C199.239 18.7324 199.312 18.4164 199.455 18.1949C199.597 17.9758 199.814 17.8691 200.119 17.8691C200.424 17.8691 200.642 17.9758 200.786 18.1949C200.932 18.4164 201.006 18.7324 201.006 19.1337ZM201.691 18.3887C201.624 18.1586 201.519 17.9556 201.379 17.7867C201.239 17.6171 201.063 17.4811 200.853 17.3819C200.644 17.2833 200.397 17.2331 200.119 17.2331C199.841 17.2331 199.594 17.2833 199.385 17.3819C199.175 17.4811 198.998 17.6171 198.858 17.7867C198.719 17.9562 198.614 18.1592 198.547 18.3887C198.48 18.6176 198.446 18.8679 198.446 19.1337C198.446 19.3995 198.48 19.6503 198.547 19.8787C198.614 20.1082 198.719 20.3112 198.859 20.4807C198.998 20.6502 199.176 20.7857 199.385 20.882C199.594 20.9783 199.841 21.0273 200.119 21.0273C200.397 21.0273 200.643 20.9783 200.853 20.882C201.062 20.7857 201.239 20.6502 201.379 20.4807C201.519 20.3117 201.624 20.1088 201.691 19.8787C201.758 19.6498 201.792 19.3989 201.792 19.1337C201.792 18.8684 201.758 18.6176 201.691 18.3887Z" fill="white"/>
<path d="M207.315 20.2982C207.292 20.2307 207.228 20.2561 207.228 20.2561C207.128 20.2947 207.022 20.3305 206.909 20.3483C206.795 20.3662 206.669 20.3754 206.534 20.3754C206.202 20.3754 205.939 20.2757 205.75 20.0785C205.561 19.8813 205.455 19.5624 205.456 19.1311C205.458 18.7384 205.551 18.4432 205.719 18.2183C205.886 17.9945 206.14 17.8798 206.479 17.8798C206.762 17.8798 206.977 17.9127 207.203 17.9847C207.203 17.9847 207.257 18.0084 207.283 17.9369C207.342 17.7685 207.387 17.648 207.451 17.4629C207.469 17.4104 207.424 17.3879 207.409 17.3816C207.32 17.3464 207.11 17.2893 206.952 17.2651C206.803 17.242 206.63 17.2299 206.438 17.2299C206.15 17.2299 205.893 17.2795 205.674 17.3787C205.455 17.4773 205.27 17.6134 205.123 17.7829C204.975 17.9524 204.864 18.1554 204.789 18.3849C204.715 18.6138 204.677 18.8652 204.677 19.1311C204.677 19.706 204.831 20.1707 205.133 20.5109C205.436 20.8523 205.892 21.0259 206.485 21.0259C206.836 21.0259 207.197 20.9538 207.455 20.8506C207.455 20.8506 207.505 20.8264 207.483 20.7681L207.315 20.2982Z" fill="white"/>
<path d="M208.513 18.7489C208.546 18.5257 208.607 18.3401 208.701 18.1953C208.843 17.9756 209.059 17.8551 209.364 17.8551C209.668 17.8551 209.869 17.9762 210.013 18.1953C210.109 18.3401 210.15 18.5338 210.167 18.7489H208.513ZM210.819 18.2582C210.761 18.0362 210.617 17.8119 210.522 17.7092C210.373 17.5466 210.227 17.433 210.083 17.3696C209.893 17.2877 209.667 17.2335 209.418 17.2335C209.129 17.2335 208.866 17.2825 208.653 17.384C208.439 17.4855 208.26 17.6239 208.119 17.7963C207.978 17.9681 207.872 18.1728 207.805 18.4052C207.737 18.6364 207.703 18.8884 207.703 19.1543C207.703 19.4247 207.738 19.6767 207.809 19.9033C207.879 20.1317 207.992 20.3329 208.145 20.4995C208.297 20.6673 208.493 20.7988 208.728 20.8905C208.961 20.9816 209.244 21.0289 209.569 21.0283C210.239 21.026 210.591 20.8749 210.737 20.7936C210.762 20.7792 210.787 20.7538 210.756 20.6812L210.605 20.2516C210.582 20.1876 210.517 20.2112 210.517 20.2112C210.352 20.2735 210.116 20.3854 209.566 20.3842C209.206 20.3836 208.94 20.2764 208.773 20.1086C208.601 19.9368 208.517 19.6842 208.503 19.3278L210.821 19.3301C210.821 19.3301 210.882 19.329 210.888 19.269C210.891 19.2436 210.968 18.787 210.819 18.2582Z" fill="white"/>
<path d="M189.946 18.7489C189.979 18.5257 190.039 18.3401 190.133 18.1953C190.275 17.9756 190.491 17.8551 190.796 17.8551C191.1 17.8551 191.301 17.9762 191.446 18.1953C191.541 18.3401 191.583 18.5338 191.599 18.7489H189.946ZM192.251 18.2582C192.193 18.0362 192.049 17.8119 191.955 17.7092C191.805 17.5466 191.659 17.433 191.515 17.3696C191.326 17.2877 191.099 17.2335 190.85 17.2335C190.561 17.2335 190.298 17.2825 190.085 17.384C189.871 17.4855 189.692 17.6239 189.551 17.7963C189.41 17.9681 189.304 18.1728 189.237 18.4052C189.17 18.6364 189.135 18.8884 189.135 19.1543C189.135 19.4247 189.171 19.6767 189.241 19.9033C189.311 20.1317 189.424 20.3329 189.577 20.4995C189.729 20.6673 189.925 20.7988 190.16 20.8905C190.393 20.9816 190.676 21.0289 191.001 21.0283C191.671 21.026 192.024 20.8749 192.169 20.7936C192.195 20.7792 192.219 20.7538 192.188 20.6812L192.037 20.2516C192.014 20.1876 191.949 20.2112 191.949 20.2112C191.784 20.2735 191.548 20.3854 190.997 20.3842C190.638 20.3836 190.372 20.2764 190.205 20.1086C190.033 19.9368 189.949 19.6842 189.935 19.3278L192.253 19.3301C192.253 19.3301 192.314 19.329 192.32 19.269C192.323 19.2436 192.4 18.787 192.251 18.2582Z" fill="white"/>
<path d="M184.934 20.2851C184.843 20.2119 184.831 20.1934 184.8 20.1462C184.754 20.0741 184.731 19.9714 184.731 19.8411C184.731 19.6347 184.798 19.4865 184.938 19.3867C184.936 19.3873 185.137 19.2109 185.61 19.2172C185.942 19.2218 186.239 19.2714 186.239 19.2714V20.3382H186.24C186.24 20.3382 185.945 20.4022 185.614 20.4224C185.142 20.4512 184.932 20.2846 184.934 20.2851ZM185.856 18.6365C185.762 18.6296 185.64 18.6256 185.495 18.6256C185.296 18.6256 185.104 18.651 184.924 18.7C184.742 18.749 184.579 18.8257 184.439 18.9272C184.299 19.0292 184.185 19.1595 184.103 19.3141C184.021 19.4686 183.979 19.6508 183.979 19.855C183.979 20.0626 184.015 20.243 184.085 20.3907C184.156 20.5388 184.258 20.6622 184.388 20.7574C184.517 20.8525 184.676 20.9223 184.86 20.9644C185.042 21.0065 185.248 21.0278 185.474 21.0278C185.712 21.0278 185.949 21.0082 186.178 20.9684C186.406 20.9292 186.685 20.8721 186.762 20.8543C186.839 20.8358 186.925 20.8122 186.925 20.8122C186.982 20.7978 186.978 20.7355 186.978 20.7355L186.977 18.5898C186.977 18.1193 186.852 17.7704 186.608 17.5542C186.365 17.3385 186.006 17.2296 185.543 17.2296C185.369 17.2296 185.089 17.2538 184.922 17.2878C184.922 17.2878 184.415 17.387 184.207 17.5519C184.207 17.5519 184.161 17.5807 184.186 17.6453L184.35 18.0916C184.371 18.1493 184.426 18.1297 184.426 18.1297C184.426 18.1297 184.444 18.1228 184.464 18.1107C184.911 17.865 185.475 17.8725 185.475 17.8725C185.725 17.8725 185.918 17.9232 186.048 18.0242C186.174 18.1222 186.239 18.2704 186.239 18.5829V18.6821C186.039 18.6533 185.856 18.6365 185.856 18.6365Z" fill="white"/>
<path d="M204.556 17.4274C204.574 17.3743 204.537 17.349 204.522 17.3432C204.482 17.3276 204.285 17.2855 204.133 17.2757C203.842 17.2579 203.68 17.3074 203.535 17.3732C203.392 17.4389 203.232 17.545 203.143 17.6655V17.3801C203.143 17.3403 203.115 17.3086 203.076 17.3086H202.482C202.443 17.3086 202.416 17.3403 202.416 17.3801V20.8797C202.416 20.9189 202.447 20.9512 202.486 20.9512H203.095C203.134 20.9512 203.165 20.9189 203.165 20.8797V19.1313C203.165 18.8966 203.191 18.6625 203.242 18.5155C203.292 18.3702 203.361 18.2537 203.445 18.1701C203.53 18.087 203.626 18.0288 203.732 17.9959C203.839 17.9625 203.959 17.9515 204.043 17.9515C204.164 17.9515 204.298 17.9833 204.298 17.9833C204.342 17.9884 204.367 17.9608 204.382 17.9198C204.422 17.8126 204.535 17.4914 204.556 17.4274Z" fill="white"/>
<path d="M198.839 15.8055C198.765 15.7824 198.698 15.7669 198.61 15.7501C198.521 15.734 198.415 15.7259 198.295 15.7259C197.875 15.7259 197.545 15.8459 197.313 16.0823C197.082 16.3176 196.925 16.6756 196.847 17.1467L196.818 17.3053H196.292C196.292 17.3053 196.228 17.303 196.214 17.3734L196.128 17.8618C196.122 17.9079 196.142 17.9373 196.204 17.9373H196.716L196.196 20.8735C196.156 21.1099 196.109 21.3043 196.057 21.4519C196.006 21.5972 195.957 21.7062 195.895 21.7857C195.836 21.8619 195.78 21.9184 195.683 21.9512C195.604 21.9783 195.511 21.991 195.41 21.991C195.354 21.991 195.28 21.9818 195.225 21.9703C195.17 21.9593 195.141 21.9472 195.099 21.9293C195.099 21.9293 195.039 21.9063 195.015 21.9668C194.997 22.017 194.86 22.397 194.843 22.4437C194.827 22.4904 194.85 22.5267 194.879 22.5377C194.948 22.5619 194.998 22.578 195.091 22.6005C195.22 22.6311 195.329 22.6328 195.431 22.6328C195.644 22.6328 195.839 22.6023 196 22.5434C196.162 22.484 196.303 22.3808 196.429 22.2413C196.564 22.0902 196.649 21.9322 196.729 21.716C196.81 21.5026 196.879 21.2374 196.933 20.9283L197.456 17.9373H198.219C198.219 17.9373 198.284 17.9396 198.297 17.8687L198.384 17.3809C198.389 17.3342 198.37 17.3053 198.308 17.3053H197.566C197.57 17.2886 197.604 17.0245 197.689 16.776C197.725 16.6705 197.794 16.5845 197.851 16.5257C197.908 16.4681 197.974 16.4271 198.046 16.4035C198.119 16.3793 198.203 16.3677 198.295 16.3677C198.364 16.3677 198.433 16.3758 198.485 16.3867C198.557 16.4023 198.585 16.4104 198.603 16.4162C198.679 16.4392 198.69 16.4167 198.704 16.3798L198.882 15.8874C198.9 15.8343 198.855 15.8118 198.839 15.8055Z" fill="white"/>
<path d="M188.48 20.8802C188.48 20.9195 188.453 20.9512 188.414 20.9512H187.8C187.761 20.9512 187.734 20.9195 187.734 20.8802V15.8728C187.734 15.8336 187.761 15.8019 187.8 15.8019H188.414C188.453 15.8019 188.48 15.8336 188.48 15.8728V20.8802Z" fill="white"/>
</g>
<path d="M38.279 165.862V170.426C37.887 170.631 37.3737 170.799 36.739 170.93C36.1137 171.051 35.479 171.112 34.835 171.112C33.855 171.112 33.0104 170.911 32.301 170.51C31.5917 170.109 31.0457 169.53 30.663 168.774C30.2897 168.018 30.103 167.113 30.103 166.058C30.103 165.013 30.2897 164.112 30.663 163.356C31.0364 162.6 31.573 162.021 32.273 161.62C32.973 161.219 33.799 161.018 34.751 161.018C35.4417 161.018 36.0764 161.125 36.655 161.34C37.2337 161.545 37.7284 161.853 38.139 162.264L37.705 163.146C37.229 162.735 36.7577 162.441 36.291 162.264C35.8337 162.087 35.3204 161.998 34.751 161.998C33.6404 161.998 32.7864 162.348 32.189 163.048C31.5917 163.748 31.293 164.751 31.293 166.058C31.293 167.393 31.5964 168.41 32.203 169.11C32.8097 169.801 33.6964 170.146 34.863 170.146C35.7124 170.146 36.501 170.02 37.229 169.768V166.758H34.779V165.862H38.279ZM43.2579 171.098C42.6139 171.098 42.0445 170.953 41.5499 170.664C41.0645 170.375 40.6865 169.964 40.4159 169.432C40.1545 168.891 40.0239 168.265 40.0239 167.556C40.0239 166.847 40.1545 166.226 40.4159 165.694C40.6865 165.153 41.0645 164.737 41.5499 164.448C42.0445 164.159 42.6139 164.014 43.2579 164.014C43.9019 164.014 44.4712 164.159 44.9659 164.448C45.4605 164.737 45.8385 165.153 46.0999 165.694C46.3705 166.226 46.5059 166.847 46.5059 167.556C46.5059 168.265 46.3705 168.891 46.0999 169.432C45.8385 169.964 45.4605 170.375 44.9659 170.664C44.4712 170.953 43.9019 171.098 43.2579 171.098ZM43.2579 170.16C43.9299 170.16 44.4432 169.941 44.7979 169.502C45.1619 169.054 45.3439 168.405 45.3439 167.556C45.3439 166.725 45.1619 166.086 44.7979 165.638C44.4339 165.181 43.9205 164.952 43.2579 164.952C42.5952 164.952 42.0819 165.181 41.7179 165.638C41.3539 166.086 41.1719 166.725 41.1719 167.556C41.1719 168.396 41.3492 169.04 41.7039 169.488C42.0679 169.936 42.5859 170.16 43.2579 170.16ZM51.0235 171.098C50.3795 171.098 49.8102 170.953 49.3155 170.664C48.8302 170.375 48.4522 169.964 48.1815 169.432C47.9202 168.891 47.7895 168.265 47.7895 167.556C47.7895 166.847 47.9202 166.226 48.1815 165.694C48.4522 165.153 48.8302 164.737 49.3155 164.448C49.8102 164.159 50.3795 164.014 51.0235 164.014C51.6675 164.014 52.2368 164.159 52.7315 164.448C53.2262 164.737 53.6042 165.153 53.8655 165.694C54.1362 166.226 54.2715 166.847 54.2715 167.556C54.2715 168.265 54.1362 168.891 53.8655 169.432C53.6042 169.964 53.2262 170.375 52.7315 170.664C52.2368 170.953 51.6675 171.098 51.0235 171.098ZM51.0235 170.16C51.6955 170.16 52.2088 169.941 52.5635 169.502C52.9275 169.054 53.1095 168.405 53.1095 167.556C53.1095 166.725 52.9275 166.086 52.5635 165.638C52.1995 165.181 51.6862 164.952 51.0235 164.952C50.3608 164.952 49.8475 165.181 49.4835 165.638C49.1195 166.086 48.9375 166.725 48.9375 167.556C48.9375 168.396 49.1148 169.04 49.4695 169.488C49.8335 169.936 50.3515 170.16 51.0235 170.16ZM62.0651 164.182V170.538C62.0651 171.555 61.8038 172.321 61.2811 172.834C60.7585 173.357 59.9838 173.618 58.9571 173.618C57.7625 173.618 56.7591 173.31 55.9471 172.694L56.3251 171.854C56.7825 172.153 57.2118 172.367 57.6131 172.498C58.0145 172.629 58.4625 172.694 58.9571 172.694C59.6105 172.694 60.1051 172.517 60.4411 172.162C60.7771 171.817 60.9451 171.308 60.9451 170.636V169.432C60.7491 169.871 60.4458 170.207 60.0351 170.44C59.6338 170.673 59.1578 170.79 58.6071 170.79C58.0098 170.79 57.4778 170.65 57.0111 170.37C56.5538 170.09 56.1945 169.693 55.9331 169.18C55.6811 168.667 55.5551 168.074 55.5551 167.402C55.5551 166.73 55.6811 166.137 55.9331 165.624C56.1945 165.111 56.5538 164.714 57.0111 164.434C57.4778 164.154 58.0098 164.014 58.6071 164.014C59.1485 164.014 59.6198 164.131 60.0211 164.364C60.4225 164.597 60.7258 164.929 60.9311 165.358V164.182H62.0651ZM58.8311 169.852C59.4845 169.852 59.9978 169.637 60.3711 169.208C60.7445 168.769 60.9311 168.167 60.9311 167.402C60.9311 166.646 60.7445 166.053 60.3711 165.624C60.0071 165.185 59.4938 164.966 58.8311 164.966C58.1685 164.966 57.6458 165.185 57.2631 165.624C56.8898 166.053 56.7031 166.646 56.7031 167.402C56.7031 168.167 56.8898 168.769 57.2631 169.208C57.6458 169.637 58.1685 169.852 58.8311 169.852ZM64.1643 171V161.13H65.2983V171H64.1643ZM73.1302 167.766H68.1462C68.1835 168.559 68.3982 169.161 68.7902 169.572C69.1822 169.973 69.7375 170.174 70.4562 170.174C71.2495 170.174 71.9775 169.903 72.6402 169.362L73.0182 170.188C72.7195 170.468 72.3368 170.692 71.8702 170.86C71.4035 171.019 70.9275 171.098 70.4422 171.098C69.3782 171.098 68.5382 170.785 67.9222 170.16C67.3155 169.535 67.0122 168.671 67.0122 167.57C67.0122 166.87 67.1475 166.254 67.4182 165.722C67.6888 165.181 68.0668 164.761 68.5522 164.462C69.0468 164.163 69.6068 164.014 70.2322 164.014C71.1375 164.014 71.8468 164.313 72.3602 164.91C72.8735 165.498 73.1302 166.31 73.1302 167.346V167.766ZM70.2462 164.896C69.6488 164.896 69.1682 165.083 68.8042 165.456C68.4495 165.829 68.2395 166.357 68.1742 167.038H72.1362C72.1175 166.347 71.9448 165.82 71.6182 165.456C71.2915 165.083 70.8342 164.896 70.2462 164.896Z" fill="black"/>
<path d="M71 128.445C71 126.8 70.8639 125.6 70.5692 124.356H51.4082V131.778H62.6553C62.4286 133.623 61.2041 136.4 58.483 138.267L58.4448 138.515L64.5032 143.115L64.9229 143.156C68.7777 139.667 71 134.534 71 128.445Z" fill="#4285F4"/>
<path d="M51.4081 148C56.9182 148 61.544 146.223 64.9228 143.156L58.4829 138.267C56.7596 139.445 54.4466 140.267 51.4081 140.267C46.0113 140.267 41.4308 136.778 39.798 131.956L39.5587 131.976L33.2591 136.754L33.1768 136.978C36.5327 143.511 43.4262 148 51.4081 148Z" fill="#34A853"/>
<path d="M39.7981 131.955C39.3673 130.711 39.1179 129.377 39.1179 127.999C39.1179 126.622 39.3673 125.288 39.7754 124.044L39.764 123.779L33.3855 118.924L33.1768 119.022C31.7937 121.733 31 124.777 31 127.999C31 131.222 31.7937 134.266 33.1768 136.977L39.7981 131.955Z" fill="#FBBC05"/>
<path d="M51.4081 115.733C55.2402 115.733 57.8252 117.355 59.2992 118.711L65.0588 113.2C61.5215 109.978 56.9182 108 51.4081 108C43.4262 108 36.5327 112.489 33.1768 119.022L39.7754 124.044C41.4308 119.222 46.0113 115.733 51.4081 115.733Z" fill="#EB4335"/>
<path d="M165.831 171V161.13H171.935V162.096H166.965V165.498H171.655V166.464H166.965V171H165.831ZM176.023 164.014C176.891 164.014 177.535 164.238 177.955 164.686C178.385 165.125 178.599 165.797 178.599 166.702V171H177.493V169.838C177.316 170.239 177.045 170.552 176.681 170.776C176.317 170.991 175.897 171.098 175.421 171.098C174.983 171.098 174.577 171.009 174.203 170.832C173.839 170.655 173.55 170.407 173.335 170.09C173.121 169.773 173.013 169.423 173.013 169.04C173.013 168.527 173.144 168.13 173.405 167.85C173.667 167.561 174.096 167.355 174.693 167.234C175.291 167.103 176.121 167.038 177.185 167.038H177.493V166.576C177.493 166.007 177.377 165.596 177.143 165.344C176.91 165.083 176.532 164.952 176.009 164.952C175.225 164.952 174.446 165.195 173.671 165.68L173.293 164.854C173.648 164.602 174.073 164.401 174.567 164.252C175.071 164.093 175.557 164.014 176.023 164.014ZM175.575 170.202C176.135 170.202 176.593 170.015 176.947 169.642C177.311 169.259 177.493 168.769 177.493 168.172V167.766H177.241C176.42 167.766 175.795 167.803 175.365 167.878C174.936 167.943 174.628 168.06 174.441 168.228C174.264 168.387 174.175 168.625 174.175 168.942C174.175 169.306 174.306 169.609 174.567 169.852C174.838 170.085 175.174 170.202 175.575 170.202ZM183.559 171.098C182.887 171.098 182.304 170.953 181.809 170.664C181.314 170.375 180.932 169.969 180.661 169.446C180.4 168.914 180.269 168.293 180.269 167.584C180.269 166.875 180.404 166.254 180.675 165.722C180.955 165.181 181.342 164.761 181.837 164.462C182.341 164.163 182.929 164.014 183.601 164.014C184.058 164.014 184.506 164.098 184.945 164.266C185.384 164.425 185.738 164.639 186.009 164.91L185.631 165.75C184.987 165.227 184.334 164.966 183.671 164.966C182.971 164.966 182.425 165.195 182.033 165.652C181.641 166.109 181.445 166.753 181.445 167.584C181.445 168.405 181.641 169.04 182.033 169.488C182.425 169.936 182.971 170.16 183.671 170.16C184.334 170.16 184.987 169.899 185.631 169.376L186.009 170.216C185.72 170.487 185.356 170.701 184.917 170.86C184.478 171.019 184.026 171.098 183.559 171.098ZM193.086 167.766H188.102C188.14 168.559 188.354 169.161 188.746 169.572C189.138 169.973 189.694 170.174 190.412 170.174C191.206 170.174 191.934 169.903 192.596 169.362L192.974 170.188C192.676 170.468 192.293 170.692 191.826 170.86C191.36 171.019 190.884 171.098 190.398 171.098C189.334 171.098 188.494 170.785 187.878 170.16C187.272 169.535 186.968 168.671 186.968 167.57C186.968 166.87 187.104 166.254 187.374 165.722C187.645 165.181 188.023 164.761 188.508 164.462C189.003 164.163 189.563 164.014 190.188 164.014C191.094 164.014 191.803 164.313 192.316 164.91C192.83 165.498 193.086 166.31 193.086 167.346V167.766ZM190.202 164.896C189.605 164.896 189.124 165.083 188.76 165.456C188.406 165.829 188.196 166.357 188.13 167.038H192.092C192.074 166.347 191.901 165.82 191.574 165.456C191.248 165.083 190.79 164.896 190.202 164.896ZM198.187 164.014C198.784 164.014 199.312 164.159 199.769 164.448C200.226 164.737 200.581 165.148 200.833 165.68C201.085 166.212 201.211 166.828 201.211 167.528C201.211 168.237 201.085 168.863 200.833 169.404C200.581 169.936 200.226 170.351 199.769 170.65C199.312 170.949 198.784 171.098 198.187 171.098C197.655 171.098 197.188 170.981 196.787 170.748C196.395 170.515 196.096 170.183 195.891 169.754V171H194.757V161.13H195.891V165.358C196.096 164.929 196.395 164.597 196.787 164.364C197.188 164.131 197.655 164.014 198.187 164.014ZM197.963 170.16C198.626 170.16 199.139 169.931 199.503 169.474C199.867 169.007 200.049 168.359 200.049 167.528C200.049 166.716 199.867 166.086 199.503 165.638C199.139 165.19 198.626 164.966 197.963 164.966C197.3 164.966 196.787 165.19 196.423 165.638C196.068 166.086 195.891 166.725 195.891 167.556C195.891 168.387 196.068 169.031 196.423 169.488C196.787 169.936 197.3 170.16 197.963 170.16ZM205.733 171.098C205.089 171.098 204.52 170.953 204.025 170.664C203.54 170.375 203.162 169.964 202.891 169.432C202.63 168.891 202.499 168.265 202.499 167.556C202.499 166.847 202.63 166.226 202.891 165.694C203.162 165.153 203.54 164.737 204.025 164.448C204.52 164.159 205.089 164.014 205.733 164.014C206.377 164.014 206.947 164.159 207.441 164.448C207.936 164.737 208.314 165.153 208.575 165.694C208.846 166.226 208.981 166.847 208.981 167.556C208.981 168.265 208.846 168.891 208.575 169.432C208.314 169.964 207.936 170.375 207.441 170.664C206.947 170.953 206.377 171.098 205.733 171.098ZM205.733 170.16C206.405 170.16 206.919 169.941 207.273 169.502C207.637 169.054 207.819 168.405 207.819 167.556C207.819 166.725 207.637 166.086 207.273 165.638C206.909 165.181 206.396 164.952 205.733 164.952C205.071 164.952 204.557 165.181 204.193 165.638C203.829 166.086 203.647 166.725 203.647 167.556C203.647 168.396 203.825 169.04 204.179 169.488C204.543 169.936 205.061 170.16 205.733 170.16ZM213.499 171.098C212.855 171.098 212.286 170.953 211.791 170.664C211.306 170.375 210.928 169.964 210.657 169.432C210.396 168.891 210.265 168.265 210.265 167.556C210.265 166.847 210.396 166.226 210.657 165.694C210.928 165.153 211.306 164.737 211.791 164.448C212.286 164.159 212.855 164.014 213.499 164.014C214.143 164.014 214.712 164.159 215.207 164.448C215.702 164.737 216.08 165.153 216.341 165.694C216.612 166.226 216.747 166.847 216.747 167.556C216.747 168.265 216.612 168.891 216.341 169.432C216.08 169.964 215.702 170.375 215.207 170.664C214.712 170.953 214.143 171.098 213.499 171.098ZM213.499 170.16C214.171 170.16 214.684 169.941 215.039 169.502C215.403 169.054 215.585 168.405 215.585 167.556C215.585 166.725 215.403 166.086 215.039 165.638C214.675 165.181 214.162 164.952 213.499 164.952C212.836 164.952 212.323 165.181 211.959 165.638C211.595 166.086 211.413 166.725 211.413 167.556C211.413 168.396 211.59 169.04 211.945 169.488C212.309 169.936 212.827 170.16 213.499 170.16ZM224.513 171H223.043L219.571 167.738V171H218.437V161.13H219.571V167.276L222.749 164.196H224.191L220.803 167.458L224.513 171Z" fill="black"/>
<path d="M214 128C214 116.954 205.046 108 194 108C182.954 108 174 116.954 174 128C174 137.982 181.314 146.257 190.875 147.757V133.781H185.797V128H190.875V123.594C190.875 118.581 193.861 115.813 198.429 115.813C200.618 115.813 202.906 116.203 202.906 116.203V121.125H200.384C197.9 121.125 197.125 122.667 197.125 124.248V128H202.672L201.785 133.781H197.125V147.757C206.686 146.257 214 137.982 214 128Z" fill="#1877F2"/>
<path d="M201.785 133.781L202.672 128H197.125V124.248C197.125 122.667 197.9 121.125 200.384 121.125H202.906V116.203C202.906 116.203 200.618 115.812 198.429 115.812C193.861 115.812 190.875 118.581 190.875 123.594V128H185.797V133.781H190.875V147.757C191.893 147.917 192.937 148 194 148C195.063 148 196.107 147.917 197.125 147.757V133.781H201.785Z" fill="white"/>
<path d="M26.3586 279V269.13H27.5066V278.02H32.4486V279H26.3586ZM33.7512 279V272.182H34.8852V279H33.7512ZM33.6392 269.228H35.0112V270.502H33.6392V269.228ZM40.4351 272.014C42.0684 272.014 42.8851 272.915 42.8851 274.716V279H41.7511V274.786C41.7511 274.151 41.6251 273.689 41.3731 273.4C41.1304 273.111 40.7384 272.966 40.1971 272.966C39.5717 272.966 39.0724 273.157 38.6991 273.54C38.3257 273.923 38.1391 274.441 38.1391 275.094V279H37.0051V272.182H38.1251V273.302C38.3491 272.882 38.6617 272.565 39.0631 272.35C39.4644 272.126 39.9217 272.014 40.4351 272.014ZM51.0381 279H49.5681L46.0961 275.738V279H44.9621V269.13H46.0961V275.276L49.2741 272.196H50.7161L47.3281 275.458L51.0381 279ZM57.5511 275.766H52.5671C52.6044 276.559 52.8191 277.161 53.2111 277.572C53.6031 277.973 54.1584 278.174 54.8771 278.174C55.6704 278.174 56.3984 277.903 57.0611 277.362L57.4391 278.188C57.1404 278.468 56.7577 278.692 56.2911 278.86C55.8244 279.019 55.3484 279.098 54.8631 279.098C53.7991 279.098 52.9591 278.785 52.3431 278.16C51.7364 277.535 51.4331 276.671 51.4331 275.57C51.4331 274.87 51.5684 274.254 51.8391 273.722C52.1097 273.181 52.4877 272.761 52.9731 272.462C53.4677 272.163 54.0277 272.014 54.6531 272.014C55.5584 272.014 56.2677 272.313 56.7811 272.91C57.2944 273.498 57.5511 274.31 57.5511 275.346V275.766ZM54.6671 272.896C54.0697 272.896 53.5891 273.083 53.2251 273.456C52.8704 273.829 52.6604 274.357 52.5951 275.038H56.5571C56.5384 274.347 56.3657 273.82 56.0391 273.456C55.7124 273.083 55.2551 272.896 54.6671 272.896ZM65.2699 269.13V279H64.1359V277.754C63.9305 278.183 63.6272 278.515 63.2259 278.748C62.8339 278.981 62.3719 279.098 61.8399 279.098C61.2425 279.098 60.7152 278.949 60.2579 278.65C59.8005 278.351 59.4459 277.936 59.1939 277.404C58.9419 276.863 58.8159 276.237 58.8159 275.528C58.8159 274.828 58.9419 274.212 59.1939 273.68C59.4459 273.148 59.8005 272.737 60.2579 272.448C60.7152 272.159 61.2425 272.014 61.8399 272.014C62.3719 272.014 62.8339 272.131 63.2259 272.364C63.6272 272.597 63.9305 272.929 64.1359 273.358V269.13H65.2699ZM62.0639 278.16C62.7265 278.16 63.2352 277.936 63.5899 277.488C63.9539 277.031 64.1359 276.387 64.1359 275.556C64.1359 274.725 63.9539 274.086 63.5899 273.638C63.2352 273.19 62.7265 272.966 62.0639 272.966C61.4012 272.966 60.8832 273.19 60.5099 273.638C60.1459 274.086 59.9639 274.716 59.9639 275.528C59.9639 276.359 60.1459 277.007 60.5099 277.474C60.8832 277.931 61.4012 278.16 62.0639 278.16ZM67.5383 279V269.13H68.6863V279H67.5383ZM74.3823 272.014C76.0157 272.014 76.8323 272.915 76.8323 274.716V279H75.6983V274.786C75.6983 274.151 75.5723 273.689 75.3203 273.4C75.0777 273.111 74.6857 272.966 74.1443 272.966C73.519 272.966 73.0197 273.157 72.6463 273.54C72.273 273.923 72.0863 274.441 72.0863 275.094V279H70.9523V272.182H72.0723V273.302C72.2963 272.882 72.609 272.565 73.0103 272.35C73.4117 272.126 73.869 272.014 74.3823 272.014Z" fill="black"/>
<g clip-path="url(#clip1_1570_3106)">
<path d="M72 218.917V253.083C72 253.857 71.6927 254.599 71.1457 255.146C70.5987 255.693 69.8569 256 69.0833 256H34.9167C34.1431 256 33.4013 255.693 32.8543 255.146C32.3073 254.599 32 253.857 32 253.083V218.917C32 218.143 32.3073 217.401 32.8543 216.854C33.4013 216.307 34.1431 216 34.9167 216H69.0833C69.8569 216 70.5987 216.307 71.1457 216.854C71.6927 217.401 72 218.143 72 218.917ZM43.6667 231H37.8333V250.167H43.6667V231ZM44.1667 224.75C44.1749 224.074 43.9825 223.411 43.6139 222.845C43.2454 222.279 42.7171 221.834 42.096 221.568C41.4749 221.302 40.7888 221.226 40.1245 221.35C39.4602 221.473 38.8476 221.791 38.3639 222.263C37.8803 222.735 37.5475 223.34 37.4076 224.001C37.2677 224.662 37.327 225.35 37.5779 225.977C37.8288 226.605 38.2602 227.144 38.8174 227.526C39.3746 227.908 40.0326 228.117 40.7083 228.125H40.75C41.1878 228.136 41.6234 228.061 42.0321 227.903C42.4408 227.746 42.8144 227.51 43.1317 227.208C43.449 226.906 43.7037 226.545 43.8813 226.144C44.0589 225.744 44.1559 225.313 44.1667 224.875V224.75ZM66.1667 238.683C66.1667 232.85 62.3083 230.583 58.9583 230.583C55.6083 230.583 53.125 232.533 52.575 233.708H52.5V231H47V250.167H52.8333V240.167C52.8333 237.092 54.925 235.725 56.9583 235.725C58.625 235.725 60.3333 237.008 60.3333 240.092V250.167H66.1667V238.683Z" fill="#0A66C2"/>
</g>
<path d="M173.756 269.13H174.876L171.432 279H170.452L167.638 270.922L164.824 279H163.858L160.399 269.13H161.562L164.362 277.376L167.232 269.13L168.1 269.144L170.928 277.39L173.756 269.13ZM178.444 279.098C177.8 279.098 177.231 278.953 176.736 278.664C176.251 278.375 175.873 277.964 175.602 277.432C175.341 276.891 175.21 276.265 175.21 275.556C175.21 274.847 175.341 274.226 175.602 273.694C175.873 273.153 176.251 272.737 176.736 272.448C177.231 272.159 177.8 272.014 178.444 272.014C179.088 272.014 179.658 272.159 180.152 272.448C180.647 272.737 181.025 273.153 181.286 273.694C181.557 274.226 181.692 274.847 181.692 275.556C181.692 276.265 181.557 276.891 181.286 277.432C181.025 277.964 180.647 278.375 180.152 278.664C179.658 278.953 179.088 279.098 178.444 279.098ZM178.444 278.16C179.116 278.16 179.63 277.941 179.984 277.502C180.348 277.054 180.53 276.405 180.53 275.556C180.53 274.725 180.348 274.086 179.984 273.638C179.62 273.181 179.107 272.952 178.444 272.952C177.782 272.952 177.268 273.181 176.904 273.638C176.54 274.086 176.358 274.725 176.358 275.556C176.358 276.396 176.536 277.04 176.89 277.488C177.254 277.936 177.772 278.16 178.444 278.16ZM187.246 272.994L186.504 273.064C185.804 273.129 185.295 273.349 184.978 273.722C184.67 274.095 184.516 274.557 184.516 275.108V279H183.382V272.182H184.488V273.372C184.871 272.579 185.622 272.135 186.742 272.042L187.148 272.014L187.246 272.994ZM194.229 269.13V279H193.095V277.754C192.89 278.183 192.586 278.515 192.185 278.748C191.793 278.981 191.331 279.098 190.799 279.098C190.202 279.098 189.674 278.949 189.217 278.65C188.76 278.351 188.405 277.936 188.153 277.404C187.901 276.863 187.775 276.237 187.775 275.528C187.775 274.828 187.901 274.212 188.153 273.68C188.405 273.148 188.76 272.737 189.217 272.448C189.674 272.159 190.202 272.014 190.799 272.014C191.331 272.014 191.793 272.131 192.185 272.364C192.586 272.597 192.89 272.929 193.095 273.358V269.13H194.229ZM191.023 278.16C191.686 278.16 192.194 277.936 192.549 277.488C192.913 277.031 193.095 276.387 193.095 275.556C193.095 274.725 192.913 274.086 192.549 273.638C192.194 273.19 191.686 272.966 191.023 272.966C190.36 272.966 189.842 273.19 189.469 273.638C189.105 274.086 188.923 274.716 188.923 275.528C188.923 276.359 189.105 277.007 189.469 277.474C189.842 277.931 190.36 278.16 191.023 278.16ZM199.759 272.014C200.357 272.014 200.884 272.163 201.341 272.462C201.799 272.761 202.153 273.181 202.405 273.722C202.657 274.254 202.783 274.875 202.783 275.584C202.783 276.293 202.657 276.914 202.405 277.446C202.153 277.969 201.799 278.375 201.341 278.664C200.893 278.953 200.366 279.098 199.759 279.098C199.227 279.098 198.761 278.981 198.359 278.748C197.967 278.515 197.669 278.183 197.463 277.754V281.52H196.329V272.182H197.463V273.358C197.669 272.929 197.967 272.597 198.359 272.364C198.761 272.131 199.227 272.014 199.759 272.014ZM199.535 278.16C200.198 278.16 200.711 277.936 201.075 277.488C201.439 277.04 201.621 276.405 201.621 275.584C201.621 274.763 201.439 274.123 201.075 273.666C200.711 273.199 200.198 272.966 199.535 272.966C198.873 272.966 198.359 273.19 197.995 273.638C197.641 274.086 197.463 274.725 197.463 275.556C197.463 276.387 197.641 277.031 197.995 277.488C198.359 277.936 198.873 278.16 199.535 278.16ZM208.342 272.994L207.6 273.064C206.9 273.129 206.391 273.349 206.074 273.722C205.766 274.095 205.612 274.557 205.612 275.108V279H204.478V272.182H205.584V273.372C205.966 272.579 206.718 272.135 207.838 272.042L208.244 272.014L208.342 272.994ZM214.989 275.766H210.005C210.042 276.559 210.257 277.161 210.649 277.572C211.041 277.973 211.596 278.174 212.315 278.174C213.108 278.174 213.836 277.903 214.499 277.362L214.877 278.188C214.578 278.468 214.195 278.692 213.729 278.86C213.262 279.019 212.786 279.098 212.301 279.098C211.237 279.098 210.397 278.785 209.781 278.16C209.174 277.535 208.871 276.671 208.871 275.57C208.871 274.87 209.006 274.254 209.277 273.722C209.547 273.181 209.925 272.761 210.411 272.462C210.905 272.163 211.465 272.014 212.091 272.014C212.996 272.014 213.705 272.313 214.219 272.91C214.732 273.498 214.989 274.31 214.989 275.346V275.766ZM212.105 272.896C211.507 272.896 211.027 273.083 210.663 273.456C210.308 273.829 210.098 274.357 210.033 275.038H213.995C213.976 274.347 213.803 273.82 213.477 273.456C213.15 273.083 212.693 272.896 212.105 272.896ZM218.969 279.098C217.821 279.098 216.911 278.804 216.239 278.216L216.617 277.376C216.981 277.665 217.35 277.875 217.723 278.006C218.106 278.127 218.535 278.188 219.011 278.188C219.515 278.188 219.898 278.104 220.159 277.936C220.43 277.759 220.565 277.507 220.565 277.18C220.565 276.909 220.477 276.695 220.299 276.536C220.122 276.377 219.828 276.251 219.417 276.158L218.269 275.892C217.691 275.761 217.247 275.537 216.939 275.22C216.631 274.903 216.477 274.511 216.477 274.044C216.477 273.437 216.715 272.947 217.191 272.574C217.667 272.201 218.302 272.014 219.095 272.014C219.571 272.014 220.024 272.093 220.453 272.252C220.883 272.401 221.242 272.621 221.531 272.91L221.153 273.736C220.528 273.204 219.842 272.938 219.095 272.938C218.619 272.938 218.246 273.031 217.975 273.218C217.714 273.395 217.583 273.647 217.583 273.974C217.583 274.245 217.663 274.464 217.821 274.632C217.989 274.791 218.255 274.912 218.619 274.996L219.781 275.276C220.416 275.425 220.887 275.654 221.195 275.962C221.503 276.261 221.657 276.653 221.657 277.138C221.657 277.735 221.415 278.211 220.929 278.566C220.453 278.921 219.8 279.098 218.969 279.098ZM225.696 279.098C224.548 279.098 223.638 278.804 222.966 278.216L223.344 277.376C223.708 277.665 224.077 277.875 224.45 278.006C224.833 278.127 225.262 278.188 225.738 278.188C226.242 278.188 226.625 278.104 226.886 277.936C227.157 277.759 227.292 277.507 227.292 277.18C227.292 276.909 227.203 276.695 227.026 276.536C226.849 276.377 226.555 276.251 226.144 276.158L224.996 275.892C224.417 275.761 223.974 275.537 223.666 275.22C223.358 274.903 223.204 274.511 223.204 274.044C223.204 273.437 223.442 272.947 223.918 272.574C224.394 272.201 225.029 272.014 225.822 272.014C226.298 272.014 226.751 272.093 227.18 272.252C227.609 272.401 227.969 272.621 228.258 272.91L227.88 273.736C227.255 273.204 226.569 272.938 225.822 272.938C225.346 272.938 224.973 273.031 224.702 273.218C224.441 273.395 224.31 273.647 224.31 273.974C224.31 274.245 224.389 274.464 224.548 274.632C224.716 274.791 224.982 274.912 225.346 274.996L226.508 275.276C227.143 275.425 227.614 275.654 227.922 275.962C228.23 276.261 228.384 276.653 228.384 277.138C228.384 277.735 228.141 278.211 227.656 278.566C227.18 278.921 226.527 279.098 225.696 279.098Z" fill="black"/>
<g clip-path="url(#clip2_1570_3106)">
<path d="M173.843 236C173.843 242.791 177.789 248.661 183.512 251.442L175.328 229.017C174.376 231.151 173.843 233.513 173.843 236ZM202.582 235.134C202.582 233.014 201.82 231.545 201.167 230.402C200.297 228.989 199.482 227.792 199.482 226.379C199.482 224.802 200.678 223.333 202.363 223.333C202.439 223.333 202.511 223.343 202.585 223.347C199.533 220.55 195.466 218.843 191 218.843C185.006 218.843 179.732 221.918 176.665 226.577C177.067 226.589 177.447 226.597 177.769 226.597C179.563 226.597 182.341 226.379 182.341 226.379C183.266 226.325 183.375 227.683 182.451 227.793C182.451 227.793 181.522 227.902 180.488 227.956L186.735 246.541L190.49 235.28L187.817 227.956C186.893 227.901 186.018 227.792 186.018 227.792C185.093 227.738 185.202 226.324 186.126 226.379C186.126 226.379 188.959 226.597 190.645 226.597C192.44 226.597 195.218 226.379 195.218 226.379C196.143 226.324 196.252 227.683 195.328 227.792C195.328 227.792 194.396 227.901 193.364 227.956L199.564 246.4L201.275 240.681C202.017 238.308 202.582 236.603 202.582 235.134ZM191.301 237.501L186.153 252.46C187.69 252.912 189.315 253.159 191 253.159C192.997 253.159 194.913 252.813 196.697 252.186C196.651 252.113 196.609 252.035 196.575 251.95L191.301 237.501ZM206.054 227.768C206.128 228.315 206.169 228.901 206.169 229.533C206.169 231.274 205.844 233.231 204.865 235.678L199.624 250.831C204.725 247.856 208.156 242.33 208.156 236C208.156 233.017 207.394 230.212 206.054 227.768ZM191 216C179.972 216 171 224.972 171 236C171 247.03 179.972 256.001 191 256.001C202.027 256.001 211 247.03 211 236C211 224.972 202.027 216 191 216ZM191 255.084C180.478 255.084 171.917 246.523 171.917 236C171.917 225.478 180.477 216.917 191 216.917C201.521 216.917 210.081 225.478 210.081 236C210.081 246.523 201.521 255.084 191 255.084Z" fill="#464342"/>
</g>
<path d="M33.4075 377.13H34.5415V387H33.4075V382.478H27.4995V387H26.3655V377.13H27.4995V381.498H33.4075V377.13ZM39.6348 387.098C38.9908 387.098 38.4215 386.953 37.9268 386.664C37.4415 386.375 37.0635 385.964 36.7928 385.432C36.5315 384.891 36.4008 384.265 36.4008 383.556C36.4008 382.847 36.5315 382.226 36.7928 381.694C37.0635 381.153 37.4415 380.737 37.9268 380.448C38.4215 380.159 38.9908 380.014 39.6348 380.014C40.2788 380.014 40.8482 380.159 41.3428 380.448C41.8375 380.737 42.2155 381.153 42.4768 381.694C42.7475 382.226 42.8828 382.847 42.8828 383.556C42.8828 384.265 42.7475 384.891 42.4768 385.432C42.2155 385.964 41.8375 386.375 41.3428 386.664C40.8482 386.953 40.2788 387.098 39.6348 387.098ZM39.6348 386.16C40.3068 386.16 40.8202 385.941 41.1748 385.502C41.5388 385.054 41.7208 384.405 41.7208 383.556C41.7208 382.725 41.5388 382.086 41.1748 381.638C40.8108 381.181 40.2975 380.952 39.6348 380.952C38.9722 380.952 38.4588 381.181 38.0948 381.638C37.7308 382.086 37.5488 382.725 37.5488 383.556C37.5488 384.396 37.7262 385.04 38.0808 385.488C38.4448 385.936 38.9628 386.16 39.6348 386.16ZM47.5548 386.188C47.7601 386.188 47.9655 386.174 48.1708 386.146L48.1148 387.042C47.9001 387.079 47.6668 387.098 47.4148 387.098C46.5935 387.098 45.9728 386.883 45.5528 386.454C45.1421 386.025 44.9368 385.427 44.9368 384.662V381.078H43.6068V380.182H44.9368V378.11H46.0708V380.182H48.0028V381.078H46.0708V384.578C46.0708 385.651 46.5655 386.188 47.5548 386.188ZM56.9046 380.014C58.4166 380.014 59.1726 380.915 59.1726 382.716V387H58.0386V382.772C58.0386 382.147 57.9266 381.689 57.7026 381.4C57.4879 381.111 57.1379 380.966 56.6526 380.966C56.0833 380.966 55.6353 381.157 55.3086 381.54C54.9819 381.923 54.8186 382.445 54.8186 383.108V387H53.6846V382.772C53.6846 382.137 53.5726 381.68 53.3486 381.4C53.1246 381.111 52.7699 380.966 52.2846 380.966C51.7153 380.966 51.2673 381.157 50.9406 381.54C50.6139 381.923 50.4506 382.445 50.4506 383.108V387H49.3166V380.182H50.4366V381.26C50.6419 380.859 50.9266 380.551 51.2906 380.336C51.6546 380.121 52.0746 380.014 52.5506 380.014C53.6053 380.014 54.3006 380.462 54.6366 381.358C54.8326 380.938 55.1313 380.611 55.5326 380.378C55.9339 380.135 56.3913 380.014 56.9046 380.014ZM64.0105 380.014C64.8785 380.014 65.5225 380.238 65.9425 380.686C66.3718 381.125 66.5865 381.797 66.5865 382.702V387H65.4805V385.838C65.3031 386.239 65.0325 386.552 64.6685 386.776C64.3045 386.991 63.8845 387.098 63.4085 387.098C62.9698 387.098 62.5638 387.009 62.1905 386.832C61.8265 386.655 61.5371 386.407 61.3225 386.09C61.1078 385.773 61.0005 385.423 61.0005 385.04C61.0005 384.527 61.1311 384.13 61.3925 383.85C61.6538 383.561 62.0831 383.355 62.6805 383.234C63.2778 383.103 64.1085 383.038 65.1725 383.038H65.4805V382.576C65.4805 382.007 65.3638 381.596 65.1305 381.344C64.8971 381.083 64.5191 380.952 63.9965 380.952C63.2125 380.952 62.4331 381.195 61.6585 381.68L61.2805 380.854C61.6351 380.602 62.0598 380.401 62.5545 380.252C63.0585 380.093 63.5438 380.014 64.0105 380.014ZM63.5625 386.202C64.1225 386.202 64.5798 386.015 64.9345 385.642C65.2985 385.259 65.4805 384.769 65.4805 384.172V383.766H65.2285C64.4071 383.766 63.7818 383.803 63.3525 383.878C62.9231 383.943 62.6151 384.06 62.4285 384.228C62.2511 384.387 62.1625 384.625 62.1625 384.942C62.1625 385.306 62.2931 385.609 62.5545 385.852C62.8251 386.085 63.1611 386.202 63.5625 386.202ZM72.5263 380.994L71.7843 381.064C71.0843 381.129 70.5756 381.349 70.2583 381.722C69.9503 382.095 69.7963 382.557 69.7963 383.108V387H68.6623V380.182H69.7683V381.372C70.151 380.579 70.9023 380.135 72.0223 380.042L72.4283 380.014L72.5263 380.994ZM77.1407 386.188C77.3461 386.188 77.5514 386.174 77.7567 386.146L77.7007 387.042C77.4861 387.079 77.2527 387.098 77.0007 387.098C76.1794 387.098 75.5587 386.883 75.1387 386.454C74.7281 386.025 74.5227 385.427 74.5227 384.662V381.078H73.1927V380.182H74.5227V378.11H75.6567V380.182H77.5887V381.078H75.6567V384.578C75.6567 385.651 76.1514 386.188 77.1407 386.188Z" fill="black"/>
<g clip-path="url(#clip3_1570_3106)">
<path d="M66.1468 349.513C66.3424 345.948 65.1035 340.115 62.1041 335.319C62.0389 335.189 61.8759 335.254 61.9085 335.383C62.1041 336.096 62.1693 337.425 60.9956 337.36C58.9417 337.231 61.0608 332.823 56.5291 329.809C56.4313 329.744 56.3335 329.842 56.3661 329.939C56.6922 330.522 56.8552 332.369 56.1379 332.985C55.5511 333.471 54.5078 333.342 53.4972 331.689C51.8018 328.934 52.4539 326.018 53.595 324.17C53.6928 324.041 53.5624 323.976 53.4645 324.008C47.2375 326.05 45.9987 333.342 44.662 335.999C44.4338 336.453 44.2382 336.68 43.8795 336.647C42.7385 336.582 43.5535 334.152 43.9447 333.342C44.0099 333.212 43.8795 333.147 43.7817 333.244C40.5867 336.55 37.6851 342.221 37.1309 347.472C37.1635 347.342 37.0657 347.893 37.0331 348.314C37.0331 348.476 37.0005 348.638 37.0005 348.8V349.384C36.9353 357.388 43.3905 363.902 51.4432 364C59.4959 364.064 66.049 357.648 66.1468 349.643V349.513ZM51.5084 356.222C47.7918 356.189 44.7924 353.175 44.825 349.448C44.8576 345.722 47.8896 342.772 51.6388 342.805C55.3881 342.837 58.3549 345.851 58.3223 349.578C58.2897 353.305 55.2577 356.254 51.5084 356.222Z" fill="#F04E23"/>
</g>
<path d="M161.149 377.13H165.055C166.091 377.13 166.893 377.382 167.463 377.886C168.041 378.39 168.331 379.104 168.331 380.028C168.331 380.952 168.041 381.671 167.463 382.184C166.884 382.697 166.081 382.954 165.055 382.954H162.297V387H161.149V377.13ZM164.943 382.002C166.445 382.002 167.197 381.344 167.197 380.028C167.197 378.731 166.445 378.082 164.943 378.082H162.297V382.002H164.943ZM172.626 380.014C173.494 380.014 174.138 380.238 174.558 380.686C174.987 381.125 175.202 381.797 175.202 382.702V387H174.096V385.838C173.918 386.239 173.648 386.552 173.284 386.776C172.92 386.991 172.5 387.098 172.024 387.098C171.585 387.098 171.179 387.009 170.806 386.832C170.442 386.655 170.152 386.407 169.938 386.09C169.723 385.773 169.616 385.423 169.616 385.04C169.616 384.527 169.746 384.13 170.008 383.85C170.269 383.561 170.698 383.355 171.296 383.234C171.893 383.103 172.724 383.038 173.788 383.038H174.096V382.576C174.096 382.007 173.979 381.596 173.746 381.344C173.512 381.083 173.134 380.952 172.612 380.952C171.828 380.952 171.048 381.195 170.274 381.68L169.896 380.854C170.25 380.602 170.675 380.401 171.17 380.252C171.674 380.093 172.159 380.014 172.626 380.014ZM172.178 386.202C172.738 386.202 173.195 386.015 173.55 385.642C173.914 385.259 174.096 384.769 174.096 384.172V383.766H173.844C173.022 383.766 172.397 383.803 171.968 383.878C171.538 383.943 171.23 384.06 171.044 384.228C170.866 384.387 170.778 384.625 170.778 384.942C170.778 385.306 170.908 385.609 171.17 385.852C171.44 386.085 171.776 386.202 172.178 386.202ZM183.382 380.182V386.538C183.382 387.555 183.12 388.321 182.598 388.834C182.075 389.357 181.3 389.618 180.274 389.618C179.079 389.618 178.076 389.31 177.264 388.694L177.642 387.854C178.099 388.153 178.528 388.367 178.93 388.498C179.331 388.629 179.779 388.694 180.274 388.694C180.927 388.694 181.422 388.517 181.758 388.162C182.094 387.817 182.262 387.308 182.262 386.636V385.432C182.066 385.871 181.762 386.207 181.352 386.44C180.95 386.673 180.474 386.79 179.924 386.79C179.326 386.79 178.794 386.65 178.328 386.37C177.87 386.09 177.511 385.693 177.25 385.18C176.998 384.667 176.872 384.074 176.872 383.402C176.872 382.73 176.998 382.137 177.25 381.624C177.511 381.111 177.87 380.714 178.328 380.434C178.794 380.154 179.326 380.014 179.924 380.014C180.465 380.014 180.936 380.131 181.338 380.364C181.739 380.597 182.042 380.929 182.248 381.358V380.182H183.382ZM180.148 385.852C180.801 385.852 181.314 385.637 181.688 385.208C182.061 384.769 182.248 384.167 182.248 383.402C182.248 382.646 182.061 382.053 181.688 381.624C181.324 381.185 180.81 380.966 180.148 380.966C179.485 380.966 178.962 381.185 178.58 381.624C178.206 382.053 178.02 382.646 178.02 383.402C178.02 384.167 178.206 384.769 178.58 385.208C178.962 385.637 179.485 385.852 180.148 385.852ZM188.785 387.112C187.245 387.112 186.013 386.697 185.089 385.866L185.537 384.984C186.022 385.395 186.517 385.689 187.021 385.866C187.534 386.043 188.127 386.132 188.799 386.132C189.592 386.132 190.203 385.978 190.633 385.67C191.062 385.362 191.277 384.928 191.277 384.368C191.277 384.041 191.174 383.775 190.969 383.57C190.763 383.365 190.493 383.201 190.157 383.08C189.821 382.959 189.368 382.833 188.799 382.702C188.033 382.525 187.403 382.338 186.909 382.142C186.423 381.946 186.027 381.666 185.719 381.302C185.42 380.938 185.271 380.462 185.271 379.874C185.271 379.314 185.415 378.819 185.705 378.39C186.003 377.951 186.423 377.615 186.965 377.382C187.515 377.139 188.15 377.018 188.869 377.018C189.55 377.018 190.185 377.125 190.773 377.34C191.37 377.555 191.874 377.863 192.285 378.264L191.851 379.146C191.384 378.745 190.908 378.455 190.423 378.278C189.947 378.091 189.429 377.998 188.869 377.998C188.103 377.998 187.501 378.161 187.063 378.488C186.633 378.805 186.419 379.253 186.419 379.832C186.419 380.327 186.61 380.7 186.993 380.952C187.375 381.204 187.954 381.419 188.729 381.596C189.578 381.801 190.245 381.993 190.731 382.17C191.216 382.338 191.617 382.595 191.935 382.94C192.261 383.285 192.425 383.747 192.425 384.326C192.425 384.886 192.275 385.376 191.977 385.796C191.687 386.216 191.267 386.543 190.717 386.776C190.166 387 189.522 387.112 188.785 387.112ZM199.833 383.766H194.849C194.887 384.559 195.101 385.161 195.493 385.572C195.885 385.973 196.441 386.174 197.159 386.174C197.953 386.174 198.681 385.903 199.343 385.362L199.721 386.188C199.423 386.468 199.04 386.692 198.573 386.86C198.107 387.019 197.631 387.098 197.145 387.098C196.081 387.098 195.241 386.785 194.625 386.16C194.019 385.535 193.715 384.671 193.715 383.57C193.715 382.87 193.851 382.254 194.121 381.722C194.392 381.181 194.77 380.761 195.255 380.462C195.75 380.163 196.31 380.014 196.935 380.014C197.841 380.014 198.55 380.313 199.063 380.91C199.577 381.498 199.833 382.31 199.833 383.346V383.766ZM196.949 380.896C196.352 380.896 195.871 381.083 195.507 381.456C195.153 381.829 194.943 382.357 194.877 383.038H198.839C198.821 382.347 198.648 381.82 198.321 381.456C197.995 381.083 197.537 380.896 196.949 380.896ZM207.608 380.182V386.538C207.608 387.555 207.347 388.321 206.824 388.834C206.301 389.357 205.527 389.618 204.5 389.618C203.305 389.618 202.302 389.31 201.49 388.694L201.868 387.854C202.325 388.153 202.755 388.367 203.156 388.498C203.557 388.629 204.005 388.694 204.5 388.694C205.153 388.694 205.648 388.517 205.984 388.162C206.32 387.817 206.488 387.308 206.488 386.636V385.432C206.292 385.871 205.989 386.207 205.578 386.44C205.177 386.673 204.701 386.79 204.15 386.79C203.553 386.79 203.021 386.65 202.554 386.37C202.097 386.09 201.737 385.693 201.476 385.18C201.224 384.667 201.098 384.074 201.098 383.402C201.098 382.73 201.224 382.137 201.476 381.624C201.737 381.111 202.097 380.714 202.554 380.434C203.021 380.154 203.553 380.014 204.15 380.014C204.691 380.014 205.163 380.131 205.564 380.364C205.965 380.597 206.269 380.929 206.474 381.358V380.182H207.608ZM204.374 385.852C205.027 385.852 205.541 385.637 205.914 385.208C206.287 384.769 206.474 384.167 206.474 383.402C206.474 382.646 206.287 382.053 205.914 381.624C205.55 381.185 205.037 380.966 204.374 380.966C203.711 380.966 203.189 381.185 202.806 381.624C202.433 382.053 202.246 382.646 202.246 383.402C202.246 384.167 202.433 384.769 202.806 385.208C203.189 385.637 203.711 385.852 204.374 385.852ZM215.447 380.182V387H214.341V385.838C214.127 386.249 213.823 386.561 213.431 386.776C213.049 386.991 212.615 387.098 212.129 387.098C211.317 387.098 210.706 386.874 210.295 386.426C209.885 385.969 209.679 385.297 209.679 384.41V380.182H210.813V384.382C210.813 384.989 210.935 385.437 211.177 385.726C211.42 386.006 211.803 386.146 212.325 386.146C212.923 386.146 213.403 385.955 213.767 385.572C214.131 385.18 214.313 384.667 214.313 384.032V380.182H215.447ZM221.419 380.994L220.677 381.064C219.977 381.129 219.468 381.349 219.151 381.722C218.843 382.095 218.689 382.557 218.689 383.108V387H217.555V380.182H218.661V381.372C219.044 380.579 219.795 380.135 220.915 380.042L221.321 380.014L221.419 380.994ZM225.182 387.098C224.538 387.098 223.968 386.953 223.474 386.664C222.988 386.375 222.61 385.964 222.34 385.432C222.078 384.891 221.948 384.265 221.948 383.556C221.948 382.847 222.078 382.226 222.34 381.694C222.61 381.153 222.988 380.737 223.474 380.448C223.968 380.159 224.538 380.014 225.182 380.014C225.826 380.014 226.395 380.159 226.89 380.448C227.384 380.737 227.762 381.153 228.024 381.694C228.294 382.226 228.43 382.847 228.43 383.556C228.43 384.265 228.294 384.891 228.024 385.432C227.762 385.964 227.384 386.375 226.89 386.664C226.395 386.953 225.826 387.098 225.182 387.098ZM225.182 386.16C225.854 386.16 226.367 385.941 226.722 385.502C227.086 385.054 227.268 384.405 227.268 383.556C227.268 382.725 227.086 382.086 226.722 381.638C226.358 381.181 225.844 380.952 225.182 380.952C224.519 380.952 224.006 381.181 223.642 381.638C223.278 382.086 223.096 382.725 223.096 383.556C223.096 384.396 223.273 385.04 223.628 385.488C223.992 385.936 224.51 386.16 225.182 386.16Z" fill="black"/>
<g clip-path="url(#clip4_1570_3106)">
<path fill-rule="evenodd" clip-rule="evenodd" d="M179.736 331.082C178.253 332.817 177.136 334.791 176.316 336.953C175.458 339.198 175 341.506 175 343.968C175 346.756 175.597 349.342 176.625 351.782C177.648 354.205 179.047 356.287 180.887 358.118C182.677 359.901 184.776 361.328 187.203 362.365C189.629 363.419 192.264 364 194.999 364C197.78 364 200.373 363.444 202.843 362.365C205.205 361.339 207.336 359.935 209.159 358.118C210.962 356.316 212.354 354.192 213.354 351.782C214.405 349.315 215 346.756 215 343.968C215 341.506 214.538 339.198 213.682 336.953C212.844 334.793 211.736 332.86 210.264 331.082C208.79 329.342 207.085 327.901 205.153 326.788C202.118 325.044 198.986 324 195.358 324C195.182 324 195.01 324 194.839 324C191.256 324 187.976 325.021 184.891 326.788C182.938 327.894 181.215 329.349 179.736 331.082Z" fill="#241F20"/>
<path fill-rule="evenodd" clip-rule="evenodd" d="M208.362 331.246C205.885 328.248 202.678 326.317 198.723 325.571C194.836 324.844 191.158 325.427 187.674 327.308C185.884 328.312 184.371 329.561 183.151 331.034C181.897 332.541 180.938 334.276 180.32 336.221C179.683 338.213 179.521 340.307 179.736 342.347C180.255 341.034 181.052 339.832 182 338.683C183.364 337.062 185.058 335.847 186.946 334.955C188.83 334.112 190.899 333.642 193.046 333.594C195.207 333.594 197.308 334.014 199.259 334.86C201.314 335.687 203.104 336.95 204.631 338.638C205.201 339.205 205.677 339.885 206.144 340.566C206.826 340.566 207.513 340.614 208.096 340.778C209.628 341.2 210.834 341.978 211.775 343.145L211.821 342.4C211.988 340.357 211.775 338.428 211.207 336.533C210.621 334.648 209.673 332.865 208.362 331.246Z" fill="#FFAA00"/>
<path fill-rule="evenodd" clip-rule="evenodd" d="M179.31 350.113C179.569 351.686 180.045 353.193 180.837 354.57C181.574 355.933 182.581 357.18 183.833 358.284L184.467 358.802C186.633 360.277 188.94 361.33 191.467 361.85C193.094 362.155 194.738 362.06 196.315 361.688C197.99 361.33 199.572 360.651 201.051 359.645C199.682 359.337 198.462 358.605 197.517 357.506L197.146 357.085C195.159 357.294 193.161 357.231 191.158 356.825C188.617 356.241 186.422 355.188 184.371 353.729C182.418 352.253 180.793 350.372 179.569 348.17L179.26 347.536C179.212 348.377 179.212 349.267 179.31 350.113Z" fill="#FFAA00"/>
<path fill-rule="evenodd" clip-rule="evenodd" d="M198.039 336.902C196.201 336.109 194.198 335.751 192.149 335.751C190.146 335.799 188.258 336.221 186.518 337.062C184.776 337.842 183.266 338.993 181.998 340.468C181.098 341.572 180.365 342.771 179.896 344.034C180.253 345.605 180.835 347.064 181.686 348.539C182.89 350.582 184.467 352.315 186.42 353.676C188.308 355.037 190.474 355.931 192.781 356.446C194.196 356.709 195.679 356.823 197.146 356.754C196.576 355.817 196.201 354.828 196.038 353.676C195.841 352.511 195.894 351.36 196.102 350.11C196.363 348.587 196.933 347.176 197.727 345.863C198.579 344.549 199.685 343.35 200.985 342.393C201.834 341.779 202.729 341.31 203.624 340.933L203.15 340.4C201.671 338.897 199.994 337.68 198.039 336.902Z" fill="#ED3921"/>
<path fill-rule="evenodd" clip-rule="evenodd" d="M212.1 345.865L211.631 345.071C210.944 347.438 209.673 349.531 208.048 351.426C207.673 352.997 207.039 354.408 206.21 355.721C205.361 357.016 204.253 358.183 202.987 359.173C203.882 359.221 204.777 359.077 205.675 358.751C206.517 358.443 207.3 357.974 208.096 357.34C209.156 356.353 210.15 355.185 210.994 353.986L211.138 353.776C211.514 352.997 211.889 352.205 212.146 351.473C212.409 350.68 212.571 349.903 212.622 349.175C212.67 348.377 212.67 347.696 212.523 347.016C212.411 346.597 212.249 346.223 212.1 345.865Z" fill="#FF8800"/>
<path fill-rule="evenodd" clip-rule="evenodd" d="M177.47 336.64C176.788 338.526 176.415 340.516 176.318 342.673C176.27 345.441 176.788 348.118 177.85 350.633C178.367 351.83 179.006 352.997 179.782 354.1C180.535 355.138 181.363 356.143 182.304 357.017C180.258 354.764 179.047 352.153 178.681 349.221C178.58 348.218 178.58 347.276 178.63 346.287C177.948 344.388 177.573 342.509 177.573 340.564C177.573 338.733 177.896 336.95 178.468 335.115C178.955 333.854 179.573 332.653 180.258 331.554C179.047 333.127 178.159 334.812 177.47 336.64Z" fill="#F66418"/>
<path fill-rule="evenodd" clip-rule="evenodd" d="M213.404 337.746C212.931 336.223 212.313 334.745 211.516 333.384C210.735 332.071 209.772 330.869 208.623 329.773C207.579 328.667 206.359 327.728 204.992 326.934C206.144 327.725 207.201 328.667 208.149 329.722C209.63 331.391 210.738 333.174 211.42 335.169C212.102 337.21 212.413 339.319 212.251 341.508C212.203 342.189 212.102 342.819 211.992 343.5C212.251 343.92 212.528 344.44 212.741 344.973C213.258 346.499 213.356 348.117 213.095 349.741C213.892 347.49 214.297 345.119 214.249 342.673C214.151 340.988 213.892 339.319 213.404 337.746Z" fill="#F66418"/>
<path fill-rule="evenodd" clip-rule="evenodd" d="M207.201 342.721C207.723 343.822 208.051 345.024 208.195 346.223C208.362 347.438 208.408 348.59 208.309 349.741L208.096 350.893C209.674 349.062 210.733 347.019 211.354 344.65C210.994 344.294 210.619 343.923 210.193 343.615C209.351 343.029 208.362 342.721 207.201 342.721Z" fill="#F66418"/>
<path fill-rule="evenodd" clip-rule="evenodd" d="M204.047 356.549C204.681 355.655 205.201 354.67 205.576 353.679C203.459 355.188 201.152 356.241 198.629 356.756C198.986 357.34 199.471 357.812 199.993 358.183C200.518 358.539 201.101 358.799 201.783 359.011C202.63 358.281 203.411 357.438 204.047 356.549Z" fill="#ED3921"/>
<path fill-rule="evenodd" clip-rule="evenodd" d="M193.465 362.155L195.731 362.267C197.684 362.221 199.517 361.847 201.312 361.263C202.988 360.696 204.629 359.902 206.048 358.913C205.151 359.335 204.205 359.643 203.2 359.69C202.889 359.754 202.514 359.754 202.157 359.754C199.575 361.428 196.672 362.221 193.465 362.155Z" fill="#ED3921"/>
<path fill-rule="evenodd" clip-rule="evenodd" d="M205.997 346.969C205.675 345.607 205.201 344.347 204.519 343.145C203.312 343.503 202.255 344.135 201.261 344.976C200.204 345.867 199.309 346.971 198.627 348.22C198.039 349.481 197.684 350.683 197.569 351.943C197.423 353.143 197.569 354.249 197.894 355.3C198.039 355.655 198.155 355.979 198.368 356.289C199.687 356.145 200.888 355.769 202.095 355.252C203.36 354.766 204.521 354.103 205.624 353.259L205.723 353.191C205.936 352.411 206.098 351.62 206.213 350.838C206.306 349.531 206.258 348.28 205.997 346.969Z" fill="#FFEC00"/>
</g>
<path d="M31.9829 495.112C30.4429 495.112 29.2109 494.697 28.2869 493.866L28.7349 492.984C29.2202 493.395 29.7149 493.689 30.2189 493.866C30.7322 494.043 31.3249 494.132 31.9969 494.132C32.7902 494.132 33.4016 493.978 33.8309 493.67C34.2602 493.362 34.4749 492.928 34.4749 492.368C34.4749 492.041 34.3722 491.775 34.1669 491.57C33.9616 491.365 33.6909 491.201 33.3549 491.08C33.0189 490.959 32.5662 490.833 31.9969 490.702C31.2316 490.525 30.6016 490.338 30.1069 490.142C29.6216 489.946 29.2249 489.666 28.9169 489.302C28.6182 488.938 28.4689 488.462 28.4689 487.874C28.4689 487.314 28.6136 486.819 28.9029 486.39C29.2016 485.951 29.6216 485.615 30.1629 485.382C30.7136 485.139 31.3482 485.018 32.0669 485.018C32.7482 485.018 33.3829 485.125 33.9709 485.34C34.5682 485.555 35.0722 485.863 35.4829 486.264L35.0489 487.146C34.5822 486.745 34.1062 486.455 33.6209 486.278C33.1449 486.091 32.6269 485.998 32.0669 485.998C31.3016 485.998 30.6996 486.161 30.2609 486.488C29.8316 486.805 29.6169 487.253 29.6169 487.832C29.6169 488.327 29.8082 488.7 30.1909 488.952C30.5736 489.204 31.1522 489.419 31.9269 489.596C32.7762 489.801 33.4436 489.993 33.9289 490.17C34.4142 490.338 34.8156 490.595 35.1329 490.94C35.4596 491.285 35.6229 491.747 35.6229 492.326C35.6229 492.886 35.4736 493.376 35.1749 493.796C34.8856 494.216 34.4656 494.543 33.9149 494.776C33.3642 495 32.7202 495.112 31.9829 495.112ZM40.7495 488.014C42.3829 488.014 43.1995 488.915 43.1995 490.716V495H42.0655V490.786C42.0655 490.151 41.9395 489.689 41.6875 489.4C41.4449 489.111 41.0529 488.966 40.5115 488.966C39.8862 488.966 39.3869 489.157 39.0135 489.54C38.6402 489.923 38.4535 490.441 38.4535 491.094V495H37.3195V485.13H38.4535V489.274C38.6775 488.863 38.9855 488.551 39.3775 488.336C39.7789 488.121 40.2362 488.014 40.7495 488.014ZM48.1046 495.098C47.4606 495.098 46.8912 494.953 46.3966 494.664C45.9112 494.375 45.5332 493.964 45.2626 493.432C45.0012 492.891 44.8706 492.265 44.8706 491.556C44.8706 490.847 45.0012 490.226 45.2626 489.694C45.5332 489.153 45.9112 488.737 46.3966 488.448C46.8912 488.159 47.4606 488.014 48.1046 488.014C48.7486 488.014 49.3179 488.159 49.8126 488.448C50.3072 488.737 50.6852 489.153 50.9466 489.694C51.2172 490.226 51.3526 490.847 51.3526 491.556C51.3526 492.265 51.2172 492.891 50.9466 493.432C50.6852 493.964 50.3072 494.375 49.8126 494.664C49.3179 494.953 48.7486 495.098 48.1046 495.098ZM48.1046 494.16C48.7766 494.16 49.2899 493.941 49.6446 493.502C50.0086 493.054 50.1906 492.405 50.1906 491.556C50.1906 490.725 50.0086 490.086 49.6446 489.638C49.2806 489.181 48.7672 488.952 48.1046 488.952C47.4419 488.952 46.9286 489.181 46.5646 489.638C46.2006 490.086 46.0186 490.725 46.0186 491.556C46.0186 492.396 46.1959 493.04 46.5506 493.488C46.9146 493.936 47.4326 494.16 48.1046 494.16ZM56.4722 488.014C57.0695 488.014 57.5969 488.163 58.0542 488.462C58.5115 488.761 58.8662 489.181 59.1182 489.722C59.3702 490.254 59.4962 490.875 59.4962 491.584C59.4962 492.293 59.3702 492.914 59.1182 493.446C58.8662 493.969 58.5115 494.375 58.0542 494.664C57.6062 494.953 57.0789 495.098 56.4722 495.098C55.9402 495.098 55.4735 494.981 55.0722 494.748C54.6802 494.515 54.3815 494.183 54.1762 493.754V497.52H53.0422V488.182H54.1762V489.358C54.3815 488.929 54.6802 488.597 55.0722 488.364C55.4735 488.131 55.9402 488.014 56.4722 488.014ZM56.2482 494.16C56.9109 494.16 57.4242 493.936 57.7882 493.488C58.1522 493.04 58.3342 492.405 58.3342 491.584C58.3342 490.763 58.1522 490.123 57.7882 489.666C57.4242 489.199 56.9109 488.966 56.2482 488.966C55.5855 488.966 55.0722 489.19 54.7082 489.638C54.3535 490.086 54.1762 490.725 54.1762 491.556C54.1762 492.387 54.3535 493.031 54.7082 493.488C55.0722 493.936 55.5855 494.16 56.2482 494.16ZM61.1906 495V488.182H62.3246V495H61.1906ZM61.0786 485.228H62.4506V486.502H61.0786V485.228ZM65.9565 488.182H67.8885V489.078H65.9565V495H64.8225V489.078H63.4925V488.182H64.8225V487.958C64.8225 487.053 65.0465 486.367 65.4945 485.9C65.9519 485.433 66.6519 485.172 67.5945 485.116L68.1545 485.088L68.2385 485.97L67.5945 486.012C67.0252 486.049 66.6099 486.213 66.3485 486.502C66.0872 486.782 65.9565 487.216 65.9565 487.804V488.182ZM74.1157 488.196H75.2497L71.2177 497.52H70.0557L71.2037 494.916L68.3197 488.196H69.5237L71.8057 493.768L74.1157 488.196Z" fill="black"/>
<g clip-path="url(#clip5_1570_3106)">
<path d="M65.155 439.788C65.1275 439.587 64.9523 439.476 64.8075 439.464C64.6629 439.451 61.6036 439.224 61.6036 439.224C61.6036 439.224 59.4789 437.104 59.2459 436.869C59.0124 436.635 58.5568 436.706 58.38 436.758C58.3538 436.766 57.9157 436.902 57.1909 437.127C56.481 435.075 55.2286 433.189 53.0249 433.189C52.9642 433.189 52.9015 433.191 52.8388 433.195C52.2122 432.362 51.4358 432 50.7653 432C45.6322 432 43.1797 438.449 42.4108 441.726C40.4162 442.347 38.9991 442.789 38.8181 442.846C37.7048 443.197 37.6696 443.232 37.5235 444.286C37.4132 445.085 34.5 467.726 34.5 467.726L57.2001 472L69.5 469.326C69.5 469.326 65.1822 439.989 65.155 439.788ZM55.9362 437.517C55.3661 437.695 54.718 437.896 54.0155 438.115C54.0161 437.979 54.0168 437.845 54.0168 437.698C54.0168 436.423 53.8406 435.396 53.5579 434.582C54.6934 434.725 55.4495 436.023 55.9362 437.517ZM52.1495 434.834C52.4651 435.629 52.6703 436.77 52.6703 438.31C52.6703 438.388 52.6697 438.46 52.6691 438.533C51.4198 438.922 50.0625 439.344 48.702 439.768C49.4659 436.805 50.8977 435.374 52.1495 434.834ZM50.6243 433.384C50.8459 433.384 51.0691 433.459 51.2827 433.607C49.6376 434.385 47.8742 436.344 47.1295 440.257C46.0411 440.596 44.9773 440.927 43.9938 441.233C44.8661 438.249 46.9374 433.384 50.6243 433.384Z" fill="#95BF46"/>
<path d="M64.8075 439.464C64.6629 439.451 61.6036 439.224 61.6036 439.224C61.6036 439.224 59.4789 437.104 59.2459 436.869C59.1586 436.782 59.0409 436.737 58.9178 436.718L57.2014 472L69.5 469.326C69.5 469.326 65.1822 439.989 65.155 439.788C65.1275 439.587 64.9523 439.476 64.8075 439.464Z" fill="#5E8E3E"/>
<path d="M53.025 446.294L51.5085 450.827C51.5085 450.827 50.1796 450.115 48.5509 450.115C46.163 450.115 46.0428 451.621 46.0428 452C46.0428 454.071 51.4138 454.864 51.4138 459.714C51.4138 463.53 49.0055 465.987 45.7582 465.987C41.8615 465.987 39.8689 463.55 39.8689 463.55L40.9122 460.086C40.9122 460.086 42.9605 461.853 44.689 461.853C45.8184 461.853 46.2778 460.96 46.2778 460.307C46.2778 457.605 41.8714 457.485 41.8714 453.047C41.8714 449.311 44.5394 445.696 49.9248 445.696C51.9999 445.696 53.025 446.294 53.025 446.294Z" fill="white"/>
</g>
<path d="M176.813 494.034H182.609V495H175.497V494.146L181.139 486.096H175.497V485.13H182.469V485.97L176.813 494.034ZM186.81 488.014C187.678 488.014 188.322 488.238 188.742 488.686C189.172 489.125 189.386 489.797 189.386 490.702V495H188.28V493.838C188.103 494.239 187.832 494.552 187.468 494.776C187.104 494.991 186.684 495.098 186.208 495.098C185.77 495.098 185.364 495.009 184.99 494.832C184.626 494.655 184.337 494.407 184.122 494.09C183.908 493.773 183.8 493.423 183.8 493.04C183.8 492.527 183.931 492.13 184.192 491.85C184.454 491.561 184.883 491.355 185.48 491.234C186.078 491.103 186.908 491.038 187.972 491.038H188.28V490.576C188.28 490.007 188.164 489.596 187.93 489.344C187.697 489.083 187.319 488.952 186.796 488.952C186.012 488.952 185.233 489.195 184.458 489.68L184.08 488.854C184.435 488.602 184.86 488.401 185.354 488.252C185.858 488.093 186.344 488.014 186.81 488.014ZM186.362 494.202C186.922 494.202 187.38 494.015 187.734 493.642C188.098 493.259 188.28 492.769 188.28 492.172V491.766H188.028C187.207 491.766 186.582 491.803 186.152 491.878C185.723 491.943 185.415 492.06 185.228 492.228C185.051 492.387 184.962 492.625 184.962 492.942C184.962 493.306 185.093 493.609 185.354 493.852C185.625 494.085 185.961 494.202 186.362 494.202ZM194.892 488.014C195.489 488.014 196.017 488.163 196.474 488.462C196.931 488.761 197.286 489.181 197.538 489.722C197.79 490.254 197.916 490.875 197.916 491.584C197.916 492.293 197.79 492.914 197.538 493.446C197.286 493.969 196.931 494.375 196.474 494.664C196.026 494.953 195.499 495.098 194.892 495.098C194.36 495.098 193.893 494.981 193.492 494.748C193.1 494.515 192.801 494.183 192.596 493.754V497.52H191.462V488.182H192.596V489.358C192.801 488.929 193.1 488.597 193.492 488.364C193.893 488.131 194.36 488.014 194.892 488.014ZM194.668 494.16C195.331 494.16 195.844 493.936 196.208 493.488C196.572 493.04 196.754 492.405 196.754 491.584C196.754 490.763 196.572 490.123 196.208 489.666C195.844 489.199 195.331 488.966 194.668 488.966C194.005 488.966 193.492 489.19 193.128 489.638C192.773 490.086 192.596 490.725 192.596 491.556C192.596 492.387 192.773 493.031 193.128 493.488C193.492 493.936 194.005 494.16 194.668 494.16ZM199.611 495V488.182H200.745V495H199.611ZM199.499 485.228H200.871V486.502H199.499V485.228ZM208.576 491.766H203.592C203.63 492.559 203.844 493.161 204.236 493.572C204.628 493.973 205.184 494.174 205.902 494.174C206.696 494.174 207.424 493.903 208.086 493.362L208.464 494.188C208.166 494.468 207.783 494.692 207.316 494.86C206.85 495.019 206.374 495.098 205.888 495.098C204.824 495.098 203.984 494.785 203.368 494.16C202.762 493.535 202.458 492.671 202.458 491.57C202.458 490.87 202.594 490.254 202.864 489.722C203.135 489.181 203.513 488.761 203.998 488.462C204.493 488.163 205.053 488.014 205.678 488.014C206.584 488.014 207.293 488.313 207.806 488.91C208.32 489.498 208.576 490.31 208.576 491.346V491.766ZM205.692 488.896C205.095 488.896 204.614 489.083 204.25 489.456C203.896 489.829 203.686 490.357 203.62 491.038H207.582C207.564 490.347 207.391 489.82 207.064 489.456C206.738 489.083 206.28 488.896 205.692 488.896ZM214.111 488.994L213.369 489.064C212.669 489.129 212.161 489.349 211.843 489.722C211.535 490.095 211.381 490.557 211.381 491.108V495H210.247V488.182H211.353V489.372C211.736 488.579 212.487 488.135 213.607 488.042L214.013 488.014L214.111 488.994Z" fill="black"/>
<g clip-path="url(#clip6_1570_3106)">
<path d="M195.013 432C196.142 432.002 197.254 432.098 198.334 432.279V443.952L206.589 435.698C207.5 436.347 208.353 437.069 209.142 437.858C209.931 438.646 210.655 439.501 211.304 440.413L203.049 448.667H214.723C214.904 449.747 215 450.854 215 451.986V452.013C215 453.145 214.904 454.254 214.723 455.334H203.047L211.304 463.587C210.655 464.498 209.931 465.354 209.144 466.142H209.142C208.353 466.931 207.5 467.655 206.591 468.302L198.334 460.047V471.721C197.256 471.902 196.144 471.998 195.014 472H194.986C193.855 471.998 192.748 471.902 191.668 471.721V460.047L183.413 468.302C181.59 467.006 179.996 465.41 178.698 463.587L186.953 455.334H175.279C175.096 454.252 175 453.139 175 452.007V451.949C175.002 451.655 175.021 451.296 175.049 450.925L175.057 450.813C175.139 449.768 175.279 448.667 175.279 448.667H186.953L178.698 440.413C179.345 439.501 180.067 438.648 180.856 437.862L180.86 437.858C181.647 437.069 182.502 436.347 183.413 435.698L191.668 443.952V432.279C192.748 432.098 193.858 432.002 194.989 432H195.013ZM195.011 447.001H194.991C193.506 447.001 192.083 447.273 190.767 447.769C190.274 449.082 190.001 450.505 189.999 451.991V452.009C190.001 453.495 190.274 454.918 190.769 456.231C192.083 456.727 193.506 456.999 194.991 456.999H195.011C196.496 456.999 197.919 456.727 199.233 456.231C199.728 454.916 200.001 453.495 200.001 452.009V451.991C200.001 450.505 199.728 449.082 199.233 447.769C197.919 447.273 196.496 447.001 195.011 447.001Z" fill="#FF4A00"/>
</g>
<defs>
<clipPath id="clip0_1570_3106">
<rect width="40" height="40" fill="white" transform="translate(175)"/>
</clipPath>
<clipPath id="clip1_1570_3106">
<rect width="40" height="40" fill="white" transform="translate(32 216)"/>
</clipPath>
<clipPath id="clip2_1570_3106">
<rect width="40" height="40" fill="white" transform="translate(171 216)"/>
</clipPath>
<clipPath id="clip3_1570_3106">
<rect width="40" height="40" fill="white" transform="translate(32 324)"/>
</clipPath>
<clipPath id="clip4_1570_3106">
<rect width="40" height="40" fill="white" transform="translate(175 324)"/>
</clipPath>
<clipPath id="clip5_1570_3106">
<rect width="40" height="40" fill="white" transform="translate(32 432)"/>
</clipPath>
<clipPath id="clip6_1570_3106">
<rect width="40" height="40" fill="white" transform="translate(175 432)"/>
</clipPath>
</defs>
</svg>
