<svg width="488" height="40" viewBox="0 0 488 40" fill="none" xmlns="http://www.w3.org/2000/svg">
<g clip-path="url(#clip0_1592_2937)">
<path d="M2.8428 20.0004C2.8428 26.7919 6.78936 32.661 12.5122 35.4422L4.32819 13.0177C3.37624 15.1516 2.8428 17.513 2.8428 20.0004ZM31.5816 19.1346C31.5816 17.0141 30.82 15.5456 30.1667 14.4026C29.2971 12.9893 28.4819 11.7924 28.4819 10.3791C28.4819 8.8019 29.678 7.33373 31.3629 7.33373C31.4389 7.33373 31.5111 7.3432 31.5852 7.34744C28.5328 4.55082 24.4661 2.84334 19.9995 2.84334C14.0057 2.84334 8.73244 5.91877 5.66471 10.577C6.06723 10.589 6.44658 10.5975 6.76879 10.5975C8.56334 10.5975 11.3412 10.3798 11.3412 10.3798C12.266 10.3253 12.3751 11.6837 11.4512 11.7931C11.4512 11.7931 10.5218 11.9025 9.48754 11.9567L15.7353 30.5415L19.4899 19.2802L16.8169 11.956C15.893 11.9018 15.0178 11.7924 15.0178 11.7924C14.0932 11.7383 14.2016 10.3246 15.1261 10.3791C15.1261 10.3791 17.9595 10.5969 19.6453 10.5969C21.4395 10.5969 24.2177 10.3791 24.2177 10.3791C25.1432 10.3246 25.2519 11.6831 24.3277 11.7924C24.3277 11.7924 23.3963 11.9018 22.3641 11.956L28.5642 30.4001L30.2755 24.6812C31.0172 22.308 31.5816 20.6035 31.5816 19.1346ZM20.3005 21.5013L15.1529 36.4602C16.6899 36.912 18.3153 37.1592 19.9995 37.1592C21.9974 37.1592 23.9134 36.8138 25.6969 36.1866C25.6508 36.1131 25.609 36.0351 25.5748 35.9502L20.3005 21.5013ZM35.0538 11.7686C35.1276 12.3151 35.1694 12.9018 35.1694 13.5329C35.1694 15.274 34.8442 17.2313 33.8649 19.6785L28.6242 34.8314C33.7248 31.8568 37.1556 26.3305 37.1556 20.0008C37.1559 17.0177 36.3939 14.2126 35.0538 11.7686ZM19.9995 0.000366211C8.97206 0.000366211 0 8.97232 0 20.0004C0 31.0299 8.97206 40.0015 19.9995 40.0015C31.0266 40.0015 40 31.0299 40 20.0004C39.9997 8.97232 31.0266 0.000366211 19.9995 0.000366211ZM19.9995 39.0848C9.47775 39.0848 0.917022 30.5235 0.917022 20.0004C0.917022 9.47804 9.47742 0.917445 19.9995 0.917445C30.5209 0.917445 39.081 9.47804 39.081 20.0004C39.081 30.5235 30.5209 39.0848 19.9995 39.0848Z" fill="#464342"/>
</g>
<g clip-path="url(#clip1_1592_2937)">
<path d="M146.147 25.5136C146.342 21.9487 145.103 16.1153 142.104 11.319C142.039 11.1893 141.876 11.2541 141.908 11.3838C142.104 12.0967 142.169 13.4255 140.996 13.3606C138.942 13.231 141.061 8.82355 136.529 5.80963C136.431 5.74481 136.334 5.84203 136.366 5.93926C136.692 6.5226 136.855 8.36984 136.138 8.98559C135.551 9.47171 134.508 9.34208 133.497 7.68928C131.802 4.93461 132.454 2.01791 133.595 0.170664C133.693 0.0410327 133.562 -0.023783 133.465 0.00862483C127.238 2.05032 125.999 9.34208 124.662 11.9995C124.434 12.4532 124.238 12.6801 123.88 12.6477C122.738 12.5829 123.554 10.1523 123.945 9.34208C124.01 9.21245 123.88 9.14763 123.782 9.24485C120.587 12.5505 117.685 18.2218 117.131 23.4719C117.164 23.3423 117.066 23.8932 117.033 24.3145C117.033 24.4765 117 24.6386 117 24.8006V25.384C116.935 33.3887 123.391 39.9027 131.443 39.9999C139.496 40.0647 146.049 33.6479 146.147 25.6432V25.5136ZM131.508 32.222C127.792 32.1896 124.792 29.1757 124.825 25.4488C124.858 21.7219 127.89 18.7728 131.639 18.8052C135.388 18.8376 138.355 21.8515 138.322 25.5784C138.29 29.3053 135.258 32.2544 131.508 32.222Z" fill="#F04E23"/>
</g>
<g clip-path="url(#clip2_1592_2937)">
<path fill-rule="evenodd" clip-rule="evenodd" d="M228.736 7.08199C227.253 8.81706 226.136 10.7915 225.316 12.9529C224.458 15.1987 224 17.5061 224 19.9684C224 22.7569 224.597 25.3424 225.625 27.7819C226.648 30.2056 228.047 32.2872 229.887 34.118C231.677 35.901 233.776 37.3282 236.203 38.3656C238.629 39.419 241.264 40.0004 243.999 40.0004C246.78 40.0004 249.373 39.4441 251.843 38.3656C254.205 37.3396 256.336 35.9352 258.159 34.118C259.962 32.3168 261.354 30.1919 262.354 27.7819C263.405 25.315 264 22.7569 264 19.9684C264 17.5061 263.538 15.1987 262.682 12.9529C261.844 10.7938 260.736 8.86037 259.264 7.08199C257.79 5.34236 256.085 3.90141 254.153 2.78878C251.118 1.0446 247.986 0.000366211 244.358 0.000366211C244.182 0.000366211 244.01 0.000366211 243.839 0.000366211C240.256 0.000366211 236.976 1.0218 233.891 2.78878C231.938 3.89457 230.215 5.3492 228.736 7.08199Z" fill="#241F20"/>
<path fill-rule="evenodd" clip-rule="evenodd" d="M257.362 7.24598C254.885 4.24781 251.678 2.31666 247.723 1.57111C243.836 0.843793 240.158 1.42747 236.674 3.30845C234.884 4.31165 233.371 5.56108 232.151 7.03394C230.897 8.54101 229.938 10.2761 229.32 12.2209C228.683 14.2136 228.521 16.3066 228.736 18.3472C229.255 17.0339 230.052 15.8324 231 14.6833C232.364 13.0622 234.058 11.847 235.946 10.9555C237.83 10.1119 239.899 9.64224 242.046 9.59436C244.207 9.59436 246.308 10.0139 248.259 10.8598C250.314 11.6874 252.104 12.9505 253.631 14.6377C254.201 15.2054 254.677 15.8848 255.144 16.5665C255.826 16.5665 256.513 16.6144 257.096 16.7786C258.628 17.2004 259.834 17.9779 260.775 19.1452L260.821 18.3997C260.988 16.3568 260.775 14.4279 260.207 12.5333C259.621 10.6477 258.673 8.86477 257.362 7.24598Z" fill="#FFAA00"/>
<path fill-rule="evenodd" clip-rule="evenodd" d="M228.31 26.1131C228.569 27.6863 229.045 29.1934 229.837 30.5705C230.574 31.9339 231.581 33.1811 232.833 34.2846L233.467 34.8021C235.633 36.2773 237.94 37.3306 240.467 37.8505C242.095 38.156 243.738 38.0602 245.315 37.6886C246.991 37.3306 248.572 36.6512 250.051 35.6457C248.682 35.3379 247.462 34.6061 246.517 33.5071L246.146 33.0853C244.159 33.2951 242.161 33.2312 240.158 32.8254C237.617 32.2417 235.422 31.1884 233.371 29.7292C231.419 28.254 229.794 26.373 228.569 24.1706L228.26 23.5367C228.212 24.3781 228.212 25.2672 228.31 26.1131Z" fill="#FFAA00"/>
<path fill-rule="evenodd" clip-rule="evenodd" d="M247.038 12.9027C245.2 12.1093 243.198 11.7513 241.149 11.7513C239.146 11.7992 237.258 12.221 235.518 13.0623C233.776 13.8421 232.265 14.9935 230.997 16.4686C230.098 17.5721 229.365 18.7714 228.896 20.0345C229.253 21.6054 229.834 23.0646 230.686 24.5398C231.89 26.5826 233.467 28.3154 235.42 29.6766C237.308 31.0377 239.473 31.9315 241.781 32.4467C243.195 32.7089 244.679 32.8229 246.146 32.7545C245.576 31.8175 245.2 30.828 245.038 29.6766C244.841 28.5115 244.894 27.3601 245.102 26.1107C245.363 24.5876 245.933 23.1763 246.727 21.8631C247.579 20.5498 248.684 19.3505 249.984 18.3929C250.834 17.7796 251.729 17.3099 252.624 16.9337L252.15 16.4002C250.671 14.8977 248.993 13.6802 247.038 12.9027Z" fill="#ED3921"/>
<path fill-rule="evenodd" clip-rule="evenodd" d="M261.1 21.8653L260.631 21.0719C259.944 23.4385 258.673 25.5315 257.048 27.4262C256.673 28.9971 256.039 30.4084 255.21 31.7217C254.361 33.0167 253.253 34.1841 251.987 35.1736C252.882 35.2215 253.777 35.0778 254.675 34.7518C255.517 34.444 256.3 33.9743 257.096 33.3405C258.156 32.3533 259.15 31.1859 259.994 29.9866L260.138 29.7769C260.514 28.9971 260.889 28.206 261.146 27.4741C261.409 26.6807 261.571 25.9032 261.622 25.1759C261.67 24.3779 261.67 23.6962 261.523 23.0167C261.411 22.5972 261.249 22.2233 261.1 21.8653Z" fill="#FF8800"/>
<path fill-rule="evenodd" clip-rule="evenodd" d="M226.47 12.6406C225.788 14.5261 225.415 16.5166 225.318 18.6734C225.27 21.4413 225.788 24.118 226.85 26.6328C227.367 27.8298 228.006 28.9972 228.782 30.1007C229.535 31.1381 230.363 32.1436 231.304 33.0168C229.258 30.7642 228.047 28.1536 227.681 25.2215C227.58 24.2183 227.58 23.2767 227.63 22.2872C226.948 20.388 226.573 18.5093 226.573 16.5644C226.573 14.7336 226.896 12.9507 227.468 11.1153C227.955 9.85446 228.573 8.65291 229.258 7.55396C228.047 9.12714 227.159 10.812 226.47 12.6406Z" fill="#F66418"/>
<path fill-rule="evenodd" clip-rule="evenodd" d="M262.405 13.7461C261.931 12.2231 261.313 10.7457 260.516 9.38452C259.736 8.07125 258.772 6.8697 257.623 5.77303C256.579 4.66723 255.359 3.72788 253.993 2.93445C255.144 3.7256 256.202 4.66723 257.149 5.72287C258.63 7.39181 259.738 9.17476 260.42 11.1697C261.102 13.2103 261.414 15.3193 261.251 17.5081C261.203 18.1898 261.102 18.8191 260.992 19.5008C261.251 19.9203 261.528 20.4401 261.741 20.9737C262.258 22.499 262.357 24.1178 262.096 25.7411C262.892 23.4908 263.297 21.1196 263.249 18.6732C263.151 16.9883 262.892 15.3193 262.405 13.7461Z" fill="#F66418"/>
<path fill-rule="evenodd" clip-rule="evenodd" d="M256.202 18.7214C256.724 19.8227 257.051 21.0242 257.195 22.2235C257.362 23.4387 257.408 24.5901 257.31 25.7415L257.097 26.8929C258.674 25.0621 259.734 23.0192 260.354 20.6503C259.995 20.2946 259.619 19.923 259.193 19.6152C258.351 19.0292 257.362 18.7214 256.202 18.7214Z" fill="#F66418"/>
<path fill-rule="evenodd" clip-rule="evenodd" d="M253.047 32.549C253.681 31.6554 254.201 30.6705 254.576 29.6788C252.459 31.188 250.152 32.2412 247.629 32.7565C247.986 33.3401 248.472 33.812 248.994 34.1836C249.518 34.5392 250.101 34.7991 250.784 35.0111C251.631 34.2816 252.411 33.4381 253.047 32.549Z" fill="#ED3921"/>
<path fill-rule="evenodd" clip-rule="evenodd" d="M242.465 38.1555L244.731 38.2672C246.684 38.2216 248.517 37.8477 250.312 37.2641C251.988 36.6964 253.629 35.9031 255.048 34.9137C254.151 35.3354 253.205 35.6432 252.2 35.6911C251.889 35.7549 251.514 35.7549 251.157 35.7549C248.575 37.4282 245.672 38.2216 242.465 38.1555Z" fill="#ED3921"/>
<path fill-rule="evenodd" clip-rule="evenodd" d="M254.998 22.9689C254.675 21.6078 254.201 20.3469 253.519 19.1454C252.313 19.5033 251.255 20.1349 250.262 20.9762C249.204 21.8677 248.309 22.9712 247.627 24.2206C247.039 25.4815 246.684 26.683 246.57 27.9438C246.423 29.1431 246.57 30.2489 246.895 31.3C247.039 31.6556 247.156 31.9794 247.368 32.2895C248.687 32.1458 249.889 31.7696 251.095 31.2521C252.361 30.7664 253.521 30.103 254.624 29.2594L254.723 29.191C254.936 28.4112 255.098 27.6201 255.213 26.838C255.307 25.5316 255.259 24.2799 254.998 22.9689Z" fill="#FFEC00"/>
</g>
<g clip-path="url(#clip3_1592_2937)">
<path d="M369.155 7.78848C369.128 7.58733 368.952 7.47615 368.807 7.46394C368.663 7.45172 365.604 7.2239 365.604 7.2239C365.604 7.2239 363.479 5.10408 363.246 4.8695C363.012 4.63493 362.557 4.70627 362.38 4.75864C362.354 4.76636 361.916 4.90228 361.191 5.12753C360.481 3.07519 359.229 1.18897 357.025 1.18897C356.964 1.18897 356.902 1.19154 356.839 1.19508C356.212 0.362186 355.436 0.000366211 354.765 0.000366211C349.632 0.000366211 347.18 6.44917 346.411 9.72643C344.416 10.3476 342.999 10.7891 342.818 10.8463C341.705 11.1972 341.67 11.2325 341.523 12.2868C341.413 13.085 338.5 35.726 338.5 35.726L361.2 40.0004L373.5 37.3262C373.5 37.3262 369.182 7.98963 369.155 7.78848ZM359.936 5.51763C359.366 5.695 358.718 5.89648 358.016 6.11498C358.016 5.97906 358.017 5.84507 358.017 5.69886C358.017 4.42317 357.841 3.3962 357.558 2.58194C358.693 2.72526 359.45 4.02344 359.936 5.51763ZM356.149 2.83483C356.465 3.62981 356.67 4.77053 356.67 6.31003C356.67 6.38876 356.67 6.46074 356.669 6.53368C355.42 6.92249 354.063 7.34472 352.702 7.76824C353.466 4.80556 354.898 3.37467 356.149 2.83483ZM354.624 1.38402C354.846 1.38402 355.069 1.45953 355.283 1.60735C353.638 2.38529 351.874 4.34477 351.13 8.25762C350.041 8.59631 348.977 8.92728 347.994 9.23351C348.866 6.24898 350.937 1.38402 354.624 1.38402Z" fill="#95BF46"/>
<path d="M368.808 7.46392C368.663 7.45171 365.604 7.22388 365.604 7.22388C365.604 7.22388 363.479 5.10406 363.246 4.86949C363.159 4.78208 363.041 4.73742 362.918 4.71814L361.202 40L373.5 37.3262C373.5 37.3262 369.182 7.98962 369.155 7.78846C369.128 7.58731 368.953 7.47613 368.808 7.46392Z" fill="#5E8E3E"/>
<path d="M357.025 14.2938L355.508 18.8274C355.508 18.8274 354.179 18.1147 352.551 18.1147C350.163 18.1147 350.043 19.6208 350.043 20.0003C350.043 22.071 355.414 22.8643 355.414 27.7145C355.414 31.5303 353.005 33.9875 349.758 33.9875C345.861 33.9875 343.869 31.5502 343.869 31.5502L344.912 28.086C344.912 28.086 346.96 29.8533 348.689 29.8533C349.818 29.8533 350.278 28.9597 350.278 28.3067C350.278 25.6056 345.871 25.4851 345.871 21.0469C345.871 17.3114 348.539 13.6964 353.925 13.6964C356 13.6964 357.025 14.2938 357.025 14.2938Z" fill="white"/>
</g>
<g clip-path="url(#clip4_1592_2937)">
<path d="M468.013 0.000366211C469.142 0.00244704 470.254 0.0981653 471.334 0.279197V11.9526L479.589 3.698C480.5 4.34721 481.353 5.06926 482.142 5.8579C482.931 6.64654 483.655 7.50178 484.304 8.41317L476.049 16.6678H487.723C487.904 17.7478 488 18.8548 488 19.9868V20.0138C488 21.1458 487.904 22.2549 487.723 23.3348H476.047L484.304 31.5874C483.655 32.4988 482.931 33.354 482.144 34.1426H482.142C481.353 34.9313 480.5 35.6554 479.591 36.3025L471.334 28.0479V39.7213C470.256 39.9024 469.144 39.998 468.015 40.0004H467.985C466.855 39.998 465.748 39.9024 464.668 39.7213V28.0479L456.413 36.3025C454.59 35.0062 452.996 33.4102 451.698 31.5874L459.953 23.3348H448.279C448.096 22.2527 448 21.1395 448 20.0075V19.9494C448.002 19.6557 448.021 19.2968 448.049 18.9255L448.057 18.8138C448.139 17.7688 448.279 16.6678 448.279 16.6678H459.953L451.698 8.41317C452.345 7.50178 453.067 6.64862 453.856 5.86208L453.86 5.8579C454.647 5.06926 455.502 4.34721 456.413 3.698L464.668 11.9526V0.279197C465.748 0.0981653 466.858 0.00244704 467.989 0.000366211H468.013ZM468.011 15.0011H467.991C466.506 15.0011 465.083 15.2737 463.767 15.7689C463.274 17.0819 463.001 18.5052 462.999 19.9909V20.0096C463.001 21.4953 463.274 22.9186 463.769 24.2316C465.083 24.7269 466.506 24.9995 467.991 24.9995H468.011C469.496 24.9995 470.919 24.7269 472.233 24.2316C472.728 22.9166 473.001 21.4953 473.001 20.0096V19.9909C473.001 18.5052 472.728 17.0819 472.233 15.7689C470.919 15.2737 469.496 15.0011 468.011 15.0011Z" fill="#FF4A00"/>
</g>
<defs>
<clipPath id="clip0_1592_2937">
<rect width="40" height="40" fill="white" transform="translate(0 0.000366211)"/>
</clipPath>
<clipPath id="clip1_1592_2937">
<rect width="40" height="40" fill="white" transform="translate(112 0.000366211)"/>
</clipPath>
<clipPath id="clip2_1592_2937">
<rect width="40" height="40" fill="white" transform="translate(224 0.000366211)"/>
</clipPath>
<clipPath id="clip3_1592_2937">
<rect width="40" height="40" fill="white" transform="translate(336 0.000366211)"/>
</clipPath>
<clipPath id="clip4_1592_2937">
<rect width="40" height="40" fill="white" transform="translate(448 0.000366211)"/>
</clipPath>
</defs>
</svg>
