<svg width="273" height="12" viewBox="0 0 273 12" fill="none" xmlns="http://www.w3.org/2000/svg">
<path d="M6.00009 11.07C5.06675 11.07 4.21742 10.8507 3.45209 10.412C2.69609 9.964 2.09409 9.362 1.64609 8.606C1.20742 7.84067 0.988086 6.99133 0.988086 6.058C0.988086 5.12467 1.20742 4.28 1.64609 3.524C2.08475 2.75867 2.68675 2.15667 3.45209 1.718C4.21742 1.27933 5.06675 1.06 6.00009 1.06C6.93342 1.06 7.77809 1.27933 8.53409 1.718C9.29942 2.15667 9.90142 2.75867 10.3401 3.524C10.7788 4.28 10.9981 5.12467 10.9981 6.058C10.9981 6.99133 10.7788 7.84067 10.3401 8.606C9.90142 9.362 9.29942 9.964 8.53409 10.412C7.76875 10.8507 6.92409 11.07 6.00009 11.07ZM6.00009 10.44C6.81209 10.44 7.54942 10.2487 8.21209 9.866C8.87475 9.48333 9.39275 8.96067 9.76609 8.298C10.1488 7.626 10.3401 6.87933 10.3401 6.058C10.3401 5.23667 10.1488 4.49467 9.76609 3.832C9.39275 3.16933 8.87475 2.64667 8.21209 2.264C7.54942 1.88133 6.81209 1.69 6.00009 1.69C5.18809 1.69 4.45075 1.88133 3.78809 2.264C3.12542 2.64667 2.60275 3.16933 2.22009 3.832C1.83742 4.49467 1.64609 5.23667 1.64609 6.058C1.64609 6.87933 1.83742 7.626 2.22009 8.298C2.60275 8.96067 3.12542 9.48333 3.78809 9.866C4.45075 10.2487 5.18809 10.44 6.00009 10.44ZM6.11209 9.082C5.23475 9.082 4.53942 8.81133 4.02609 8.27C3.52209 7.71933 3.27009 6.982 3.27009 6.058C3.27009 5.134 3.52209 4.40133 4.02609 3.86C4.53942 3.31867 5.23475 3.048 6.11209 3.048C6.50409 3.048 6.88675 3.118 7.26009 3.258C7.63342 3.38867 7.95075 3.57067 8.21209 3.804L7.87609 4.546C7.33475 4.11667 6.77475 3.902 6.19609 3.902C5.60809 3.902 5.15542 4.08867 4.83809 4.462C4.52075 4.83533 4.36209 5.36733 4.36209 6.058C4.36209 6.74867 4.52075 7.28533 4.83809 7.668C5.15542 8.04133 5.60809 8.228 6.19609 8.228C6.77475 8.228 7.33475 8.01333 7.87609 7.584L8.21209 8.326C7.95075 8.55933 7.63342 8.746 7.26009 8.886C6.88675 9.01667 6.50409 9.082 6.11209 9.082ZM22.8595 10.034V11H16.5035V10.132L19.9615 6.324C20.4281 5.80133 20.7641 5.33467 20.9695 4.924C21.1841 4.504 21.2915 4.084 21.2915 3.664C21.2915 3.12267 21.1328 2.70733 20.8155 2.418C20.4981 2.12867 20.0501 1.984 19.4715 1.984C18.5195 1.984 17.5861 2.362 16.6715 3.118L16.2375 2.236C16.6295 1.86267 17.1195 1.56867 17.7075 1.354C18.3048 1.13 18.9021 1.018 19.4995 1.018C20.4048 1.018 21.1188 1.25133 21.6415 1.718C22.1735 2.18467 22.4395 2.81467 22.4395 3.608C22.4395 4.17733 22.3088 4.72333 22.0475 5.246C21.7955 5.76867 21.3755 6.352 20.7875 6.996L17.9875 10.034H22.8595ZM27.908 11.112C26.7787 11.112 25.92 10.6827 25.332 9.824C24.744 8.96533 24.45 7.71467 24.45 6.072C24.45 4.42 24.744 3.16467 25.332 2.306C25.92 1.44733 26.7787 1.018 27.908 1.018C29.0373 1.018 29.896 1.44733 30.484 2.306C31.072 3.15533 31.366 4.406 31.366 6.058C31.366 7.71 31.072 8.96533 30.484 9.824C29.896 10.6827 29.0373 11.112 27.908 11.112ZM27.908 10.146C28.692 10.146 29.2707 9.81467 29.644 9.152C30.0173 8.48933 30.204 7.458 30.204 6.058C30.204 4.64867 30.0173 3.622 29.644 2.978C29.28 2.32467 28.7013 1.998 27.908 1.998C27.124 1.998 26.5453 2.32467 26.172 2.978C25.7987 3.63133 25.612 4.658 25.612 6.058C25.612 7.458 25.7987 8.48933 26.172 9.152C26.5453 9.81467 27.124 10.146 27.908 10.146ZM39.6485 10.034V11H33.2925V10.132L36.7505 6.324C37.2172 5.80133 37.5532 5.33467 37.7585 4.924C37.9732 4.504 38.0805 4.084 38.0805 3.664C38.0805 3.12267 37.9219 2.70733 37.6045 2.418C37.2872 2.12867 36.8392 1.984 36.2605 1.984C35.3085 1.984 34.3752 2.362 33.4605 3.118L33.0265 2.236C33.4185 1.86267 33.9085 1.56867 34.4965 1.354C35.0939 1.13 35.6912 1.018 36.2885 1.018C37.1939 1.018 37.9079 1.25133 38.4305 1.718C38.9625 2.18467 39.2285 2.81467 39.2285 3.608C39.2285 4.17733 39.0979 4.72333 38.8365 5.246C38.5845 5.76867 38.1645 6.352 37.5765 6.996L34.7765 10.034H39.6485ZM45.6351 10.034H47.8051V11H42.3171V10.034H44.4871V2.558L42.7511 3.65L42.2191 2.768L44.8091 1.13H45.6351V10.034ZM61.839 11H59.879L58.185 7.85C58.0263 7.55133 57.8303 7.34133 57.597 7.22C57.3636 7.09867 57.0696 7.038 56.715 7.038H55.343V11H53.565V1.13H57.933C59.053 1.13 59.9023 1.382 60.481 1.886C61.069 2.38067 61.363 3.09933 61.363 4.042C61.363 4.798 61.1483 5.42333 60.719 5.918C60.299 6.40333 59.7016 6.72067 58.927 6.87C59.4496 7.01 59.8696 7.37867 60.187 7.976L61.839 11ZM57.681 5.652C58.3623 5.652 58.8616 5.526 59.179 5.274C59.4963 5.01267 59.655 4.616 59.655 4.084C59.655 3.54267 59.4963 3.15067 59.179 2.908C58.8616 2.656 58.3623 2.53 57.681 2.53H55.329V5.652H57.681ZM63.2994 1.13H66.9394C68.554 1.13 69.8047 1.564 70.6914 2.432C71.5874 3.29067 72.0354 4.49933 72.0354 6.058C72.0354 7.61667 71.5874 8.83 70.6914 9.698C69.8047 10.566 68.554 11 66.9394 11H63.2994V1.13ZM66.8274 9.53C69.0954 9.53 70.2294 8.37267 70.2294 6.058C70.2294 3.75267 69.0954 2.6 66.8274 2.6H65.1054V9.53H66.8274ZM81.0008 11.126C80.2448 11.126 79.5355 11.0233 78.8728 10.818C78.2102 10.6127 77.6502 10.3233 77.1928 9.95L77.7948 8.634C78.2708 8.998 78.7702 9.264 79.2928 9.432C79.8248 9.6 80.3988 9.684 81.0148 9.684C81.6962 9.684 82.2188 9.56733 82.5828 9.334C82.9562 9.09133 83.1428 8.75533 83.1428 8.326C83.1428 7.95267 82.9702 7.668 82.6248 7.472C82.2888 7.276 81.7242 7.08933 80.9308 6.912C80.1095 6.73467 79.4422 6.52933 78.9288 6.296C78.4155 6.06267 78.0282 5.764 77.7668 5.4C77.5055 5.036 77.3748 4.574 77.3748 4.014C77.3748 3.43533 77.5335 2.91733 77.8508 2.46C78.1682 2.00267 78.6162 1.648 79.1948 1.396C79.7735 1.13467 80.4408 1.004 81.1968 1.004C81.8875 1.004 82.5455 1.11133 83.1708 1.326C83.7962 1.53133 84.3095 1.816 84.7108 2.18L84.1088 3.496C83.2315 2.796 82.2608 2.446 81.1968 2.446C80.5622 2.446 80.0582 2.57667 79.6848 2.838C79.3208 3.09 79.1388 3.44467 79.1388 3.902C79.1388 4.28467 79.3022 4.57867 79.6288 4.784C79.9555 4.98933 80.5108 5.18067 81.2948 5.358C82.1255 5.54467 82.7975 5.75467 83.3108 5.988C83.8335 6.212 84.2302 6.50133 84.5008 6.856C84.7808 7.21067 84.9208 7.65867 84.9208 8.2C84.9208 8.788 84.7622 9.306 84.4448 9.754C84.1368 10.1927 83.6842 10.5333 83.0868 10.776C82.4988 11.0093 81.8035 11.126 81.0008 11.126ZM89.8329 9.796C90.0382 9.796 90.2529 9.782 90.4769 9.754L90.3929 11.056C90.1129 11.084 89.8562 11.098 89.6229 11.098C88.6615 11.098 87.9522 10.8787 87.4949 10.44C87.0375 9.992 86.8089 9.32933 86.8089 8.452V5.47H85.4929V4.154H86.8089V2.11H88.5589V4.154H90.3649V5.47H88.5589V8.424C88.5589 9.33867 88.9835 9.796 89.8329 9.796ZM94.4408 3.986C95.4022 3.986 96.1162 4.21933 96.5828 4.686C97.0495 5.15267 97.2828 5.87133 97.2828 6.842V11H95.6168V9.95C95.4582 10.314 95.2062 10.5987 94.8608 10.804C94.5248 11.0093 94.1328 11.112 93.6848 11.112C93.2275 11.112 92.8122 11.0187 92.4388 10.832C92.0655 10.6453 91.7715 10.3887 91.5568 10.062C91.3422 9.73533 91.2348 9.37133 91.2348 8.97C91.2348 8.466 91.3608 8.06933 91.6128 7.78C91.8742 7.49067 92.2942 7.28067 92.8728 7.15C93.4515 7.01933 94.2495 6.954 95.2668 6.954H95.6168V6.632C95.6168 6.16533 95.5142 5.82933 95.3088 5.624C95.1128 5.41867 94.7815 5.316 94.3148 5.316C93.9508 5.316 93.5682 5.38133 93.1668 5.512C92.7748 5.63333 92.3875 5.806 92.0048 6.03L91.5148 4.826C91.8975 4.58333 92.3595 4.38267 92.9008 4.224C93.4422 4.06533 93.9555 3.986 94.4408 3.986ZM94.0348 9.852C94.5015 9.852 94.8795 9.698 95.1688 9.39C95.4675 9.07267 95.6168 8.66667 95.6168 8.172V7.878H95.3648C94.7395 7.878 94.2542 7.906 93.9088 7.962C93.5635 8.018 93.3162 8.116 93.1668 8.256C93.0175 8.396 92.9428 8.58733 92.9428 8.83C92.9428 9.12867 93.0455 9.376 93.2508 9.572C93.4562 9.75867 93.7175 9.852 94.0348 9.852ZM102.561 9.796C102.767 9.796 102.981 9.782 103.205 9.754L103.121 11.056C102.841 11.084 102.585 11.098 102.351 11.098C101.39 11.098 100.681 10.8787 100.223 10.44C99.766 9.992 99.5374 9.32933 99.5374 8.452V5.47H98.2214V4.154H99.5374V2.11H101.287V4.154H103.093V5.47H101.287V8.424C101.287 9.33867 101.712 9.796 102.561 9.796ZM104.229 11V4.154H105.979V11H104.229ZM104.131 0.976H106.063V2.698H104.131V0.976ZM110.906 11.112C110.206 11.112 109.59 10.9673 109.058 10.678C108.535 10.3887 108.129 9.97333 107.84 9.432C107.551 8.89067 107.406 8.26067 107.406 7.542C107.406 6.82333 107.551 6.198 107.84 5.666C108.129 5.12467 108.535 4.70933 109.058 4.42C109.59 4.13067 110.206 3.986 110.906 3.986C111.606 3.986 112.217 4.13067 112.74 4.42C113.272 4.70933 113.678 5.12467 113.958 5.666C114.247 6.198 114.392 6.82333 114.392 7.542C114.392 8.26067 114.247 8.89067 113.958 9.432C113.678 9.97333 113.272 10.3887 112.74 10.678C112.217 10.9673 111.606 11.112 110.906 11.112ZM110.892 9.754C111.461 9.754 111.895 9.56733 112.194 9.194C112.493 8.82067 112.642 8.27 112.642 7.542C112.642 6.82333 112.493 6.27733 112.194 5.904C111.895 5.52133 111.466 5.33 110.906 5.33C110.346 5.33 109.912 5.52133 109.604 5.904C109.305 6.27733 109.156 6.82333 109.156 7.542C109.156 8.27 109.305 8.82067 109.604 9.194C109.903 9.56733 110.332 9.754 110.892 9.754ZM119.813 3.986C120.634 3.986 121.245 4.21933 121.647 4.686C122.048 5.15267 122.249 5.85733 122.249 6.8V11H120.499V6.898C120.499 6.366 120.396 5.97867 120.191 5.736C119.995 5.49333 119.682 5.372 119.253 5.372C118.749 5.372 118.343 5.53067 118.035 5.848C117.736 6.16533 117.587 6.59 117.587 7.122V11H115.837V4.154H117.545V5.176C117.778 4.79333 118.091 4.49933 118.483 4.294C118.875 4.08867 119.318 3.986 119.813 3.986ZM123.998 9.572H125.426V11H123.998V9.572ZM131.143 1.13H135.049C136.085 1.13 136.887 1.382 137.457 1.886C138.035 2.39 138.325 3.104 138.325 4.028C138.325 4.952 138.035 5.67067 137.457 6.184C136.878 6.69733 136.075 6.954 135.049 6.954H132.291V11H131.143V1.13ZM134.937 6.002C136.439 6.002 137.191 5.344 137.191 4.028C137.191 2.73067 136.439 2.082 134.937 2.082H132.291V6.002H134.937ZM142.607 11.098C141.963 11.098 141.394 10.9533 140.899 10.664C140.414 10.3747 140.036 9.964 139.765 9.432C139.504 8.89067 139.373 8.26533 139.373 7.556C139.373 6.84667 139.504 6.226 139.765 5.694C140.036 5.15267 140.414 4.73733 140.899 4.448C141.394 4.15867 141.963 4.014 142.607 4.014C143.251 4.014 143.821 4.15867 144.315 4.448C144.81 4.73733 145.188 5.15267 145.449 5.694C145.72 6.226 145.855 6.84667 145.855 7.556C145.855 8.26533 145.72 8.89067 145.449 9.432C145.188 9.964 144.81 10.3747 144.315 10.664C143.821 10.9533 143.251 11.098 142.607 11.098ZM142.607 10.16C143.279 10.16 143.793 9.94067 144.147 9.502C144.511 9.054 144.693 8.40533 144.693 7.556C144.693 6.72533 144.511 6.086 144.147 5.638C143.783 5.18067 143.27 4.952 142.607 4.952C141.945 4.952 141.431 5.18067 141.067 5.638C140.703 6.086 140.521 6.72533 140.521 7.556C140.521 8.396 140.699 9.04 141.053 9.488C141.417 9.936 141.935 10.16 142.607 10.16ZM147.545 11V1.13H148.679V11H147.545ZM150.799 11V4.182H151.933V11H150.799ZM151.765 3.286H150.981L152.367 0.458H153.669L151.765 3.286ZM157.049 10.188C157.254 10.188 157.46 10.174 157.665 10.146L157.609 11.042C157.394 11.0793 157.161 11.098 156.909 11.098C156.088 11.098 155.467 10.8833 155.047 10.454C154.636 10.0247 154.431 9.42733 154.431 8.662V5.078H153.101V4.182H154.431V2.11H155.565V4.182H157.497V5.078H155.565V8.578C155.565 9.65133 156.06 10.188 157.049 10.188ZM158.811 11V4.182H159.945V11H158.811ZM158.699 1.228H160.071V2.502H158.699V1.228ZM164.949 11.098C164.277 11.098 163.693 10.9533 163.199 10.664C162.704 10.3747 162.321 9.96867 162.051 9.446C161.789 8.914 161.659 8.29333 161.659 7.584C161.659 6.87467 161.794 6.254 162.065 5.722C162.345 5.18067 162.732 4.76067 163.227 4.462C163.731 4.16333 164.319 4.014 164.991 4.014C165.448 4.014 165.896 4.098 166.335 4.266C166.773 4.42467 167.128 4.63933 167.399 4.91L167.021 5.75C166.377 5.22733 165.723 4.966 165.061 4.966C164.361 4.966 163.815 5.19467 163.423 5.652C163.031 6.10933 162.835 6.75333 162.835 7.584C162.835 8.40533 163.031 9.04 163.423 9.488C163.815 9.936 164.361 10.16 165.061 10.16C165.723 10.16 166.377 9.89867 167.021 9.376L167.399 10.216C167.109 10.4867 166.745 10.7013 166.307 10.86C165.868 11.0187 165.415 11.098 164.949 11.098ZM171.536 4.014C172.404 4.014 173.048 4.238 173.468 4.686C173.897 5.12467 174.112 5.79667 174.112 6.702V11H173.006V9.838C172.829 10.2393 172.558 10.552 172.194 10.776C171.83 10.9907 171.41 11.098 170.934 11.098C170.495 11.098 170.089 11.0093 169.716 10.832C169.352 10.6547 169.063 10.4073 168.848 10.09C168.633 9.77267 168.526 9.42267 168.526 9.04C168.526 8.52667 168.657 8.13 168.918 7.85C169.179 7.56067 169.609 7.35533 170.206 7.234C170.803 7.10333 171.634 7.038 172.698 7.038H173.006V6.576C173.006 6.00667 172.889 5.596 172.656 5.344C172.423 5.08267 172.045 4.952 171.522 4.952C170.738 4.952 169.959 5.19467 169.184 5.68L168.806 4.854C169.161 4.602 169.585 4.40133 170.08 4.252C170.584 4.09333 171.069 4.014 171.536 4.014ZM171.088 10.202C171.648 10.202 172.105 10.0153 172.46 9.642C172.824 9.25933 173.006 8.76933 173.006 8.172V7.766H172.754C171.933 7.766 171.307 7.80333 170.878 7.878C170.449 7.94333 170.141 8.06 169.954 8.228C169.777 8.38667 169.688 8.62467 169.688 8.942C169.688 9.306 169.819 9.60933 170.08 9.852C170.351 10.0853 170.687 10.202 171.088 10.202ZM185.845 1.13V11H184.711V9.754C184.506 10.1833 184.202 10.5147 183.801 10.748C183.409 10.9813 182.947 11.098 182.415 11.098C181.818 11.098 181.29 10.9487 180.833 10.65C180.376 10.3513 180.021 9.936 179.769 9.404C179.517 8.86267 179.391 8.23733 179.391 7.528C179.391 6.828 179.517 6.212 179.769 5.68C180.021 5.148 180.376 4.73733 180.833 4.448C181.29 4.15867 181.818 4.014 182.415 4.014C182.947 4.014 183.409 4.13067 183.801 4.364C184.202 4.59733 184.506 4.92867 184.711 5.358V1.13H185.845ZM182.639 10.16C183.302 10.16 183.81 9.936 184.165 9.488C184.529 9.03067 184.711 8.38667 184.711 7.556C184.711 6.72533 184.529 6.086 184.165 5.638C183.81 5.19 183.302 4.966 182.639 4.966C181.976 4.966 181.458 5.19 181.085 5.638C180.721 6.086 180.539 6.716 180.539 7.528C180.539 8.35867 180.721 9.00733 181.085 9.474C181.458 9.93133 181.976 10.16 182.639 10.16ZM193.658 7.766H188.674C188.711 8.55933 188.926 9.16133 189.318 9.572C189.71 9.97333 190.265 10.174 190.984 10.174C191.777 10.174 192.505 9.90333 193.168 9.362L193.546 10.188C193.247 10.468 192.864 10.692 192.398 10.86C191.931 11.0187 191.455 11.098 190.97 11.098C189.906 11.098 189.066 10.7853 188.45 10.16C187.843 9.53467 187.54 8.67133 187.54 7.57C187.54 6.87 187.675 6.254 187.946 5.722C188.216 5.18067 188.594 4.76067 189.08 4.462C189.574 4.16333 190.134 4.014 190.76 4.014C191.665 4.014 192.374 4.31267 192.888 4.91C193.401 5.498 193.658 6.31 193.658 7.346V7.766ZM190.774 4.896C190.176 4.896 189.696 5.08267 189.332 5.456C188.977 5.82933 188.767 6.35667 188.702 7.038H192.664C192.645 6.34733 192.472 5.82 192.146 5.456C191.819 5.08267 191.362 4.896 190.774 4.896ZM199.106 1.13H203.012C204.048 1.13 204.85 1.382 205.42 1.886C205.998 2.39 206.288 3.104 206.288 4.028C206.288 4.952 205.998 5.67067 205.42 6.184C204.841 6.69733 204.038 6.954 203.012 6.954H200.254V11H199.106V1.13ZM202.9 6.002C204.402 6.002 205.154 5.344 205.154 4.028C205.154 2.73067 204.402 2.082 202.9 2.082H200.254V6.002H202.9ZM211.688 4.994L210.946 5.064C210.246 5.12933 209.738 5.34867 209.42 5.722C209.112 6.09533 208.958 6.55733 208.958 7.108V11H207.824V4.182H208.93V5.372C209.313 4.57867 210.064 4.13533 211.184 4.042L211.59 4.014L211.688 4.994ZM212.76 11V4.182H213.894V11H212.76ZM212.648 1.228H214.02V2.502H212.648V1.228ZM220.9 4.196H222.034L219.094 11H218.03L215.104 4.196H216.308L218.59 9.768L220.9 4.196ZM225.854 4.014C226.722 4.014 227.366 4.238 227.786 4.686C228.216 5.12467 228.43 5.79667 228.43 6.702V11H227.324V9.838C227.147 10.2393 226.876 10.552 226.512 10.776C226.148 10.9907 225.728 11.098 225.252 11.098C224.814 11.098 224.408 11.0093 224.034 10.832C223.67 10.6547 223.381 10.4073 223.166 10.09C222.952 9.77267 222.844 9.42267 222.844 9.04C222.844 8.52667 222.975 8.13 223.236 7.85C223.498 7.56067 223.927 7.35533 224.524 7.234C225.122 7.10333 225.952 7.038 227.016 7.038H227.324V6.576C227.324 6.00667 227.208 5.596 226.974 5.344C226.741 5.08267 226.363 4.952 225.84 4.952C225.056 4.952 224.277 5.19467 223.502 5.68L223.124 4.854C223.479 4.602 223.904 4.40133 224.398 4.252C224.902 4.09333 225.388 4.014 225.854 4.014ZM225.406 10.202C225.966 10.202 226.424 10.0153 226.778 9.642C227.142 9.25933 227.324 8.76933 227.324 8.172V7.766H227.072C226.251 7.766 225.626 7.80333 225.196 7.878C224.767 7.94333 224.459 8.06 224.272 8.228C224.095 8.38667 224.006 8.62467 224.006 8.942C224.006 9.306 224.137 9.60933 224.398 9.852C224.669 10.0853 225.005 10.202 225.406 10.202ZM233.39 11.098C232.718 11.098 232.135 10.9533 231.64 10.664C231.145 10.3747 230.763 9.96867 230.492 9.446C230.231 8.914 230.1 8.29333 230.1 7.584C230.1 6.87467 230.235 6.254 230.506 5.722C230.786 5.18067 231.173 4.76067 231.668 4.462C232.172 4.16333 232.76 4.014 233.432 4.014C233.889 4.014 234.337 4.098 234.776 4.266C235.215 4.42467 235.569 4.63933 235.84 4.91L235.462 5.75C234.818 5.22733 234.165 4.966 233.502 4.966C232.802 4.966 232.256 5.19467 231.864 5.652C231.472 6.10933 231.276 6.75333 231.276 7.584C231.276 8.40533 231.472 9.04 231.864 9.488C232.256 9.936 232.802 10.16 233.502 10.16C234.165 10.16 234.818 9.89867 235.462 9.376L235.84 10.216C235.551 10.4867 235.187 10.7013 234.748 10.86C234.309 11.0187 233.857 11.098 233.39 11.098ZM237.205 11V4.182H238.339V11H237.205ZM237.093 1.228H238.465V2.502H237.093V1.228ZM246.507 1.13V11H245.373V9.754C245.168 10.1833 244.865 10.5147 244.463 10.748C244.071 10.9813 243.609 11.098 243.077 11.098C242.48 11.098 241.953 10.9487 241.495 10.65C241.038 10.3513 240.683 9.936 240.431 9.404C240.179 8.86267 240.053 8.23733 240.053 7.528C240.053 6.828 240.179 6.212 240.431 5.68C240.683 5.148 241.038 4.73733 241.495 4.448C241.953 4.15867 242.48 4.014 243.077 4.014C243.609 4.014 244.071 4.13067 244.463 4.364C244.865 4.59733 245.168 4.92867 245.373 5.358V1.13H246.507ZM243.301 10.16C243.964 10.16 244.473 9.936 244.827 9.488C245.191 9.03067 245.373 8.38667 245.373 7.556C245.373 6.72533 245.191 6.086 244.827 5.638C244.473 5.19 243.964 4.966 243.301 4.966C242.639 4.966 242.121 5.19 241.747 5.638C241.383 6.086 241.201 6.716 241.201 7.528C241.201 8.35867 241.383 9.00733 241.747 9.474C242.121 9.93133 242.639 10.16 243.301 10.16ZM251.38 4.014C252.248 4.014 252.892 4.238 253.312 4.686C253.741 5.12467 253.956 5.79667 253.956 6.702V11H252.85V9.838C252.672 10.2393 252.402 10.552 252.038 10.776C251.674 10.9907 251.254 11.098 250.778 11.098C250.339 11.098 249.933 11.0093 249.56 10.832C249.196 10.6547 248.906 10.4073 248.692 10.09C248.477 9.77267 248.37 9.42267 248.37 9.04C248.37 8.52667 248.5 8.13 248.762 7.85C249.023 7.56067 249.452 7.35533 250.05 7.234C250.647 7.10333 251.478 7.038 252.542 7.038H252.85V6.576C252.85 6.00667 252.733 5.596 252.5 5.344C252.266 5.08267 251.888 4.952 251.366 4.952C250.582 4.952 249.802 5.19467 249.028 5.68L248.65 4.854C249.004 4.602 249.429 4.40133 249.924 4.252C250.428 4.09333 250.913 4.014 251.38 4.014ZM250.932 10.202C251.492 10.202 251.949 10.0153 252.304 9.642C252.668 9.25933 252.85 8.76933 252.85 8.172V7.766H252.598C251.776 7.766 251.151 7.80333 250.722 7.878C250.292 7.94333 249.984 8.06 249.798 8.228C249.62 8.38667 249.532 8.62467 249.532 8.942C249.532 9.306 249.662 9.60933 249.924 9.852C250.194 10.0853 250.53 10.202 250.932 10.202ZM262.079 1.13V11H260.945V9.754C260.74 10.1833 260.437 10.5147 260.035 10.748C259.643 10.9813 259.181 11.098 258.649 11.098C258.052 11.098 257.525 10.9487 257.067 10.65C256.61 10.3513 256.255 9.936 256.003 9.404C255.751 8.86267 255.625 8.23733 255.625 7.528C255.625 6.828 255.751 6.212 256.003 5.68C256.255 5.148 256.61 4.73733 257.067 4.448C257.525 4.15867 258.052 4.014 258.649 4.014C259.181 4.014 259.643 4.13067 260.035 4.364C260.437 4.59733 260.74 4.92867 260.945 5.358V1.13H262.079ZM258.873 10.16C259.536 10.16 260.045 9.936 260.399 9.488C260.763 9.03067 260.945 8.38667 260.945 7.556C260.945 6.72533 260.763 6.086 260.399 5.638C260.045 5.19 259.536 4.966 258.873 4.966C258.211 4.966 257.693 5.19 257.319 5.638C256.955 6.086 256.773 6.716 256.773 7.528C256.773 8.35867 256.955 9.00733 257.319 9.474C257.693 9.93133 258.211 10.16 258.873 10.16ZM269.892 7.766H264.908C264.945 8.55933 265.16 9.16133 265.552 9.572C265.944 9.97333 266.499 10.174 267.218 10.174C268.011 10.174 268.739 9.90333 269.402 9.362L269.78 10.188C269.481 10.468 269.099 10.692 268.632 10.86C268.165 11.0187 267.689 11.098 267.204 11.098C266.14 11.098 265.3 10.7853 264.684 10.16C264.077 9.53467 263.774 8.67133 263.774 7.57C263.774 6.87 263.909 6.254 264.18 5.722C264.451 5.18067 264.829 4.76067 265.314 4.462C265.809 4.16333 266.369 4.014 266.994 4.014C267.899 4.014 268.609 4.31267 269.122 4.91C269.635 5.498 269.892 6.31 269.892 7.346V7.766ZM267.008 4.896C266.411 4.896 265.93 5.08267 265.566 5.456C265.211 5.82933 265.001 6.35667 264.936 7.038H268.898C268.879 6.34733 268.707 5.82 268.38 5.456C268.053 5.08267 267.596 4.896 267.008 4.896ZM271.395 9.572H272.823V11H271.395V9.572Z" fill="#212429"/>
<path d="M129.925 12.4H270.508V13.1H129.925V12.4Z" fill="#212429"/>
</svg>
